<svg width="280" height="50" viewBox="0 0 280 50" fill="none" xmlns="http://www.w3.org/2000/svg">
<line x1="2.37423" y1="-13.6684" x2="-67.6258" y2="65.3316" stroke="#74C968"/>
<line x1="6.37423" y1="-13.6684" x2="-63.6258" y2="65.3316" stroke="#74C968"/>
<line x1="10.3742" y1="-13.6684" x2="-59.6258" y2="65.3316" stroke="#74C968"/>
<line x1="14.3742" y1="-13.6684" x2="-55.6258" y2="65.3316" stroke="#74C968"/>
<line x1="18.3742" y1="-13.6684" x2="-51.6258" y2="65.3316" stroke="#74C968"/>
<line x1="22.3742" y1="-13.6684" x2="-47.6258" y2="65.3316" stroke="#74C968"/>
<line x1="26.3742" y1="-13.6684" x2="-43.6258" y2="65.3316" stroke="#74C968"/>
<line x1="30.3742" y1="-13.6684" x2="-39.6258" y2="65.3316" stroke="#74C968"/>
<line x1="34.3742" y1="-13.6684" x2="-35.6258" y2="65.3316" stroke="#74C968"/>
<line x1="38.3742" y1="-13.6684" x2="-31.6258" y2="65.3316" stroke="#74C968"/>
<line x1="42.3742" y1="-13.6684" x2="-27.6258" y2="65.3316" stroke="#74C968"/>
<line x1="46.3742" y1="-13.6684" x2="-23.6258" y2="65.3316" stroke="#74C968"/>
<line x1="50.3742" y1="-13.6684" x2="-19.6258" y2="65.3316" stroke="#74C968"/>
<line x1="54.3742" y1="-13.6684" x2="-15.6258" y2="65.3316" stroke="#74C968"/>
<line x1="58.3742" y1="-13.6684" x2="-11.6258" y2="65.3316" stroke="#74C968"/>
<line x1="62.3742" y1="-13.6684" x2="-7.62577" y2="65.3316" stroke="#74C968"/>
<line x1="66.3742" y1="-13.6684" x2="-3.62577" y2="65.3316" stroke="#74C968"/>
<line x1="70.3742" y1="-13.6684" x2="0.374229" y2="65.3316" stroke="#74C968"/>
<line x1="74.3742" y1="-13.6684" x2="4.37423" y2="65.3316" stroke="#74C968"/>
<line x1="78.3742" y1="-13.6684" x2="8.37423" y2="65.3316" stroke="#74C968"/>
<line x1="82.3742" y1="-13.6684" x2="12.3742" y2="65.3316" stroke="#74C968"/>
<line x1="86.3742" y1="-13.6684" x2="16.3742" y2="65.3316" stroke="#74C968"/>
<line x1="90.3742" y1="-13.6684" x2="20.3742" y2="65.3316" stroke="#74C968"/>
<line x1="94.3742" y1="-13.6684" x2="24.3742" y2="65.3316" stroke="#74C968"/>
<line x1="98.3742" y1="-13.6684" x2="28.3742" y2="65.3316" stroke="#74C968"/>
<line x1="102.374" y1="-13.6684" x2="32.3742" y2="65.3316" stroke="#74C968"/>
<line x1="106.374" y1="-13.6684" x2="36.3742" y2="65.3316" stroke="#74C968"/>
<line x1="110.374" y1="-13.6684" x2="40.3742" y2="65.3316" stroke="#74C968"/>
<line x1="114.374" y1="-13.6684" x2="44.3742" y2="65.3316" stroke="#74C968"/>
<line x1="118.374" y1="-13.6684" x2="48.3742" y2="65.3316" stroke="#74C968"/>
<line x1="122.374" y1="-13.6684" x2="52.3742" y2="65.3316" stroke="#74C968"/>
<line x1="126.374" y1="-13.6684" x2="56.3742" y2="65.3316" stroke="#74C968"/>
<line x1="130.374" y1="-13.6684" x2="60.3742" y2="65.3316" stroke="#74C968"/>
<line x1="134.374" y1="-13.6684" x2="64.3742" y2="65.3316" stroke="#74C968"/>
<line x1="138.374" y1="-13.6684" x2="68.3742" y2="65.3316" stroke="#74C968"/>
<line x1="142.374" y1="-13.6684" x2="72.3742" y2="65.3316" stroke="#74C968"/>
<line x1="146.374" y1="-13.6684" x2="76.3742" y2="65.3316" stroke="#74C968"/>
<line x1="150.374" y1="-13.6684" x2="80.3742" y2="65.3316" stroke="#74C968"/>
<line x1="154.374" y1="-13.6684" x2="84.3742" y2="65.3316" stroke="#74C968"/>
<line x1="158.374" y1="-13.6684" x2="88.3742" y2="65.3316" stroke="#74C968"/>
<line x1="162.374" y1="-13.6684" x2="92.3742" y2="65.3316" stroke="#74C968"/>
<line x1="166.374" y1="-13.6684" x2="96.3742" y2="65.3316" stroke="#74C968"/>
<line x1="170.374" y1="-13.6684" x2="100.374" y2="65.3316" stroke="#74C968"/>
<line x1="174.374" y1="-13.6684" x2="104.374" y2="65.3316" stroke="#74C968"/>
<line x1="178.374" y1="-13.6684" x2="108.374" y2="65.3316" stroke="#74C968"/>
<line x1="182.374" y1="-13.6684" x2="112.374" y2="65.3316" stroke="#74C968"/>
<line x1="186.374" y1="-13.6684" x2="116.374" y2="65.3316" stroke="#74C968"/>
<line x1="190.374" y1="-13.6684" x2="120.374" y2="65.3316" stroke="#74C968"/>
<line x1="194.374" y1="-13.6684" x2="124.374" y2="65.3316" stroke="#74C968"/>
<line x1="198.374" y1="-13.6684" x2="128.374" y2="65.3316" stroke="#74C968"/>
<line x1="202.374" y1="-13.6684" x2="132.374" y2="65.3316" stroke="#74C968"/>
<line x1="206.374" y1="-13.6684" x2="136.374" y2="65.3316" stroke="#74C968"/>
<line x1="210.374" y1="-13.6684" x2="140.374" y2="65.3316" stroke="#74C968"/>
<line x1="214.374" y1="-13.6684" x2="144.374" y2="65.3316" stroke="#74C968"/>
<line x1="218.374" y1="-13.6684" x2="148.374" y2="65.3316" stroke="#74C968"/>
<line x1="222.374" y1="-13.6684" x2="152.374" y2="65.3316" stroke="#74C968"/>
<line x1="226.374" y1="-13.6684" x2="156.374" y2="65.3316" stroke="#74C968"/>
<line x1="230.374" y1="-13.6684" x2="160.374" y2="65.3316" stroke="#74C968"/>
<line x1="234.374" y1="-13.6684" x2="164.374" y2="65.3316" stroke="#74C968"/>
<line x1="238.374" y1="-13.6684" x2="168.374" y2="65.3316" stroke="#74C968"/>
<line x1="242.374" y1="-13.6684" x2="172.374" y2="65.3316" stroke="#74C968"/>
<line x1="246.374" y1="-13.6684" x2="176.374" y2="65.3316" stroke="#74C968"/>
<line x1="250.374" y1="-13.6684" x2="180.374" y2="65.3316" stroke="#74C968"/>
<line x1="254.374" y1="-13.6684" x2="184.374" y2="65.3316" stroke="#74C968"/>
<line x1="258.374" y1="-13.6684" x2="188.374" y2="65.3316" stroke="#74C968"/>
<line x1="262.374" y1="-13.6684" x2="192.374" y2="65.3316" stroke="#74C968"/>
<line x1="266.374" y1="-13.6684" x2="196.374" y2="65.3316" stroke="#74C968"/>
<line x1="270.374" y1="-13.6684" x2="200.374" y2="65.3316" stroke="#74C968"/>
<line x1="274.374" y1="-13.6684" x2="204.374" y2="65.3316" stroke="#74C968"/>
<line x1="278.374" y1="-13.6684" x2="208.374" y2="65.3316" stroke="#74C968"/>
<line x1="282.374" y1="-13.6684" x2="212.374" y2="65.3316" stroke="#74C968"/>
<line x1="286.374" y1="-13.6684" x2="216.374" y2="65.3316" stroke="#74C968"/>
<line x1="290.374" y1="-13.6684" x2="220.374" y2="65.3316" stroke="#74C968"/>
<line x1="294.374" y1="-13.6684" x2="224.374" y2="65.3316" stroke="#74C968"/>
<line x1="298.374" y1="-13.6684" x2="228.374" y2="65.3316" stroke="#74C968"/>
<line x1="302.374" y1="-13.6684" x2="232.374" y2="65.3316" stroke="#74C968"/>
<line x1="306.374" y1="-13.6684" x2="236.374" y2="65.3316" stroke="#74C968"/>
<line x1="310.374" y1="-13.6684" x2="240.374" y2="65.3316" stroke="#74C968"/>
<line x1="314.374" y1="-13.6684" x2="244.374" y2="65.3316" stroke="#74C968"/>
<line x1="318.374" y1="-13.6684" x2="248.374" y2="65.3316" stroke="#74C968"/>
<line x1="322.374" y1="-13.6684" x2="252.374" y2="65.3316" stroke="#74C968"/>
<line x1="326.374" y1="-13.6684" x2="256.374" y2="65.3316" stroke="#74C968"/>
<line x1="330.374" y1="-13.6684" x2="260.374" y2="65.3316" stroke="#74C968"/>
<line x1="334.374" y1="-13.6684" x2="264.374" y2="65.3316" stroke="#74C968"/>
<line x1="338.374" y1="-13.6684" x2="268.374" y2="65.3316" stroke="#74C968"/>
<line x1="342.374" y1="-13.6684" x2="272.374" y2="65.3316" stroke="#74C968"/>
<line x1="346.374" y1="-13.6684" x2="276.374" y2="65.3316" stroke="#74C968"/>
</svg>
