<svg width="314" height="54" viewBox="0 0 314 54" fill="none" xmlns="http://www.w3.org/2000/svg">
<mask id="path-1-outside-1_317_233" maskUnits="userSpaceOnUse" x="0" y="0" width="314" height="54" fill="black">
<rect fill="white" width="314" height="54"/>
<path d="M36.728 51L33.4 40.12H16.76L13.432 51H3L19.128 5.112H30.968L47.16 51H36.728ZM27.768 21.368C27.5547 20.6427 27.2773 19.7253 26.936 18.616C26.5947 17.5067 26.2533 16.376 25.912 15.224C25.5707 14.072 25.2933 13.0693 25.08 12.216C24.8667 13.0693 24.568 14.136 24.184 15.416C23.8427 16.6533 23.5013 17.848 23.16 19C22.8613 20.1093 22.6267 20.8987 22.456 21.368L19.192 31.992H31.096L27.768 21.368ZM61.7155 13.688C61.7155 15.0107 61.6728 16.312 61.5875 17.592C61.5022 18.872 61.4168 19.8747 61.3315 20.6H61.7155C62.6542 19.1493 63.9128 17.9333 65.4915 16.952C67.0702 15.928 69.1182 15.416 71.6355 15.416C75.5608 15.416 78.7395 16.952 81.1715 20.024C83.6035 23.0533 84.8195 27.5333 84.8195 33.464C84.8195 37.432 84.2435 40.7813 83.0915 43.512C81.9822 46.2 80.4248 48.2267 78.4195 49.592C76.4142 50.9573 74.0675 51.64 71.3795 51.64C68.8195 51.64 66.7928 51.192 65.2995 50.296C63.8488 49.3573 62.6542 48.312 61.7155 47.16H61.0755L59.4755 51H52.1795V2.36H61.7155V13.688ZM68.5635 23.032C66.8995 23.032 65.5768 23.3733 64.5955 24.056C63.6142 24.7387 62.8888 25.784 62.4195 27.192C61.9928 28.5573 61.7582 30.2853 61.7155 32.376V33.4C61.7155 36.7707 62.2062 39.3733 63.1875 41.208C64.2115 43 66.0462 43.896 68.6915 43.896C70.6542 43.896 72.2115 43 73.3635 41.208C74.5155 39.3733 75.0915 36.7493 75.0915 33.336C75.0915 29.9227 74.4942 27.3627 73.2995 25.656C72.1475 23.9067 70.5688 23.032 68.5635 23.032ZM124.424 33.464C124.424 36.3653 124.018 38.9467 123.208 41.208C122.44 43.4693 121.309 45.3893 119.816 46.968C118.365 48.504 116.594 49.6773 114.504 50.488C112.413 51.256 110.045 51.64 107.4 51.64C104.968 51.64 102.706 51.256 100.616 50.488C98.5675 49.6773 96.7968 48.504 95.3035 46.968C93.8102 45.3893 92.6368 43.4693 91.7835 41.208C90.9728 38.9467 90.5675 36.3653 90.5675 33.464C90.5675 29.5813 91.2502 26.3173 92.6155 23.672C93.9808 20.984 95.9435 18.936 98.5035 17.528C101.064 16.12 104.093 15.416 107.592 15.416C110.877 15.416 113.778 16.12 116.296 17.528C118.813 18.936 120.797 20.984 122.248 23.672C123.698 26.3173 124.424 29.5813 124.424 33.464ZM100.296 33.464C100.296 35.768 100.53 37.7093 101 39.288C101.512 40.824 102.301 41.9973 103.368 42.808C104.434 43.576 105.821 43.96 107.528 43.96C109.234 43.96 110.6 43.576 111.624 42.808C112.69 41.9973 113.458 40.824 113.928 39.288C114.44 37.7093 114.696 35.768 114.696 33.464C114.696 31.16 114.44 29.24 113.928 27.704C113.458 26.168 112.69 25.016 111.624 24.248C110.557 23.48 109.17 23.096 107.464 23.096C104.946 23.096 103.112 23.9707 101.96 25.72C100.85 27.4267 100.296 30.008 100.296 33.464ZM164.369 16.056V51H157.073L155.793 46.52H155.281C154.555 47.7147 153.617 48.696 152.465 49.464C151.355 50.1893 150.118 50.7227 148.753 51.064C147.387 51.448 145.979 51.64 144.529 51.64C142.054 51.64 139.878 51.192 138.001 50.296C136.123 49.4 134.673 48.0133 133.649 46.136C132.625 44.2587 132.113 41.8267 132.113 38.84V16.056H141.649V36.472C141.649 38.9467 142.097 40.824 142.993 42.104C143.889 43.384 145.318 44.024 147.281 44.024C149.243 44.024 150.758 43.576 151.825 42.68C152.934 41.784 153.702 40.4827 154.129 38.776C154.598 37.0693 154.833 34.9787 154.833 32.504V16.056H164.369ZM189.087 44.024C190.154 44.024 191.178 43.9173 192.159 43.704C193.14 43.4907 194.122 43.2347 195.103 42.936V50.04C194.079 50.4667 192.799 50.8293 191.263 51.128C189.77 51.4693 188.127 51.64 186.335 51.64C184.244 51.64 182.367 51.2987 180.703 50.616C179.082 49.9333 177.78 48.76 176.799 47.096C175.86 45.3893 175.391 43.0427 175.391 40.056V23.224H170.847V19.192L176.095 15.992L178.847 8.632H184.927V16.056H194.719V23.224H184.927V40.056C184.927 41.3787 185.311 42.3813 186.079 43.064C186.847 43.704 187.85 44.024 189.087 44.024ZM259.766 15.416C263.734 15.416 266.721 16.44 268.726 18.488C270.774 20.4933 271.798 23.736 271.798 28.216V51H262.262V30.584C262.262 28.0667 261.835 26.1893 260.982 24.952C260.129 23.672 258.806 23.032 257.014 23.032C254.497 23.032 252.705 23.928 251.638 25.72C250.571 27.512 250.038 30.0933 250.038 33.464V51H240.502V30.584C240.502 28.92 240.31 27.5333 239.926 26.424C239.542 25.3147 238.966 24.4827 238.198 23.928C237.43 23.3307 236.449 23.032 235.254 23.032C233.505 23.032 232.118 23.48 231.094 24.376C230.07 25.272 229.345 26.5733 228.918 28.28C228.491 29.9867 228.278 32.0773 228.278 34.552V51H218.742V16.056H226.038L227.318 20.536H227.83C228.555 19.3413 229.451 18.3813 230.518 17.656C231.585 16.888 232.758 16.3333 234.038 15.992C235.361 15.608 236.683 15.416 238.006 15.416C240.566 15.416 242.742 15.8427 244.534 16.696C246.326 17.5067 247.691 18.7867 248.63 20.536H249.462C250.529 18.744 252.001 17.4427 253.878 16.632C255.798 15.8213 257.761 15.416 259.766 15.416ZM296.017 15.416C299.26 15.416 302.033 16.0347 304.337 17.272C306.684 18.5093 308.497 20.3013 309.777 22.648C311.057 24.9947 311.697 27.8747 311.697 31.288V35.896H289.169C289.254 38.584 290.044 40.696 291.537 42.232C293.073 43.768 295.185 44.536 297.873 44.536C300.134 44.536 302.182 44.3227 304.017 43.896C305.852 43.4267 307.75 42.7227 309.713 41.784V49.144C308.006 49.9973 306.193 50.616 304.273 51C302.396 51.4267 300.113 51.64 297.425 51.64C293.926 51.64 290.833 51 288.145 49.72C285.457 48.3973 283.345 46.4133 281.809 43.768C280.273 41.1227 279.505 37.7947 279.505 33.784C279.505 29.688 280.188 26.296 281.553 23.608C282.961 20.8773 284.902 18.8293 287.377 17.464C289.852 16.0987 292.732 15.416 296.017 15.416ZM296.081 22.2C294.246 22.2 292.71 22.7973 291.473 23.992C290.278 25.1867 289.574 27.0427 289.361 29.56H302.737C302.737 28.152 302.481 26.8933 301.969 25.784C301.5 24.6747 300.774 23.8 299.793 23.16C298.812 22.52 297.574 22.2 296.081 22.2Z"/>
</mask>
<path d="M36.728 51L33.4 40.12H16.76L13.432 51H3L19.128 5.112H30.968L47.16 51H36.728ZM27.768 21.368C27.5547 20.6427 27.2773 19.7253 26.936 18.616C26.5947 17.5067 26.2533 16.376 25.912 15.224C25.5707 14.072 25.2933 13.0693 25.08 12.216C24.8667 13.0693 24.568 14.136 24.184 15.416C23.8427 16.6533 23.5013 17.848 23.16 19C22.8613 20.1093 22.6267 20.8987 22.456 21.368L19.192 31.992H31.096L27.768 21.368ZM61.7155 13.688C61.7155 15.0107 61.6728 16.312 61.5875 17.592C61.5022 18.872 61.4168 19.8747 61.3315 20.6H61.7155C62.6542 19.1493 63.9128 17.9333 65.4915 16.952C67.0702 15.928 69.1182 15.416 71.6355 15.416C75.5608 15.416 78.7395 16.952 81.1715 20.024C83.6035 23.0533 84.8195 27.5333 84.8195 33.464C84.8195 37.432 84.2435 40.7813 83.0915 43.512C81.9822 46.2 80.4248 48.2267 78.4195 49.592C76.4142 50.9573 74.0675 51.64 71.3795 51.64C68.8195 51.64 66.7928 51.192 65.2995 50.296C63.8488 49.3573 62.6542 48.312 61.7155 47.16H61.0755L59.4755 51H52.1795V2.36H61.7155V13.688ZM68.5635 23.032C66.8995 23.032 65.5768 23.3733 64.5955 24.056C63.6142 24.7387 62.8888 25.784 62.4195 27.192C61.9928 28.5573 61.7582 30.2853 61.7155 32.376V33.4C61.7155 36.7707 62.2062 39.3733 63.1875 41.208C64.2115 43 66.0462 43.896 68.6915 43.896C70.6542 43.896 72.2115 43 73.3635 41.208C74.5155 39.3733 75.0915 36.7493 75.0915 33.336C75.0915 29.9227 74.4942 27.3627 73.2995 25.656C72.1475 23.9067 70.5688 23.032 68.5635 23.032ZM124.424 33.464C124.424 36.3653 124.018 38.9467 123.208 41.208C122.44 43.4693 121.309 45.3893 119.816 46.968C118.365 48.504 116.594 49.6773 114.504 50.488C112.413 51.256 110.045 51.64 107.4 51.64C104.968 51.64 102.706 51.256 100.616 50.488C98.5675 49.6773 96.7968 48.504 95.3035 46.968C93.8102 45.3893 92.6368 43.4693 91.7835 41.208C90.9728 38.9467 90.5675 36.3653 90.5675 33.464C90.5675 29.5813 91.2502 26.3173 92.6155 23.672C93.9808 20.984 95.9435 18.936 98.5035 17.528C101.064 16.12 104.093 15.416 107.592 15.416C110.877 15.416 113.778 16.12 116.296 17.528C118.813 18.936 120.797 20.984 122.248 23.672C123.698 26.3173 124.424 29.5813 124.424 33.464ZM100.296 33.464C100.296 35.768 100.53 37.7093 101 39.288C101.512 40.824 102.301 41.9973 103.368 42.808C104.434 43.576 105.821 43.96 107.528 43.96C109.234 43.96 110.6 43.576 111.624 42.808C112.69 41.9973 113.458 40.824 113.928 39.288C114.44 37.7093 114.696 35.768 114.696 33.464C114.696 31.16 114.44 29.24 113.928 27.704C113.458 26.168 112.69 25.016 111.624 24.248C110.557 23.48 109.17 23.096 107.464 23.096C104.946 23.096 103.112 23.9707 101.96 25.72C100.85 27.4267 100.296 30.008 100.296 33.464ZM164.369 16.056V51H157.073L155.793 46.52H155.281C154.555 47.7147 153.617 48.696 152.465 49.464C151.355 50.1893 150.118 50.7227 148.753 51.064C147.387 51.448 145.979 51.64 144.529 51.64C142.054 51.64 139.878 51.192 138.001 50.296C136.123 49.4 134.673 48.0133 133.649 46.136C132.625 44.2587 132.113 41.8267 132.113 38.84V16.056H141.649V36.472C141.649 38.9467 142.097 40.824 142.993 42.104C143.889 43.384 145.318 44.024 147.281 44.024C149.243 44.024 150.758 43.576 151.825 42.68C152.934 41.784 153.702 40.4827 154.129 38.776C154.598 37.0693 154.833 34.9787 154.833 32.504V16.056H164.369ZM189.087 44.024C190.154 44.024 191.178 43.9173 192.159 43.704C193.14 43.4907 194.122 43.2347 195.103 42.936V50.04C194.079 50.4667 192.799 50.8293 191.263 51.128C189.77 51.4693 188.127 51.64 186.335 51.64C184.244 51.64 182.367 51.2987 180.703 50.616C179.082 49.9333 177.78 48.76 176.799 47.096C175.86 45.3893 175.391 43.0427 175.391 40.056V23.224H170.847V19.192L176.095 15.992L178.847 8.632H184.927V16.056H194.719V23.224H184.927V40.056C184.927 41.3787 185.311 42.3813 186.079 43.064C186.847 43.704 187.85 44.024 189.087 44.024ZM259.766 15.416C263.734 15.416 266.721 16.44 268.726 18.488C270.774 20.4933 271.798 23.736 271.798 28.216V51H262.262V30.584C262.262 28.0667 261.835 26.1893 260.982 24.952C260.129 23.672 258.806 23.032 257.014 23.032C254.497 23.032 252.705 23.928 251.638 25.72C250.571 27.512 250.038 30.0933 250.038 33.464V51H240.502V30.584C240.502 28.92 240.31 27.5333 239.926 26.424C239.542 25.3147 238.966 24.4827 238.198 23.928C237.43 23.3307 236.449 23.032 235.254 23.032C233.505 23.032 232.118 23.48 231.094 24.376C230.07 25.272 229.345 26.5733 228.918 28.28C228.491 29.9867 228.278 32.0773 228.278 34.552V51H218.742V16.056H226.038L227.318 20.536H227.83C228.555 19.3413 229.451 18.3813 230.518 17.656C231.585 16.888 232.758 16.3333 234.038 15.992C235.361 15.608 236.683 15.416 238.006 15.416C240.566 15.416 242.742 15.8427 244.534 16.696C246.326 17.5067 247.691 18.7867 248.63 20.536H249.462C250.529 18.744 252.001 17.4427 253.878 16.632C255.798 15.8213 257.761 15.416 259.766 15.416ZM296.017 15.416C299.26 15.416 302.033 16.0347 304.337 17.272C306.684 18.5093 308.497 20.3013 309.777 22.648C311.057 24.9947 311.697 27.8747 311.697 31.288V35.896H289.169C289.254 38.584 290.044 40.696 291.537 42.232C293.073 43.768 295.185 44.536 297.873 44.536C300.134 44.536 302.182 44.3227 304.017 43.896C305.852 43.4267 307.75 42.7227 309.713 41.784V49.144C308.006 49.9973 306.193 50.616 304.273 51C302.396 51.4267 300.113 51.64 297.425 51.64C293.926 51.64 290.833 51 288.145 49.72C285.457 48.3973 283.345 46.4133 281.809 43.768C280.273 41.1227 279.505 37.7947 279.505 33.784C279.505 29.688 280.188 26.296 281.553 23.608C282.961 20.8773 284.902 18.8293 287.377 17.464C289.852 16.0987 292.732 15.416 296.017 15.416ZM296.081 22.2C294.246 22.2 292.71 22.7973 291.473 23.992C290.278 25.1867 289.574 27.0427 289.361 29.56H302.737C302.737 28.152 302.481 26.8933 301.969 25.784C301.5 24.6747 300.774 23.8 299.793 23.16C298.812 22.52 297.574 22.2 296.081 22.2Z" fill="#F09F43"/>
<path d="M36.728 51L34.8155 51.585L35.2483 53H36.728V51ZM33.4 40.12L35.3125 39.535L34.8797 38.12H33.4V40.12ZM16.76 40.12V38.12H15.2803L14.8475 39.535L16.76 40.12ZM13.432 51V53H14.9117L15.3445 51.585L13.432 51ZM3 51L1.11315 50.3368L0.17714 53H3V51ZM19.128 5.112V3.112H17.711L17.2411 4.44884L19.128 5.112ZM30.968 5.112L32.854 4.4465L32.3831 3.112H30.968V5.112ZM47.16 51V53H49.9866L49.046 50.3345L47.16 51ZM27.768 21.368L25.8493 21.9323L25.8542 21.9491L25.8595 21.9659L27.768 21.368ZM26.936 18.616L25.0244 19.2042L25.0244 19.2042L26.936 18.616ZM25.912 15.224L23.9944 15.7922L23.9944 15.7922L25.912 15.224ZM25.08 12.216L27.0203 11.7309L23.1397 11.7309L25.08 12.216ZM24.184 15.416L22.2683 14.8413L22.2619 14.8627L22.256 14.8841L24.184 15.416ZM23.16 19L21.2424 18.4318L21.2353 18.4559L21.2288 18.4801L23.16 19ZM22.456 21.368L20.5764 20.6845L20.5591 20.7322L20.5442 20.7806L22.456 21.368ZM19.192 31.992L17.2802 31.4046L16.4853 33.992H19.192V31.992ZM31.096 31.992V33.992H33.8183L33.0046 31.3941L31.096 31.992ZM38.6405 50.415L35.3125 39.535L31.4875 40.705L34.8155 51.585L38.6405 50.415ZM33.4 38.12H16.76V42.12H33.4V38.12ZM14.8475 39.535L11.5195 50.415L15.3445 51.585L18.6725 40.705L14.8475 39.535ZM13.432 49H3V53H13.432V49ZM4.88685 51.6632L21.0149 5.77516L17.2411 4.44884L1.11315 50.3368L4.88685 51.6632ZM19.128 7.112H30.968V3.112H19.128V7.112ZM29.082 5.7775L45.274 51.6655L49.046 50.3345L32.854 4.4465L29.082 5.7775ZM47.16 49H36.728V53H47.16V49ZM29.6867 20.8037C29.4702 20.0674 29.1902 19.1414 28.8476 18.0278L25.0244 19.2042C25.3645 20.3093 25.6392 21.218 25.8493 21.9323L29.6867 20.8037ZM28.8476 18.0278C28.5083 16.9254 28.169 15.8014 27.8296 14.6558L23.9944 15.7922C24.3376 16.9506 24.681 18.088 25.0244 19.2042L28.8476 18.0278ZM27.8296 14.6558C27.4937 13.5222 27.2247 12.5484 27.0203 11.7309L23.1397 12.7011C23.362 13.5902 23.6476 14.6218 23.9944 15.7922L27.8296 14.6558ZM23.1397 11.7309C22.9367 12.5431 22.6475 13.5775 22.2683 14.8413L26.0997 15.9907C26.4885 14.6945 26.7967 13.5956 27.0203 12.7011L23.1397 11.7309ZM22.256 14.8841C21.9178 16.1102 21.5799 17.2927 21.2424 18.4318L25.0776 19.5682C25.4227 18.4033 25.7675 17.1965 26.112 15.9479L22.256 14.8841ZM21.2288 18.4801C20.9309 19.5863 20.7152 20.303 20.5764 20.6845L24.3356 22.0515C24.5382 21.4943 24.7917 20.6323 25.0912 19.5199L21.2288 18.4801ZM20.5442 20.7806L17.2802 31.4046L21.1038 32.5794L24.3678 21.9554L20.5442 20.7806ZM19.192 33.992H31.096V29.992H19.192V33.992ZM33.0046 31.3941L29.6766 20.7701L25.8595 21.9659L29.1875 32.5899L33.0046 31.3941ZM61.5875 17.592L63.5831 17.725L63.5831 17.725L61.5875 17.592ZM61.3315 20.6L59.3452 20.3663L59.0824 22.6H61.3315V20.6ZM61.7155 20.6V22.6H62.8036L63.3946 21.6865L61.7155 20.6ZM65.4915 16.952L66.5474 18.6506L66.5637 18.6404L66.5799 18.6299L65.4915 16.952ZM81.1715 20.024L79.6034 21.2654L79.6119 21.2761L81.1715 20.024ZM83.0915 43.512L81.2488 42.7346L81.2457 42.7418L81.2428 42.749L83.0915 43.512ZM78.4195 49.592L79.5451 51.2452L79.5451 51.2452L78.4195 49.592ZM65.2995 50.296L64.213 51.9751L64.2415 51.9936L64.2705 52.011L65.2995 50.296ZM61.7155 47.16L63.266 45.8967L62.6657 45.16H61.7155V47.16ZM61.0755 47.16V45.16H59.7422L59.2293 46.3908L61.0755 47.16ZM59.4755 51V53H60.8088L61.3217 51.7692L59.4755 51ZM52.1795 51H50.1795V53H52.1795V51ZM52.1795 2.36V0.359997H50.1795V2.36H52.1795ZM61.7155 2.36H63.7155V0.359997H61.7155V2.36ZM64.5955 24.056L63.4534 22.4142L63.4534 22.4142L64.5955 24.056ZM62.4195 27.192L60.5221 26.5595L60.5162 26.5774L60.5105 26.5955L62.4195 27.192ZM61.7155 32.376L59.7159 32.3352L59.7155 32.3556V32.376H61.7155ZM63.1875 41.208L61.4239 42.1513L61.4371 42.176L61.451 42.2003L63.1875 41.208ZM73.3635 41.208L75.0459 42.2895L75.0516 42.2806L75.0573 42.2715L73.3635 41.208ZM73.2995 25.656L71.6292 26.756L71.6448 26.7797L71.661 26.8029L73.2995 25.656ZM59.7155 13.688C59.7155 14.9676 59.6742 16.2246 59.5919 17.459L63.5831 17.725C63.6714 16.3994 63.7155 15.0537 63.7155 13.688H59.7155ZM59.5919 17.459C59.5074 18.7263 59.4247 19.6903 59.3452 20.3663L63.3178 20.8337C63.4089 20.059 63.4969 19.0177 63.5831 17.725L59.5919 17.459ZM61.3315 22.6H61.7155V18.6H61.3315V22.6ZM63.3946 21.6865C64.1613 20.5017 65.1997 19.4883 66.5474 18.6506L64.4356 15.2534C62.626 16.3784 61.1471 17.797 60.0364 19.5135L63.3946 21.6865ZM66.5799 18.6299C67.742 17.8761 69.3771 17.416 71.6355 17.416V13.416C68.8593 13.416 66.3983 13.9799 64.4031 15.2741L66.5799 18.6299ZM71.6355 17.416C74.951 17.416 77.5516 18.6736 79.6034 21.2654L82.7396 18.7826C79.9274 15.2304 76.1707 13.416 71.6355 13.416V17.416ZM79.6119 21.2761C81.6429 23.8059 82.8195 27.7604 82.8195 33.464H86.8195C86.8195 27.3062 85.5641 22.3007 82.7311 18.7719L79.6119 21.2761ZM82.8195 33.464C82.8195 37.2504 82.2682 40.3181 81.2488 42.7346L84.9342 44.2894C86.2188 41.2446 86.8195 37.6136 86.8195 33.464H82.8195ZM81.2428 42.749C80.2524 45.1487 78.9171 46.8337 77.2939 47.9388L79.5451 51.2452C81.9326 49.6197 83.7119 47.2513 84.9403 44.275L81.2428 42.749ZM77.2939 47.9388C75.6559 49.054 73.7112 49.64 71.3795 49.64V53.64C74.4238 53.64 77.1724 52.8606 79.5451 51.2452L77.2939 47.9388ZM71.3795 49.64C69.0225 49.64 67.398 49.2227 66.3285 48.581L64.2705 52.011C66.1877 53.1613 68.6165 53.64 71.3795 53.64V49.64ZM66.386 48.6169C65.0829 47.7736 64.0532 46.8628 63.266 45.8967L60.165 48.4233C61.2552 49.7612 62.6148 50.941 64.213 51.9751L66.386 48.6169ZM61.7155 45.16H61.0755V49.16H61.7155V45.16ZM59.2293 46.3908L57.6293 50.2308L61.3217 51.7692L62.9217 47.9292L59.2293 46.3908ZM59.4755 49H52.1795V53H59.4755V49ZM54.1795 51V2.36H50.1795V51H54.1795ZM52.1795 4.36H61.7155V0.359997H52.1795V4.36ZM59.7155 2.36V13.688H63.7155V2.36H59.7155ZM68.5635 21.032C66.6463 21.032 64.878 21.4231 63.4534 22.4142L65.7376 25.6978C66.2756 25.3235 67.1527 25.032 68.5635 25.032V21.032ZM63.4534 22.4142C62.04 23.3974 61.0943 24.8429 60.5221 26.5595L64.3169 27.8245C64.6833 26.7251 65.1883 26.0799 65.7376 25.6978L63.4534 22.4142ZM60.5105 26.5955C60.0082 28.203 59.7608 30.1345 59.7159 32.3352L63.7151 32.4168C63.7555 30.4362 63.9775 28.9117 64.3285 27.7885L60.5105 26.5955ZM59.7155 32.376V33.4H63.7155V32.376H59.7155ZM59.7155 33.4C59.7155 36.9177 60.2197 39.8999 61.4239 42.1513L64.9511 40.2647C64.1927 38.8468 63.7155 36.6236 63.7155 33.4H59.7155ZM61.451 42.2003C62.9337 44.7949 65.5624 45.896 68.6915 45.896V41.896C66.53 41.896 65.4893 41.2051 64.924 40.2157L61.451 42.2003ZM68.6915 45.896C71.4012 45.896 73.5633 44.5956 75.0459 42.2895L71.6811 40.1265C70.8597 41.4044 69.9071 41.896 68.6915 41.896V45.896ZM75.0573 42.2715C76.4935 39.9842 77.0915 36.9275 77.0915 33.336H73.0915C73.0915 36.5712 72.5375 38.7625 71.6697 40.1445L75.0573 42.2715ZM77.0915 33.336C77.0915 29.7507 76.4752 26.7051 74.938 24.5091L71.661 26.8029C72.5132 28.0203 73.0915 30.0947 73.0915 33.336H77.0915ZM74.9698 24.556C73.4676 22.2748 71.2767 21.032 68.5635 21.032V25.032C69.861 25.032 70.8274 25.5385 71.6292 26.756L74.9698 24.556ZM123.208 41.208L121.325 40.5331L121.319 40.5489L121.314 40.5648L123.208 41.208ZM119.816 46.968L118.363 45.5936L118.361 45.5948L119.816 46.968ZM114.504 50.488L115.193 52.3653L115.21 52.3592L115.227 52.3527L114.504 50.488ZM100.616 50.488L99.8794 52.3476L99.9025 52.3568L99.9259 52.3653L100.616 50.488ZM95.3035 46.968L93.8506 48.3424L93.86 48.3523L93.8695 48.3622L95.3035 46.968ZM91.7835 41.208L89.9008 41.8829L89.9064 41.8986L89.9123 41.9141L91.7835 41.208ZM92.6155 23.672L94.3928 24.5893L94.3987 24.5777L92.6155 23.672ZM98.5035 17.528L99.4673 19.2804L99.4673 19.2804L98.5035 17.528ZM116.296 17.528L115.319 19.2735L115.319 19.2735L116.296 17.528ZM122.248 23.672L120.487 24.6219L120.494 24.6337L122.248 23.672ZM101 39.288L99.0824 39.8579L99.0918 39.8894L99.1021 39.9205L101 39.288ZM103.368 42.808L102.157 44.4003L102.178 44.416L102.199 44.4311L103.368 42.808ZM111.624 42.808L112.824 44.408L112.834 44.4003L111.624 42.808ZM113.928 39.288L112.025 38.671L112.02 38.6872L112.015 38.7036L113.928 39.288ZM113.928 27.704L112.015 28.2884L112.022 28.3125L112.03 28.3365L113.928 27.704ZM101.96 25.72L100.289 24.62L100.283 24.63L101.96 25.72ZM122.424 33.464C122.424 36.1816 122.044 38.528 121.325 40.5331L125.09 41.8829C125.993 39.3653 126.424 36.549 126.424 33.464H122.424ZM121.314 40.5648C120.629 42.5808 119.639 44.2441 118.363 45.5936L121.268 48.3424C122.979 46.5346 124.25 44.3579 125.101 41.8512L121.314 40.5648ZM118.361 45.5948C117.127 46.9015 115.611 47.9133 113.78 48.6233L115.227 52.3527C117.577 51.4413 119.602 50.1065 121.27 48.3412L118.361 45.5948ZM113.814 48.6107C111.981 49.2839 109.853 49.64 107.4 49.64V53.64C110.237 53.64 112.844 53.2281 115.193 52.3653L113.814 48.6107ZM107.4 49.64C105.181 49.64 103.155 49.2904 101.305 48.6107L99.9259 52.3653C102.257 53.2216 104.754 53.64 107.4 53.64V49.64ZM101.352 48.6284C99.5589 47.9188 98.0281 46.9013 96.7375 45.5738L93.8695 48.3622C95.5656 50.1067 97.5761 51.4359 99.8794 52.3476L101.352 48.6284ZM96.7564 45.5936C95.4649 44.2283 94.4249 42.5428 93.6547 40.5019L89.9123 41.9141C90.8488 44.3958 92.1554 46.5504 93.8506 48.3424L96.7564 45.5936ZM93.6662 40.5331C92.9474 38.528 92.5675 36.1816 92.5675 33.464H88.5675C88.5675 36.549 88.9983 39.3653 89.9008 41.8829L93.6662 40.5331ZM92.5675 33.464C92.5675 29.8067 93.2115 26.878 94.3927 24.5893L90.8383 22.7547C89.2889 25.7567 88.5675 29.3559 88.5675 33.464H92.5675ZM94.3987 24.5777C95.5883 22.2357 97.271 20.4884 99.4673 19.2804L97.5397 15.7756C94.616 17.3836 92.3734 19.7323 90.8323 22.7663L94.3987 24.5777ZM99.4673 19.2804C101.679 18.0641 104.363 17.416 107.592 17.416V13.416C103.822 13.416 100.448 14.1759 97.5397 15.7756L99.4673 19.2804ZM107.592 17.416C110.583 17.416 113.14 18.0544 115.319 19.2735L117.272 15.7825C114.417 14.1856 111.17 13.416 107.592 13.416V17.416ZM115.319 19.2735C117.485 20.485 119.206 22.2475 120.487 24.6219L124.008 22.7221C122.388 19.7205 120.141 17.387 117.272 15.7825L115.319 19.2735ZM120.494 24.6337C121.743 26.9116 122.424 29.8235 122.424 33.464H126.424C126.424 29.3392 125.653 25.7231 124.001 22.7103L120.494 24.6337ZM98.2955 33.464C98.2955 35.8904 98.5411 38.037 99.0824 39.8579L102.917 38.7181C102.519 37.3817 102.296 35.6456 102.296 33.464H98.2955ZM99.1021 39.9205C99.7145 41.7574 100.709 43.2992 102.157 44.4003L104.578 41.2157C103.893 40.6954 103.309 39.8905 102.897 38.6555L99.1021 39.9205ZM102.199 44.4311C103.695 45.5082 105.526 45.96 107.528 45.96V41.96C106.115 41.96 105.173 41.6438 104.536 41.1849L102.199 44.4311ZM107.528 45.96C109.524 45.96 111.354 45.5101 112.824 44.408L110.424 41.208C109.845 41.6419 108.945 41.96 107.528 41.96V45.96ZM112.834 44.4003C114.297 43.2885 115.273 41.7281 115.84 39.8724L112.015 38.7036C111.643 39.9199 111.084 40.7062 110.413 41.2157L112.834 44.4003ZM115.83 39.905C116.426 38.0664 116.696 35.9025 116.696 33.464H112.696C112.696 35.6335 112.453 37.3522 112.025 38.671L115.83 39.905ZM116.696 33.464C116.696 31.0282 116.427 28.8777 115.825 27.0715L112.03 28.3365C112.452 29.6023 112.696 31.2918 112.696 33.464H116.696ZM115.84 27.1196C115.272 25.2604 114.287 23.701 112.792 22.6249L110.455 25.8711C111.094 26.331 111.644 27.0756 112.015 28.2884L115.84 27.1196ZM112.792 22.6249C111.296 21.5478 109.465 21.096 107.464 21.096V25.096C108.876 25.096 109.818 25.4122 110.455 25.8711L112.792 22.6249ZM107.464 21.096C104.43 21.096 101.89 22.1898 100.289 24.62L103.63 26.82C104.333 25.7516 105.463 25.096 107.464 25.096V21.096ZM100.283 24.63C98.8615 26.8164 98.2955 29.8612 98.2955 33.464H102.296C102.296 30.1548 102.839 28.037 103.636 26.81L100.283 24.63ZM164.369 16.056H166.369V14.056H164.369V16.056ZM164.369 51V53H166.369V51H164.369ZM157.073 51L155.149 51.5494L155.564 53H157.073V51ZM155.793 46.52L157.716 45.9706L157.301 44.52H155.793V46.52ZM155.281 46.52V44.52H154.155L153.571 45.482L155.281 46.52ZM152.465 49.464L153.559 51.1379L153.566 51.1331L153.574 51.1281L152.465 49.464ZM148.753 51.064L148.267 49.1237L148.239 49.1308L148.211 49.1387L148.753 51.064ZM138.001 50.296L138.862 48.491L138.862 48.491L138.001 50.296ZM133.649 46.136L135.404 45.1783L135.404 45.1783L133.649 46.136ZM132.113 16.056V14.056H130.113V16.056H132.113ZM141.649 16.056H143.649V14.056H141.649V16.056ZM142.993 42.104L144.631 40.9571L144.631 40.9571L142.993 42.104ZM151.825 42.68L150.568 41.1241L150.553 41.1362L150.538 41.1486L151.825 42.68ZM154.129 38.776L152.2 38.2457L152.194 38.2682L152.188 38.2909L154.129 38.776ZM154.833 16.056V14.056H152.833V16.056H154.833ZM162.369 16.056V51H166.369V16.056H162.369ZM164.369 49H157.073V53H164.369V49ZM158.996 50.4506L157.716 45.9706L153.869 47.0694L155.149 51.5494L158.996 50.4506ZM155.793 44.52H155.281V48.52H155.793V44.52ZM153.571 45.482C152.996 46.4291 152.261 47.1958 151.355 47.7999L153.574 51.1281C154.972 50.1962 156.114 49.0003 156.99 47.558L153.571 45.482ZM151.37 47.7901C150.459 48.3859 149.43 48.8332 148.267 49.1237L149.238 53.0043C150.806 52.6122 152.252 51.9928 153.559 51.1379L151.37 47.7901ZM148.211 49.1387C147.026 49.472 145.8 49.64 144.529 49.64V53.64C146.158 53.64 147.748 53.424 149.294 52.9893L148.211 49.1387ZM144.529 49.64C142.296 49.64 140.424 49.2365 138.862 48.491L137.139 52.101C139.332 53.1475 141.812 53.64 144.529 53.64V49.64ZM138.862 48.491C137.376 47.7817 136.233 46.6972 135.404 45.1783L131.893 47.0937C133.112 49.3294 134.871 51.0183 137.139 52.101L138.862 48.491ZM135.404 45.1783C134.592 43.6882 134.113 41.6177 134.113 38.84H130.113C130.113 42.0357 130.657 44.8292 131.893 47.0937L135.404 45.1783ZM134.113 38.84V16.056H130.113V38.84H134.113ZM132.113 18.056H141.649V14.056H132.113V18.056ZM139.649 16.056V36.472H143.649V16.056H139.649ZM139.649 36.472C139.649 39.1359 140.122 41.4904 141.354 43.2509L144.631 40.9571C144.071 40.1576 143.649 38.7574 143.649 36.472H139.649ZM141.354 43.2509C142.72 45.2027 144.853 46.024 147.281 46.024V42.024C145.783 42.024 145.057 41.5653 144.631 40.9571L141.354 43.2509ZM147.281 46.024C149.524 46.024 151.561 45.5132 153.111 44.2114L150.538 41.1486C149.955 41.6388 148.963 42.024 147.281 42.024V46.024ZM153.081 44.2359C154.601 43.0081 155.562 41.2889 156.069 39.2611L152.188 38.2909C151.842 39.6764 151.266 40.5599 150.568 41.1241L153.081 44.2359ZM156.057 39.3063C156.588 37.3736 156.833 35.0926 156.833 32.504H152.833C152.833 34.8648 152.607 36.7651 152.2 38.2457L156.057 39.3063ZM156.833 32.504V16.056H152.833V32.504H156.833ZM154.833 18.056H164.369V14.056H154.833V18.056ZM192.159 43.704L191.734 41.7496L191.734 41.7496L192.159 43.704ZM195.103 42.936H197.103V40.2367L194.521 41.0227L195.103 42.936ZM195.103 50.04L195.872 51.8862L197.103 51.3733V50.04H195.103ZM191.263 51.128L190.881 49.1648L190.849 49.171L190.817 49.1783L191.263 51.128ZM180.703 50.616L179.927 52.4593L179.935 52.4628L179.944 52.4663L180.703 50.616ZM176.799 47.096L175.047 48.0598L175.061 48.0861L175.076 48.112L176.799 47.096ZM175.391 23.224H177.391V21.224H175.391V23.224ZM170.847 23.224H168.847V25.224H170.847V23.224ZM170.847 19.192L169.806 17.4844L168.847 18.069V19.192H170.847ZM176.095 15.992L177.136 17.6996L177.726 17.3398L177.968 16.6925L176.095 15.992ZM178.847 8.632V6.632H177.46L176.974 7.93153L178.847 8.632ZM184.927 8.632H186.927V6.632H184.927V8.632ZM184.927 16.056H182.927V18.056H184.927V16.056ZM194.719 16.056H196.719V14.056H194.719V16.056ZM194.719 23.224V25.224H196.719V23.224H194.719ZM184.927 23.224V21.224H182.927V23.224H184.927ZM186.079 43.064L184.75 44.5588L184.774 44.58L184.799 44.6004L186.079 43.064ZM189.087 46.024C190.288 46.024 191.455 45.9038 192.584 45.6584L191.734 41.7496C190.901 41.9308 190.02 42.024 189.087 42.024V46.024ZM192.584 45.6584C193.619 45.4332 194.653 45.1635 195.685 44.8493L194.521 41.0227C193.59 41.3059 192.661 41.5481 191.734 41.7496L192.584 45.6584ZM193.103 42.936V50.04H197.103V42.936H193.103ZM194.334 48.1938C193.474 48.5521 192.334 48.8823 190.881 49.1648L191.645 53.0912C193.264 52.7764 194.684 52.3812 195.872 51.8862L194.334 48.1938ZM190.817 49.1783C189.492 49.4811 188.002 49.64 186.335 49.64V53.64C188.252 53.64 190.047 53.4575 191.709 53.0777L190.817 49.1783ZM186.335 49.64C184.463 49.64 182.849 49.3348 181.462 48.7657L179.944 52.4663C181.885 53.2625 184.026 53.64 186.335 53.64V49.64ZM181.479 48.7727C180.293 48.2734 179.307 47.412 178.522 46.08L175.076 48.112C176.253 50.108 177.87 51.5933 179.927 52.4593L181.479 48.7727ZM178.551 46.1322C177.839 44.8374 177.391 42.87 177.391 40.056H173.391C173.391 43.2154 173.881 45.9413 175.047 48.0598L178.551 46.1322ZM177.391 40.056V23.224H173.391V40.056H177.391ZM175.391 21.224H170.847V25.224H175.391V21.224ZM172.847 23.224V19.192H168.847V23.224H172.847ZM171.888 20.8996L177.136 17.6996L175.054 14.2844L169.806 17.4844L171.888 20.8996ZM177.968 16.6925L180.72 9.33246L176.974 7.93153L174.222 15.2915L177.968 16.6925ZM178.847 10.632H184.927V6.632H178.847V10.632ZM182.927 8.632V16.056H186.927V8.632H182.927ZM184.927 18.056H194.719V14.056H184.927V18.056ZM192.719 16.056V23.224H196.719V16.056H192.719ZM194.719 21.224H184.927V25.224H194.719V21.224ZM182.927 23.224V40.056H186.927V23.224H182.927ZM182.927 40.056C182.927 41.775 183.44 43.3941 184.75 44.5588L187.408 41.5692C187.182 41.3685 186.927 40.9823 186.927 40.056H182.927ZM184.799 44.6004C186.005 45.606 187.497 46.024 189.087 46.024V42.024C188.203 42.024 187.689 41.802 187.359 41.5276L184.799 44.6004ZM268.726 18.488L267.297 19.8872L267.312 19.9023L267.327 19.917L268.726 18.488ZM271.798 51V53H273.798V51H271.798ZM262.262 51H260.262V53H262.262V51ZM260.982 24.952L259.318 26.0614L259.327 26.0745L259.336 26.0875L260.982 24.952ZM251.638 25.72L249.919 24.697L249.919 24.697L251.638 25.72ZM250.038 51V53H252.038V51H250.038ZM240.502 51H238.502V53H240.502V51ZM239.926 26.424L238.036 27.0782L238.036 27.0782L239.926 26.424ZM238.198 23.928L236.97 25.5067L236.998 25.5285L237.027 25.5494L238.198 23.928ZM231.094 24.376L232.411 25.8812L232.411 25.8812L231.094 24.376ZM228.918 28.28L230.858 28.7651L230.858 28.7651L228.918 28.28ZM228.278 51V53H230.278V51H228.278ZM218.742 51H216.742V53H218.742V51ZM218.742 16.056V14.056H216.742V16.056H218.742ZM226.038 16.056L227.961 15.5066L227.547 14.056H226.038V16.056ZM227.318 20.536L225.395 21.0854L225.809 22.536H227.318V20.536ZM227.83 20.536V22.536H228.955L229.54 21.574L227.83 20.536ZM230.518 17.656L231.643 19.3099L231.665 19.2948L231.687 19.2791L230.518 17.656ZM234.038 15.992L234.553 17.9245L234.575 17.9188L234.596 17.9127L234.038 15.992ZM244.534 16.696L243.674 18.5017L243.692 18.5101L243.71 18.5182L244.534 16.696ZM248.63 20.536L246.868 21.4816L247.433 22.536H248.63V20.536ZM249.462 20.536V22.536H250.599L251.181 21.559L249.462 20.536ZM253.878 16.632L253.1 14.7895L253.093 14.7927L253.085 14.7959L253.878 16.632ZM259.766 17.416C263.408 17.416 265.794 18.352 267.297 19.8872L270.155 17.0888C267.648 14.528 264.06 13.416 259.766 13.416V17.416ZM267.327 19.917C268.821 21.3804 269.798 23.9786 269.798 28.216H273.798C273.798 23.4934 272.727 19.6062 270.125 17.059L267.327 19.917ZM269.798 28.216V51H273.798V28.216H269.798ZM271.798 49H262.262V53H271.798V49ZM264.262 51V30.584H260.262V51H264.262ZM264.262 30.584C264.262 27.9074 263.821 25.5451 262.628 23.8165L259.336 26.0875C259.85 26.8335 260.262 28.226 260.262 30.584H264.262ZM262.646 23.8426C261.356 21.9076 259.347 21.032 257.014 21.032V25.032C258.265 25.032 258.901 25.4364 259.318 26.0614L262.646 23.8426ZM257.014 21.032C253.963 21.032 251.426 22.1654 249.919 24.697L253.357 26.743C253.983 25.6906 255.031 25.032 257.014 25.032V21.032ZM249.919 24.697C248.588 26.9341 248.038 29.9331 248.038 33.464H252.038C252.038 30.2535 252.555 28.0899 253.357 26.743L249.919 24.697ZM248.038 33.464V51H252.038V33.464H248.038ZM250.038 49H240.502V53H250.038V49ZM242.502 51V30.584H238.502V51H242.502ZM242.502 30.584C242.502 28.7826 242.296 27.1573 241.816 25.7698L238.036 27.0782C238.324 27.9093 238.502 29.0574 238.502 30.584H242.502ZM241.816 25.7698C241.33 24.3657 240.543 23.1544 239.369 22.3066L237.027 25.5494C237.389 25.811 237.754 26.2636 238.036 27.0782L241.816 25.7698ZM239.426 22.3493C238.233 21.4213 236.789 21.032 235.254 21.032V25.032C236.108 25.032 236.627 25.24 236.97 25.5067L239.426 22.3493ZM235.254 21.032C233.162 21.032 231.26 21.5733 229.777 22.8708L232.411 25.8812C232.976 25.3867 233.847 25.032 235.254 25.032V21.032ZM229.777 22.8708C228.367 24.1042 227.474 25.8079 226.978 27.7949L230.858 28.7651C231.215 27.3387 231.773 26.4398 232.411 25.8812L229.777 22.8708ZM226.978 27.7949C226.499 29.7099 226.278 31.9744 226.278 34.552H230.278C230.278 32.1803 230.484 30.2635 230.858 28.7651L226.978 27.7949ZM226.278 34.552V51H230.278V34.552H226.278ZM228.278 49H218.742V53H228.278V49ZM220.742 51V16.056H216.742V51H220.742ZM218.742 18.056H226.038V14.056H218.742V18.056ZM224.115 16.6054L225.395 21.0854L229.241 19.9866L227.961 15.5066L224.115 16.6054ZM227.318 22.536H227.83V18.536H227.318V22.536ZM229.54 21.574C230.129 20.6034 230.832 19.861 231.643 19.3099L229.393 16.0021C228.071 16.9016 226.982 18.0793 226.12 19.498L229.54 21.574ZM231.687 19.2791C232.555 18.6542 233.506 18.2037 234.553 17.9245L233.523 14.0595C232.01 14.463 230.615 15.1218 229.349 16.0329L231.687 19.2791ZM234.596 17.9127C235.745 17.5791 236.88 17.416 238.006 17.416V13.416C236.487 13.416 234.977 13.6369 233.48 14.0713L234.596 17.9127ZM238.006 17.416C240.352 17.416 242.217 17.8078 243.674 18.5017L245.394 14.8903C243.267 13.8776 240.78 13.416 238.006 13.416V17.416ZM243.71 18.5182C245.097 19.1459 246.135 20.1157 246.868 21.4816L250.392 19.5904C249.248 17.4576 247.555 15.8675 245.358 14.8738L243.71 18.5182ZM248.63 22.536H249.462V18.536H248.63V22.536ZM251.181 21.559C252.037 20.121 253.188 19.1084 254.671 18.4681L253.085 14.7959C250.813 15.7769 249.021 17.367 247.743 19.513L251.181 21.559ZM254.656 18.4745C256.34 17.7636 258.038 17.416 259.766 17.416V13.416C257.483 13.416 255.256 13.8791 253.1 14.7895L254.656 18.4745ZM304.337 17.272L303.391 19.034L303.397 19.0376L303.404 19.0411L304.337 17.272ZM309.777 22.648L308.021 23.6057L308.021 23.6057L309.777 22.648ZM311.697 35.896V37.896H313.697V35.896H311.697ZM289.169 35.896V33.896H287.105L287.17 35.9595L289.169 35.896ZM291.537 42.232L290.103 43.6262L290.113 43.6363L290.123 43.6462L291.537 42.232ZM304.017 43.896L304.47 45.844L304.491 45.839L304.513 45.8336L304.017 43.896ZM309.713 41.784H311.713V38.6105L308.85 39.9797L309.713 41.784ZM309.713 49.144L310.607 50.9329L311.713 50.3801V49.144H309.713ZM304.273 51L303.881 49.0388L303.855 49.044L303.83 49.0497L304.273 51ZM288.145 49.72L287.262 51.5145L287.274 51.5202L287.285 51.5257L288.145 49.72ZM281.809 43.768L280.079 44.7723L280.079 44.7723L281.809 43.768ZM281.553 23.608L279.775 22.6914L279.77 22.7023L281.553 23.608ZM287.377 17.464L286.411 15.7128L286.411 15.7128L287.377 17.464ZM291.473 23.992L290.084 22.5532L290.071 22.5654L290.059 22.5778L291.473 23.992ZM289.361 29.56L287.368 29.3911L287.184 31.56H289.361V29.56ZM302.737 29.56V31.56H304.737V29.56H302.737ZM301.969 25.784L300.127 26.5633L300.14 26.5929L300.153 26.6221L301.969 25.784ZM299.793 23.16L300.886 21.4848L300.886 21.4848L299.793 23.16ZM296.017 17.416C299.007 17.416 301.439 17.9861 303.391 19.034L305.283 15.51C302.627 14.0833 299.512 13.416 296.017 13.416V17.416ZM303.404 19.0411C305.4 20.0934 306.928 21.6018 308.021 23.6057L311.533 21.6903C310.066 19.0009 307.967 16.9253 305.27 15.5029L303.404 19.0411ZM308.021 23.6057C309.103 25.5883 309.697 28.1188 309.697 31.288H313.697C313.697 27.6305 313.011 24.4011 311.533 21.6903L308.021 23.6057ZM309.697 31.288V35.896H313.697V31.288H309.697ZM311.697 33.896H289.169V37.896H311.697V33.896ZM287.17 35.9595C287.267 39.0135 288.18 41.6477 290.103 43.6262L292.971 40.8378C291.908 39.7443 291.242 38.1545 291.168 35.8325L287.17 35.9595ZM290.123 43.6462C292.119 45.6422 294.788 46.536 297.873 46.536V42.536C295.582 42.536 294.027 41.8938 292.951 40.8178L290.123 43.6462ZM297.873 46.536C300.257 46.536 302.461 46.3113 304.47 45.844L303.564 41.948C301.904 42.334 300.011 42.536 297.873 42.536V46.536ZM304.513 45.8336C306.491 45.3276 308.512 44.5751 310.576 43.5883L308.85 39.9797C306.988 40.8702 305.212 41.5258 303.521 41.9584L304.513 45.8336ZM307.713 41.784V49.144H311.713V41.784H307.713ZM308.819 47.3551C307.275 48.1269 305.631 48.6888 303.881 49.0388L304.665 52.9612C306.755 52.5432 308.738 51.8678 310.607 50.9329L308.819 47.3551ZM303.83 49.0497C302.142 49.4332 300.018 49.64 297.425 49.64V53.64C300.208 53.64 302.649 53.4201 304.716 52.9503L303.83 49.0497ZM297.425 49.64C294.172 49.64 291.381 49.0459 289.005 47.9143L287.285 51.5257C290.285 52.9541 293.681 53.64 297.425 53.64V49.64ZM289.028 47.9255C286.702 46.7808 284.881 45.0756 283.539 42.7637L280.079 44.7723C281.809 47.7511 284.212 50.0138 287.262 51.5145L289.028 47.9255ZM283.539 42.7637C282.227 40.5041 281.505 37.5487 281.505 33.784H277.505C277.505 38.0406 278.319 41.7412 280.079 44.7723L283.539 42.7637ZM281.505 33.784C281.505 29.8954 282.155 26.8389 283.336 24.5137L279.77 22.7023C278.22 25.7531 277.505 29.4806 277.505 33.784H281.505ZM283.331 24.5246C284.573 22.1143 286.246 20.3722 288.343 19.2152L286.411 15.7128C283.559 17.2865 281.349 19.6403 279.775 22.6914L283.331 24.5246ZM288.343 19.2152C290.477 18.0378 293.014 17.416 296.017 17.416V13.416C292.449 13.416 289.226 14.1595 286.411 15.7128L288.343 19.2152ZM296.081 20.2C293.766 20.2 291.721 20.9729 290.084 22.5532L292.862 25.4308C293.7 24.6218 294.727 24.2 296.081 24.2V20.2ZM290.059 22.5778C288.399 24.2371 287.602 26.6284 287.368 29.3911L291.354 29.7289C291.546 27.4569 292.157 26.1362 292.887 25.4062L290.059 22.5778ZM289.361 31.56H302.737V27.56H289.361V31.56ZM304.737 29.56C304.737 27.9066 304.435 26.3552 303.785 24.9459L300.153 26.6221C300.527 27.4315 300.737 28.3974 300.737 29.56H304.737ZM303.811 25.0047C303.191 23.5398 302.21 22.3486 300.886 21.4848L298.7 24.8352C299.339 25.2514 299.808 25.8096 300.127 26.5633L303.811 25.0047ZM300.886 21.4848C299.501 20.5816 297.856 20.2 296.081 20.2V24.2C297.292 24.2 298.123 24.4584 298.7 24.8352L300.886 21.4848Z" fill="#212121" mask="url(#path-1-outside-1_317_233)"/>
</svg>
