<svg width="526" height="111" viewBox="0 0 526 111" fill="none" xmlns="http://www.w3.org/2000/svg">
<mask id="path-1-outside-1_316_189" maskUnits="userSpaceOnUse" x="0" y="0" width="526" height="111" fill="black">
<rect fill="white" width="526" height="111"/>
<path d="M13.84 54.07V46.53H28.53C31.39 46.53 33.9033 46.0533 36.07 45.1C38.2367 44.1467 39.9267 42.8033 41.14 41.07C42.3533 39.25 42.96 37.0833 42.96 34.57C42.96 30.7567 41.6167 27.81 38.93 25.73C36.2433 23.65 32.7767 22.61 28.53 22.61H17.48V88.39H30.22C33.6867 88.39 36.7633 87.8267 39.45 86.7C42.1367 85.5733 44.26 83.8833 45.82 81.63C47.38 79.3767 48.16 76.56 48.16 73.18C48.16 70.7533 47.6833 68.63 46.73 66.81C45.8633 64.9033 44.6067 63.3433 42.96 62.13C41.4 60.83 39.5367 59.92 37.37 59.4C35.2033 58.7933 32.82 58.49 30.22 58.49H13.84V50.04H31.13C35.55 50.04 39.71 50.5167 43.61 51.47C47.51 52.4233 50.9767 53.8967 54.01 55.89C57.13 57.8833 59.5567 60.44 61.29 63.56C63.0233 66.68 63.89 70.4067 63.89 74.74C63.89 80.72 62.46 85.66 59.6 89.56C56.8267 93.46 52.97 96.3633 48.03 98.27C43.1767 100.09 37.5433 101 31.13 101H2.14V9.99999H29.57C35.29 9.99999 40.3167 10.8233 44.65 12.47C49.07 14.1167 52.4933 16.63 54.92 20.01C57.4333 23.39 58.69 27.68 58.69 32.88C58.69 37.3867 57.4333 41.2433 54.92 44.45C52.4933 47.57 49.07 49.9533 44.65 51.6C40.3167 53.2467 35.29 54.07 29.57 54.07H13.84ZM79.4392 9.99999H94.7792V70.45C94.7792 76.0833 96.2526 80.6333 99.1992 84.1C102.233 87.48 106.696 89.17 112.589 89.17C118.396 89.17 122.816 87.48 125.849 84.1C128.883 80.6333 130.399 76.0833 130.399 70.45V9.99999H145.739V71.1C145.739 76.1267 144.916 80.6333 143.269 84.62C141.709 88.52 139.456 91.8567 136.509 94.63C133.563 97.4033 130.053 99.5267 125.979 101C121.906 102.473 117.443 103.21 112.589 103.21C107.736 103.21 103.273 102.473 99.1992 101C95.1259 99.5267 91.5726 97.4033 88.5392 94.63C85.5926 91.8567 83.3392 88.52 81.7792 84.62C80.2192 80.6333 79.4392 76.1267 79.4392 71.1V9.99999ZM184.122 57.58H200.762L231.572 101H213.112L184.122 57.58ZM165.402 9.99999H180.742V101H165.402V9.99999ZM174.502 23.26V9.99999H193.482C200.068 9.99999 205.788 11.17 210.642 13.51C215.582 15.85 219.395 19.1433 222.082 23.39C224.768 27.55 226.112 32.49 226.112 38.21C226.112 43.93 224.768 48.9133 222.082 53.16C219.395 57.4067 215.582 60.7 210.642 63.04C205.788 65.38 200.068 66.55 193.482 66.55H174.502V53.94H192.832C196.298 53.94 199.332 53.3333 201.932 52.12C204.618 50.9067 206.698 49.1733 208.172 46.92C209.645 44.58 210.382 41.8067 210.382 38.6C210.382 35.3067 209.645 32.5333 208.172 30.28C206.698 28.0267 204.618 26.2933 201.932 25.08C199.332 23.8667 196.298 23.26 192.832 23.26H174.502ZM253.636 77.6L256.496 64.6H298.746L301.736 77.6H253.636ZM277.426 35.74L263.126 69.15L262.866 72.53L250.256 101H232.966L277.426 4.93L321.886 101H304.596L292.246 73.31L291.856 69.54L277.426 35.74ZM398.902 9.99999H413.982V105.55L347.552 39.9V101H332.472V5.45L398.902 71.1V9.99999ZM445.211 55.5C445.211 61.74 446.511 67.33 449.111 72.27C451.798 77.1233 455.481 80.9367 460.161 83.71C464.841 86.4833 470.171 87.87 476.151 87.87C482.218 87.87 487.548 86.4833 492.141 83.71C496.821 80.9367 500.461 77.1233 503.061 72.27C505.748 67.33 507.091 61.74 507.091 55.5C507.091 49.26 505.791 43.7133 503.191 38.86C500.591 33.92 496.951 30.0633 492.271 27.29C487.678 24.5167 482.305 23.13 476.151 23.13C470.171 23.13 464.841 24.5167 460.161 27.29C455.481 30.0633 451.798 33.92 449.111 38.86C446.511 43.7133 445.211 49.26 445.211 55.5ZM428.961 55.5C428.961 48.6533 430.131 42.37 432.471 36.65C434.811 30.93 438.105 25.99 442.351 21.83C446.685 17.5833 451.711 14.29 457.431 11.95C463.238 9.61 469.478 8.44 476.151 8.44C482.998 8.44 489.281 9.61 495.001 11.95C500.721 14.29 505.705 17.5833 509.951 21.83C514.285 25.99 517.621 30.93 519.961 36.65C522.301 42.37 523.471 48.6533 523.471 55.5C523.471 62.26 522.301 68.5433 519.961 74.35C517.621 80.1567 514.328 85.1833 510.081 89.43C505.835 93.6767 500.808 97.0133 495.001 99.44C489.281 101.78 482.998 102.95 476.151 102.95C469.391 102.95 463.108 101.78 457.301 99.44C451.495 97.0133 446.468 93.6767 442.221 89.43C438.061 85.1833 434.811 80.1567 432.471 74.35C430.131 68.5433 428.961 62.26 428.961 55.5Z"/>
</mask>
<path d="M13.84 54.07V46.53H28.53C31.39 46.53 33.9033 46.0533 36.07 45.1C38.2367 44.1467 39.9267 42.8033 41.14 41.07C42.3533 39.25 42.96 37.0833 42.96 34.57C42.96 30.7567 41.6167 27.81 38.93 25.73C36.2433 23.65 32.7767 22.61 28.53 22.61H17.48V88.39H30.22C33.6867 88.39 36.7633 87.8267 39.45 86.7C42.1367 85.5733 44.26 83.8833 45.82 81.63C47.38 79.3767 48.16 76.56 48.16 73.18C48.16 70.7533 47.6833 68.63 46.73 66.81C45.8633 64.9033 44.6067 63.3433 42.96 62.13C41.4 60.83 39.5367 59.92 37.37 59.4C35.2033 58.7933 32.82 58.49 30.22 58.49H13.84V50.04H31.13C35.55 50.04 39.71 50.5167 43.61 51.47C47.51 52.4233 50.9767 53.8967 54.01 55.89C57.13 57.8833 59.5567 60.44 61.29 63.56C63.0233 66.68 63.89 70.4067 63.89 74.74C63.89 80.72 62.46 85.66 59.6 89.56C56.8267 93.46 52.97 96.3633 48.03 98.27C43.1767 100.09 37.5433 101 31.13 101H2.14V9.99999H29.57C35.29 9.99999 40.3167 10.8233 44.65 12.47C49.07 14.1167 52.4933 16.63 54.92 20.01C57.4333 23.39 58.69 27.68 58.69 32.88C58.69 37.3867 57.4333 41.2433 54.92 44.45C52.4933 47.57 49.07 49.9533 44.65 51.6C40.3167 53.2467 35.29 54.07 29.57 54.07H13.84ZM79.4392 9.99999H94.7792V70.45C94.7792 76.0833 96.2526 80.6333 99.1992 84.1C102.233 87.48 106.696 89.17 112.589 89.17C118.396 89.17 122.816 87.48 125.849 84.1C128.883 80.6333 130.399 76.0833 130.399 70.45V9.99999H145.739V71.1C145.739 76.1267 144.916 80.6333 143.269 84.62C141.709 88.52 139.456 91.8567 136.509 94.63C133.563 97.4033 130.053 99.5267 125.979 101C121.906 102.473 117.443 103.21 112.589 103.21C107.736 103.21 103.273 102.473 99.1992 101C95.1259 99.5267 91.5726 97.4033 88.5392 94.63C85.5926 91.8567 83.3392 88.52 81.7792 84.62C80.2192 80.6333 79.4392 76.1267 79.4392 71.1V9.99999ZM184.122 57.58H200.762L231.572 101H213.112L184.122 57.58ZM165.402 9.99999H180.742V101H165.402V9.99999ZM174.502 23.26V9.99999H193.482C200.068 9.99999 205.788 11.17 210.642 13.51C215.582 15.85 219.395 19.1433 222.082 23.39C224.768 27.55 226.112 32.49 226.112 38.21C226.112 43.93 224.768 48.9133 222.082 53.16C219.395 57.4067 215.582 60.7 210.642 63.04C205.788 65.38 200.068 66.55 193.482 66.55H174.502V53.94H192.832C196.298 53.94 199.332 53.3333 201.932 52.12C204.618 50.9067 206.698 49.1733 208.172 46.92C209.645 44.58 210.382 41.8067 210.382 38.6C210.382 35.3067 209.645 32.5333 208.172 30.28C206.698 28.0267 204.618 26.2933 201.932 25.08C199.332 23.8667 196.298 23.26 192.832 23.26H174.502ZM253.636 77.6L256.496 64.6H298.746L301.736 77.6H253.636ZM277.426 35.74L263.126 69.15L262.866 72.53L250.256 101H232.966L277.426 4.93L321.886 101H304.596L292.246 73.31L291.856 69.54L277.426 35.74ZM398.902 9.99999H413.982V105.55L347.552 39.9V101H332.472V5.45L398.902 71.1V9.99999ZM445.211 55.5C445.211 61.74 446.511 67.33 449.111 72.27C451.798 77.1233 455.481 80.9367 460.161 83.71C464.841 86.4833 470.171 87.87 476.151 87.87C482.218 87.87 487.548 86.4833 492.141 83.71C496.821 80.9367 500.461 77.1233 503.061 72.27C505.748 67.33 507.091 61.74 507.091 55.5C507.091 49.26 505.791 43.7133 503.191 38.86C500.591 33.92 496.951 30.0633 492.271 27.29C487.678 24.5167 482.305 23.13 476.151 23.13C470.171 23.13 464.841 24.5167 460.161 27.29C455.481 30.0633 451.798 33.92 449.111 38.86C446.511 43.7133 445.211 49.26 445.211 55.5ZM428.961 55.5C428.961 48.6533 430.131 42.37 432.471 36.65C434.811 30.93 438.105 25.99 442.351 21.83C446.685 17.5833 451.711 14.29 457.431 11.95C463.238 9.61 469.478 8.44 476.151 8.44C482.998 8.44 489.281 9.61 495.001 11.95C500.721 14.29 505.705 17.5833 509.951 21.83C514.285 25.99 517.621 30.93 519.961 36.65C522.301 42.37 523.471 48.6533 523.471 55.5C523.471 62.26 522.301 68.5433 519.961 74.35C517.621 80.1567 514.328 85.1833 510.081 89.43C505.835 93.6767 500.808 97.0133 495.001 99.44C489.281 101.78 482.998 102.95 476.151 102.95C469.391 102.95 463.108 101.78 457.301 99.44C451.495 97.0133 446.468 93.6767 442.221 89.43C438.061 85.1833 434.811 80.1567 432.471 74.35C430.131 68.5433 428.961 62.26 428.961 55.5Z" fill="white"/>
<path d="M13.84 54.07H11.84V56.07H13.84V54.07ZM13.84 46.53V44.53H11.84V46.53H13.84ZM36.07 45.1L36.8755 46.9306L36.8755 46.9306L36.07 45.1ZM41.14 41.07L42.7785 42.2169L42.7915 42.1983L42.8041 42.1794L41.14 41.07ZM38.93 25.73L40.1544 24.1485L40.1544 24.1485L38.93 25.73ZM17.48 22.61V20.61H15.48V22.61H17.48ZM17.48 88.39H15.48V90.39H17.48V88.39ZM39.45 86.7L38.6765 84.8556L39.45 86.7ZM45.82 81.63L47.4644 82.7684V82.7684L45.82 81.63ZM46.73 66.81L44.9093 67.6376L44.9324 67.6885L44.9583 67.738L46.73 66.81ZM42.96 62.13L41.6796 63.6664L41.7255 63.7047L41.7736 63.7401L42.96 62.13ZM37.37 59.4L36.8307 61.3259L36.8668 61.336L36.9033 61.3448L37.37 59.4ZM13.84 58.49H11.84V60.49H13.84V58.49ZM13.84 50.04V48.04H11.84V50.04H13.84ZM43.61 51.47L43.1351 53.4128H43.1351L43.61 51.47ZM54.01 55.89L52.9116 57.5614L52.9224 57.5685L52.9332 57.5754L54.01 55.89ZM61.29 63.56L63.0383 62.5887V62.5887L61.29 63.56ZM59.6 89.56L57.9872 88.3773L57.9786 88.389L57.9701 88.401L59.6 89.56ZM48.03 98.27L48.7323 100.143L48.7412 100.139L48.7502 100.136L48.03 98.27ZM2.14 101H0.14V103H2.14V101ZM2.14 9.99999V7.99999H0.14V9.99999H2.14ZM44.65 12.47L43.9396 14.3396L43.9518 14.3442L44.65 12.47ZM54.92 20.01L53.2954 21.1764L53.3051 21.19L53.3151 21.2034L54.92 20.01ZM54.92 44.45L53.3459 43.2162L53.3413 43.2221L54.92 44.45ZM44.65 51.6L43.9518 49.7258L43.9396 49.7304L44.65 51.6ZM15.84 54.07V46.53H11.84V54.07H15.84ZM13.84 48.53H28.53V44.53H13.84V48.53ZM28.53 48.53C31.6108 48.53 34.4079 48.0164 36.8755 46.9306L35.2645 43.2694C33.3988 44.0903 31.1692 44.53 28.53 44.53V48.53ZM36.8755 46.9306C39.3363 45.8479 41.3311 44.2847 42.7785 42.2169L39.5015 39.9231C38.5223 41.322 37.1371 42.4455 35.2645 43.2694L36.8755 46.9306ZM42.8041 42.1794C44.2678 39.9839 44.96 37.4177 44.96 34.57H40.96C40.96 36.749 40.4389 38.5161 39.4759 39.9606L42.8041 42.1794ZM44.96 34.57C44.96 30.2243 43.3947 26.6572 40.1544 24.1485L37.7057 27.3114C39.8386 28.9628 40.96 31.2891 40.96 34.57H44.96ZM40.1544 24.1485C37.0374 21.7354 33.107 20.61 28.53 20.61V24.61C32.4463 24.61 35.4493 25.5646 37.7057 27.3114L40.1544 24.1485ZM28.53 20.61H17.48V24.61H28.53V20.61ZM15.48 22.61V88.39H19.48V22.61H15.48ZM17.48 90.39H30.22V86.39H17.48V90.39ZM30.22 90.39C33.9027 90.39 37.25 89.7913 40.2235 88.5444L38.6765 84.8556C36.2767 85.862 33.4706 86.39 30.22 86.39V90.39ZM40.2235 88.5444C43.2386 87.28 45.6734 85.3554 47.4644 82.7684L44.1756 80.4916C42.8466 82.4113 41.0347 83.8667 38.6765 84.8556L40.2235 88.5444ZM47.4644 82.7684C49.3051 80.1096 50.16 76.8709 50.16 73.18H46.16C46.16 76.2491 45.4549 78.6437 44.1756 80.4916L47.4644 82.7684ZM50.16 73.18C50.16 70.4885 49.6299 68.036 48.5017 65.882L44.9583 67.738C45.7367 69.224 46.16 71.0182 46.16 73.18H50.16ZM48.5507 65.9824C47.5464 63.7728 46.0746 61.9407 44.1464 60.5199L41.7736 63.7401C43.1387 64.746 44.1803 66.0338 44.9093 67.6376L48.5507 65.9824ZM44.2404 60.5936C42.4219 59.0781 40.2729 58.0399 37.8367 57.4552L36.9033 61.3448C38.8005 61.8001 40.3781 62.5818 41.6796 63.6664L44.2404 60.5936ZM37.9093 57.4741C35.5423 56.8113 32.9746 56.49 30.22 56.49V60.49C32.6654 60.49 34.8644 60.7753 36.8307 61.3259L37.9093 57.4741ZM30.22 56.49H13.84V60.49H30.22V56.49ZM15.84 58.49V50.04H11.84V58.49H15.84ZM13.84 52.04H31.13V48.04H13.84V52.04ZM31.13 52.04C35.4059 52.04 39.4053 52.5011 43.1351 53.4128L44.0849 49.5272C40.0147 48.5323 35.6941 48.04 31.13 48.04V52.04ZM43.1351 53.4128C46.8367 54.3176 50.0883 55.7061 52.9116 57.5614L55.1084 54.2186C51.8651 52.0873 48.1833 50.529 44.0849 49.5272L43.1351 53.4128ZM52.9332 57.5754C55.7844 59.397 57.9756 61.7124 59.5417 64.5313L63.0383 62.5887C61.1377 59.1676 58.4756 56.3697 55.0868 54.2046L52.9332 57.5754ZM59.5417 64.5313C61.0781 67.2968 61.89 70.6742 61.89 74.74H65.89C65.89 70.1391 64.9686 66.0632 63.0383 62.5887L59.5417 64.5313ZM61.89 74.74C61.89 80.3968 60.5413 84.8944 57.9872 88.3773L61.2128 90.7427C64.3787 86.4255 65.89 81.0432 65.89 74.74H61.89ZM57.9701 88.401C55.448 91.9476 51.9243 94.6231 47.3099 96.4042L48.7502 100.136C54.0157 98.1035 58.2053 94.9724 61.2299 90.719L57.9701 88.401ZM47.3278 96.3973C42.7452 98.1158 37.3584 99 31.13 99V103C37.7283 103 43.6082 102.064 48.7323 100.143L47.3278 96.3973ZM31.13 99H2.14V103H31.13V99ZM4.14 101V9.99999H0.14V101H4.14ZM2.14 12H29.57V7.99999H2.14V12ZM29.57 12C35.1021 12 39.8793 12.7967 43.9396 14.3396L45.3604 10.6004C40.754 8.84998 35.4779 7.99999 29.57 7.99999V12ZM43.9518 14.3442C48.0509 15.8713 51.1304 18.1609 53.2954 21.1764L56.5447 18.8436C53.8563 15.0991 50.0891 12.362 45.3482 10.5958L43.9518 14.3442ZM53.3151 21.2034C55.5167 24.1642 56.69 28.0072 56.69 32.88H60.69C60.69 27.3527 59.35 22.6158 56.5249 18.8166L53.3151 21.2034ZM56.69 32.88C56.69 36.9897 55.5538 40.3993 53.3459 43.2162L56.4941 45.6838C59.3129 42.0874 60.69 37.7837 60.69 32.88H56.69ZM53.3413 43.2221C51.1832 45.9969 48.0918 48.1835 43.9518 49.7258L45.3482 53.4742C50.0482 51.7232 53.8035 49.1431 56.4987 45.6779L53.3413 43.2221ZM43.9396 49.7304C39.8793 51.2733 35.1021 52.07 29.57 52.07V56.07C35.4779 56.07 40.754 55.22 45.3604 53.4696L43.9396 49.7304ZM29.57 52.07H13.84V56.07H29.57V52.07ZM79.4392 9.99999V7.99999H77.4392V9.99999H79.4392ZM94.7792 9.99999H96.7792V7.99999H94.7792V9.99999ZM99.1992 84.1L97.6753 85.3953L97.6928 85.4158L97.7107 85.4358L99.1992 84.1ZM125.849 84.1L127.338 85.4358L127.346 85.4265L127.354 85.417L125.849 84.1ZM130.399 9.99999V7.99999H128.399V9.99999H130.399ZM145.739 9.99999H147.739V7.99999H145.739V9.99999ZM143.269 84.62L141.421 83.8565L141.416 83.8668L141.412 83.8772L143.269 84.62ZM136.509 94.63L137.88 96.0864H137.88L136.509 94.63ZM125.979 101L126.66 102.881L125.979 101ZM99.1992 101L98.519 102.881L99.1992 101ZM88.5392 94.63L87.1685 96.0864L87.179 96.0963L87.1897 96.1061L88.5392 94.63ZM81.7792 84.62L79.9167 85.3488L79.9195 85.3558L79.9223 85.3628L81.7792 84.62ZM79.4392 12H94.7792V7.99999H79.4392V12ZM92.7792 9.99999V70.45H96.7792V9.99999H92.7792ZM92.7792 70.45C92.7792 76.441 94.3532 81.4869 97.6753 85.3953L100.723 82.8047C98.1519 79.7797 96.7792 75.7257 96.7792 70.45H92.7792ZM97.7107 85.4358C101.229 89.3558 106.307 91.17 112.589 91.17V87.17C107.084 87.17 103.236 85.6042 100.688 82.7642L97.7107 85.4358ZM112.589 91.17C118.795 91.17 123.825 89.3497 127.338 85.4358L124.361 82.7642C121.807 85.6103 117.997 87.17 112.589 87.17V91.17ZM127.354 85.417C130.774 81.5091 132.399 76.4551 132.399 70.45H128.399C128.399 75.7115 126.991 79.7576 124.344 82.783L127.354 85.417ZM132.399 70.45V9.99999H128.399V70.45H132.399ZM130.399 12H145.739V7.99999H130.399V12ZM143.739 9.99999V71.1H147.739V9.99999H143.739ZM143.739 71.1C143.739 75.9075 142.952 80.1486 141.421 83.8565L145.118 85.3835C146.88 81.1181 147.739 76.3459 147.739 71.1H143.739ZM141.412 83.8772C139.956 87.5173 137.865 90.6075 135.138 93.1736L137.88 96.0864C141.047 93.1058 143.462 89.5227 145.126 85.3628L141.412 83.8772ZM135.138 93.1736C132.404 95.7469 129.134 97.7321 125.299 99.1192L126.66 102.881C130.971 101.321 134.721 99.0597 137.88 96.0864L135.138 93.1736ZM125.299 99.1192C121.468 100.505 117.238 101.21 112.589 101.21V105.21C117.647 105.21 122.343 104.442 126.66 102.881L125.299 99.1192ZM112.589 101.21C107.94 101.21 103.71 100.505 99.8795 99.1192L98.519 102.881C102.835 104.442 107.532 105.21 112.589 105.21V101.21ZM99.8795 99.1192C96.0402 97.7305 92.7174 95.7402 89.8888 93.1539L87.1897 96.1061C90.4277 99.0665 94.2116 101.323 98.519 102.881L99.8795 99.1192ZM89.91 93.1736C87.1835 90.6075 85.0922 87.5173 83.6362 83.8772L79.9223 85.3628C81.5862 89.5227 84.0016 93.1058 87.1685 96.0864L89.91 93.1736ZM83.6417 83.8912C82.1869 80.1734 81.4392 75.9199 81.4392 71.1H77.4392C77.4392 76.3334 78.2515 81.0932 79.9167 85.3488L83.6417 83.8912ZM81.4392 71.1V9.99999H77.4392V71.1H81.4392ZM184.122 57.58V55.58H180.382L182.458 58.6905L184.122 57.58ZM200.762 57.58L202.393 56.4226L201.795 55.58H200.762V57.58ZM231.572 101V103H235.443L233.203 99.8426L231.572 101ZM213.112 101L211.448 102.111L212.042 103H213.112V101ZM165.402 9.99999V7.99999H163.402V9.99999H165.402ZM180.742 9.99999H182.742V7.99999H180.742V9.99999ZM180.742 101V103H182.742V101H180.742ZM165.402 101H163.402V103H165.402V101ZM174.502 23.26H172.502V25.26H174.502V23.26ZM174.502 9.99999V7.99999H172.502V9.99999H174.502ZM210.642 13.51L209.773 15.3116L209.786 15.3175L210.642 13.51ZM222.082 23.39L220.392 24.4593L220.397 24.4672L220.402 24.4751L222.082 23.39ZM222.082 53.16L220.392 52.0907V52.0907L222.082 53.16ZM210.642 63.04L209.786 61.2325L209.773 61.2385L210.642 63.04ZM174.502 66.55H172.502V68.55H174.502V66.55ZM174.502 53.94V51.94H172.502V53.94H174.502ZM201.932 52.12L201.109 50.2973L201.097 50.3024L201.086 50.3076L201.932 52.12ZM208.172 46.92L209.846 48.0145L209.855 48.0001L209.864 47.9856L208.172 46.92ZM208.172 30.28L206.498 31.3745L206.498 31.3745L208.172 30.28ZM201.932 25.08L201.086 26.8924L201.097 26.8976L201.109 26.9027L201.932 25.08ZM184.122 59.58H200.762V55.58H184.122V59.58ZM199.131 58.7374L229.941 102.157L233.203 99.8426L202.393 56.4226L199.131 58.7374ZM231.572 99H213.112V103H231.572V99ZM214.775 99.8895L185.785 56.4694L182.458 58.6905L211.448 102.111L214.775 99.8895ZM165.402 12H180.742V7.99999H165.402V12ZM178.742 9.99999V101H182.742V9.99999H178.742ZM180.742 99H165.402V103H180.742V99ZM167.402 101V9.99999H163.402V101H167.402ZM176.502 23.26V9.99999H172.502V23.26H176.502ZM174.502 12H193.482V7.99999H174.502V12ZM193.482 12C199.833 12 205.244 13.128 209.773 15.3115L211.51 11.7085C206.333 9.21203 200.303 7.99999 193.482 7.99999V12ZM209.786 15.3175C214.414 17.5101 217.925 20.5607 220.392 24.4593L223.772 22.3207C220.865 17.726 216.749 14.1899 211.498 11.7025L209.786 15.3175ZM220.402 24.4751C222.849 28.2639 224.112 32.8138 224.112 38.21H228.112C228.112 32.1661 226.688 26.8361 223.762 22.3049L220.402 24.4751ZM224.112 38.21C224.112 43.6051 222.849 48.2065 220.392 52.0907L223.772 54.2293C226.688 49.6202 228.112 44.2549 228.112 38.21H224.112ZM220.392 52.0907C217.925 55.9893 214.414 59.0399 209.786 61.2325L211.498 64.8475C216.749 62.3601 220.865 58.824 223.772 54.2293L220.392 52.0907ZM209.773 61.2385C205.244 63.422 199.833 64.55 193.482 64.55V68.55C200.303 68.55 206.333 67.338 211.51 64.8415L209.773 61.2385ZM193.482 64.55H174.502V68.55H193.482V64.55ZM176.502 66.55V53.94H172.502V66.55H176.502ZM174.502 55.94H192.832V51.94H174.502V55.94ZM192.832 55.94C196.531 55.94 199.863 55.2923 202.777 53.9324L201.086 50.3076C198.8 51.3744 196.066 51.94 192.832 51.94V55.94ZM202.755 53.9427C205.754 52.5881 208.144 50.6167 209.846 48.0145L206.498 45.8255C205.253 47.73 203.482 49.2252 201.109 50.2973L202.755 53.9427ZM209.864 47.9856C211.569 45.2783 212.382 42.1224 212.382 38.6H208.382C208.382 41.491 207.721 43.8817 206.479 45.8544L209.864 47.9856ZM212.382 38.6C212.382 35.0053 211.575 31.8304 209.846 29.1855L206.498 31.3745C207.715 33.2363 208.382 35.6081 208.382 38.6H212.382ZM209.846 29.1855C208.144 26.5833 205.754 24.6119 202.755 23.2573L201.109 26.9027C203.482 27.9747 205.253 29.47 206.498 31.3745L209.846 29.1855ZM202.777 23.2676C199.863 21.9077 196.531 21.26 192.832 21.26V25.26C196.066 25.26 198.8 25.8256 201.086 26.8924L202.777 23.2676ZM192.832 21.26H174.502V25.26H192.832V21.26ZM253.636 77.6L251.683 77.1703L251.148 79.6H253.636V77.6ZM256.496 64.6V62.6H254.888L254.543 64.1703L256.496 64.6ZM298.746 64.6L300.695 64.1517L300.338 62.6H298.746V64.6ZM301.736 77.6V79.6H304.248L303.685 77.1517L301.736 77.6ZM277.426 35.74L279.266 34.9547L277.429 30.6518L275.588 34.953L277.426 35.74ZM263.126 69.15L261.288 68.363L261.157 68.667L261.132 68.9966L263.126 69.15ZM262.866 72.53L264.695 73.34L264.834 73.0259L264.86 72.6834L262.866 72.53ZM250.256 101V103H251.558L252.085 101.81L250.256 101ZM232.966 101L231.151 100.16L229.837 103H232.966V101ZM277.426 4.93L279.241 4.09001L277.426 0.168007L275.611 4.09001L277.426 4.93ZM321.886 101V103H325.016L323.701 100.16L321.886 101ZM304.596 101L302.77 101.815L303.298 103H304.596V101ZM292.246 73.31L290.257 73.5158L290.29 73.8332L290.42 74.1247L292.246 73.31ZM291.856 69.54L293.846 69.3342L293.814 69.0331L293.696 68.7547L291.856 69.54ZM255.589 78.0297L258.449 65.0297L254.543 64.1703L251.683 77.1703L255.589 78.0297ZM256.496 66.6H298.746V62.6H256.496V66.6ZM296.797 65.0483L299.787 78.0483L303.685 77.1517L300.695 64.1517L296.797 65.0483ZM301.736 75.6H253.636V79.6H301.736V75.6ZM275.588 34.953L261.288 68.363L264.965 69.937L279.265 36.527L275.588 34.953ZM261.132 68.9966L260.872 72.3766L264.86 72.6834L265.12 69.3034L261.132 68.9966ZM261.038 71.72L248.428 100.19L252.085 101.81L264.695 73.34L261.038 71.72ZM250.256 99H232.966V103H250.256V99ZM234.781 101.84L279.241 5.76998L275.611 4.09001L231.151 100.16L234.781 101.84ZM275.611 5.76998L320.071 101.84L323.701 100.16L279.241 4.09001L275.611 5.76998ZM321.886 99H304.596V103H321.886V99ZM306.423 100.185L294.073 72.4953L290.42 74.1247L302.77 101.815L306.423 100.185ZM294.236 73.1042L293.846 69.3342L289.867 69.7458L290.257 73.5158L294.236 73.1042ZM293.696 68.7547L279.266 34.9547L275.587 36.5253L290.017 70.3253L293.696 68.7547ZM398.902 9.99999V7.99999H396.902V9.99999H398.902ZM413.982 9.99999H415.982V7.99999H413.982V9.99999ZM413.982 105.55L412.576 106.973L415.982 110.338V105.55H413.982ZM347.552 39.9L348.958 38.4775L345.552 35.1116V39.9H347.552ZM347.552 101V103H349.552V101H347.552ZM332.472 101H330.472V103H332.472V101ZM332.472 5.45L333.878 4.02746L330.472 0.66161V5.45H332.472ZM398.902 71.1L397.496 72.5225L400.902 75.8884V71.1H398.902ZM398.902 12H413.982V7.99999H398.902V12ZM411.982 9.99999V105.55H415.982V9.99999H411.982ZM415.388 104.127L348.958 38.4775L346.146 41.3225L412.576 106.973L415.388 104.127ZM345.552 39.9V101H349.552V39.9H345.552ZM347.552 99H332.472V103H347.552V99ZM334.472 101V5.45H330.472V101H334.472ZM331.066 6.87254L397.496 72.5225L400.308 69.6775L333.878 4.02746L331.066 6.87254ZM400.902 71.1V9.99999H396.902V71.1H400.902ZM449.111 72.27L447.342 73.2015L447.351 73.2202L447.362 73.2386L449.111 72.27ZM460.161 83.71L461.181 81.9894L460.161 83.71ZM492.141 83.71L491.122 81.9894L491.115 81.9936L491.108 81.9979L492.141 83.71ZM503.061 72.27L501.304 71.3144L501.299 71.3256L503.061 72.27ZM503.191 38.86L501.422 39.7915L501.425 39.798L501.429 39.8044L503.191 38.86ZM492.271 27.29L491.238 29.0021L491.245 29.0064L491.252 29.0106L492.271 27.29ZM460.161 27.29L461.181 29.0106L460.161 27.29ZM449.111 38.86L447.354 37.9044L447.349 37.9156L449.111 38.86ZM432.471 36.65L430.62 35.8927L432.471 36.65ZM442.351 21.83L443.751 23.2587L443.751 23.2584L442.351 21.83ZM457.431 11.95L456.684 10.0949L456.674 10.0989L457.431 11.95ZM495.001 11.95L495.759 10.0989V10.0989L495.001 11.95ZM509.951 21.83L508.537 23.2442L508.552 23.2586L508.566 23.2728L509.951 21.83ZM519.961 36.65L521.813 35.8927L519.961 36.65ZM510.081 89.43L511.496 90.8442V90.8442L510.081 89.43ZM495.001 99.44L495.759 101.291L495.766 101.288L495.773 101.285L495.001 99.44ZM457.301 99.44L456.53 101.285L456.542 101.29L456.554 101.295L457.301 99.44ZM442.221 89.43L440.793 90.8296L440.8 90.8369L440.807 90.8442L442.221 89.43ZM432.471 74.35L430.616 75.0976L432.471 74.35ZM443.211 55.5C443.211 62.0258 444.573 67.9418 447.342 73.2015L450.881 71.3385C448.45 66.7182 447.211 61.4542 447.211 55.5H443.211ZM447.362 73.2386C450.217 78.3966 454.15 82.4722 459.142 85.4306L461.181 81.9894C456.813 79.4011 453.379 75.85 450.861 71.3014L447.362 73.2386ZM459.142 85.4306C464.161 88.4047 469.849 89.87 476.151 89.87V85.87C470.494 85.87 465.522 84.562 461.181 81.9894L459.142 85.4306ZM476.151 89.87C482.534 89.87 488.231 88.4075 493.175 85.4221L491.108 81.9979C486.866 84.5592 481.902 85.87 476.151 85.87V89.87ZM493.161 85.4306C498.159 82.4688 502.054 78.3854 504.824 73.2144L501.299 71.3256C498.869 75.8613 495.484 79.4045 491.122 81.9894L493.161 85.4306ZM504.818 73.2255C507.682 67.9612 509.091 62.0365 509.091 55.5H505.091C505.091 61.4435 503.815 66.6988 501.305 71.3145L504.818 73.2255ZM509.091 55.5C509.091 48.9749 507.73 43.0962 504.954 37.9156L501.429 39.8044C503.853 44.3305 505.091 49.5451 505.091 55.5H509.091ZM504.961 37.9285C502.194 32.6702 498.298 28.5365 493.291 25.5694L491.252 29.0106C495.605 31.5902 498.989 35.1698 501.422 39.7915L504.961 37.9285ZM493.305 25.5779C488.356 22.5899 482.615 21.13 476.151 21.13V25.13C481.995 25.13 487 26.4434 491.238 29.0021L493.305 25.5779ZM476.151 21.13C469.849 21.13 464.161 22.5953 459.142 25.5694L461.181 29.0106C465.522 26.438 470.494 25.13 476.151 25.13V21.13ZM459.142 25.5694C454.141 28.533 450.207 32.6588 447.355 37.9045L450.868 39.8155C453.389 35.1812 456.822 31.5937 461.181 29.0106L459.142 25.5694ZM447.349 37.9156C444.573 43.0962 443.211 48.9749 443.211 55.5H447.211C447.211 49.5451 448.45 44.3305 450.874 39.8044L447.349 37.9156ZM430.961 55.5C430.961 48.885 432.091 42.8622 434.323 37.4073L430.62 35.8927C428.172 41.8778 426.961 48.4217 426.961 55.5H430.961ZM434.323 37.4073C436.564 31.9293 439.707 27.2204 443.751 23.2587L440.952 20.4013C436.503 24.7596 433.059 29.9307 430.62 35.8927L434.323 37.4073ZM443.751 23.2584C447.896 19.1963 452.704 16.045 458.189 13.8011L456.674 10.0989C450.719 12.535 445.473 15.9703 440.952 20.4016L443.751 23.2584ZM458.179 13.805C463.733 11.567 469.717 10.44 476.151 10.44V6.44C469.239 6.44 462.744 7.65302 456.684 10.095L458.179 13.805ZM476.151 10.44C482.767 10.44 488.789 11.5695 494.244 13.8011L495.759 10.0989C489.774 7.65049 483.23 6.44 476.151 6.44V10.44ZM494.244 13.8011C499.726 16.0435 504.484 19.1908 508.537 23.2442L511.366 20.4158C506.926 15.9758 501.717 12.5365 495.759 10.0989L494.244 13.8011ZM508.566 23.2728C512.692 27.2337 515.873 31.9382 518.11 37.4073L521.813 35.8927C519.37 29.9218 515.877 24.7463 511.337 20.3872L508.566 23.2728ZM518.11 37.4073C520.342 42.8622 521.471 48.885 521.471 55.5H525.471C525.471 48.4217 524.261 41.8778 521.813 35.8927L518.11 37.4073ZM521.471 55.5C521.471 62.0244 520.343 68.0518 518.106 73.6024L521.817 75.0976C524.26 69.0349 525.471 62.4956 525.471 55.5H521.471ZM518.106 73.6024C515.863 79.1703 512.716 83.9675 508.667 88.0158L511.496 90.8442C515.941 86.3992 519.38 81.143 521.817 75.0976L518.106 73.6024ZM508.667 88.0158C504.614 92.0695 499.808 95.2636 494.23 97.5947L495.773 101.285C501.808 98.7631 507.056 95.2839 511.496 90.8442L508.667 88.0158ZM494.244 97.5889C488.789 99.8205 482.767 100.95 476.151 100.95V104.95C483.23 104.95 489.774 103.74 495.759 101.291L494.244 97.5889ZM476.151 100.95C469.627 100.95 463.6 99.8218 458.049 97.585L456.554 101.295C462.617 103.738 469.156 104.95 476.151 104.95V100.95ZM458.073 97.5947C452.495 95.2636 447.689 92.0695 443.636 88.0158L440.807 90.8442C445.247 95.2839 450.495 98.7631 456.53 101.285L458.073 97.5947ZM443.65 88.0304C439.683 83.9809 436.574 79.1791 434.327 73.6024L430.616 75.0976C433.049 81.1343 436.44 86.3858 440.793 90.8296L443.65 88.0304ZM434.327 73.6024C432.09 68.0518 430.961 62.0244 430.961 55.5H426.961C426.961 62.4956 428.173 69.0349 430.616 75.0976L434.327 73.6024Z" fill="#212121" mask="url(#path-1-outside-1_316_189)"/>
</svg>
