<svg width="260" height="52" viewBox="0 0 260 52" fill="none" xmlns="http://www.w3.org/2000/svg">
<mask id="path-1-outside-1_462_630" maskUnits="userSpaceOnUse" x="0" y="0.25" width="260" height="52" fill="black">
<rect fill="white" y="0.25" width="260" height="52"/>
<path d="M24.152 10.978C22.3173 10.978 20.6747 11.3407 19.224 12.066C17.816 12.7913 16.6213 13.8367 15.64 15.202C14.6587 16.5247 13.912 18.146 13.4 20.066C12.9307 21.986 12.696 24.1407 12.696 26.53C12.696 29.7727 13.08 32.546 13.848 34.85C14.6587 37.1113 15.9173 38.8393 17.624 40.034C19.3307 41.2287 21.5067 41.826 24.152 41.826C26.0293 41.826 27.8853 41.6127 29.72 41.186C31.5973 40.7593 33.624 40.162 35.8 39.394V47.522C33.7947 48.3327 31.8107 48.93 29.848 49.314C27.8853 49.698 25.688 49.89 23.256 49.89C18.5627 49.89 14.68 48.93 11.608 47.01C8.57867 45.0473 6.33867 42.3167 4.888 38.818C3.43733 35.2767 2.712 31.1593 2.712 26.466C2.712 23.01 3.18133 19.8527 4.12 16.994C5.05867 14.0927 6.424 11.5967 8.216 9.506C10.0507 7.41533 12.2907 5.794 14.936 4.642C17.624 3.49 20.696 2.914 24.152 2.914C26.4133 2.914 28.6747 3.21266 30.936 3.81C33.24 4.36466 35.4373 5.13266 37.528 6.114L34.392 13.986C32.6853 13.1753 30.9573 12.4713 29.208 11.874C27.5013 11.2767 25.816 10.978 24.152 10.978ZM78.406 31.714C78.406 34.6153 78.0007 37.1967 77.19 39.458C76.422 41.7193 75.2913 43.6393 73.798 45.218C72.3473 46.754 70.5767 47.9273 68.486 48.738C66.3953 49.506 64.0273 49.89 61.382 49.89C58.95 49.89 56.6887 49.506 54.598 48.738C52.55 47.9273 50.7793 46.754 49.286 45.218C47.7927 43.6393 46.6193 41.7193 45.766 39.458C44.9553 37.1967 44.55 34.6153 44.55 31.714C44.55 27.8313 45.2327 24.5673 46.598 21.922C47.9633 19.234 49.926 17.186 52.486 15.778C55.046 14.37 58.0753 13.666 61.574 13.666C64.8593 13.666 67.7607 14.37 70.278 15.778C72.7953 17.186 74.7793 19.234 76.23 21.922C77.6807 24.5673 78.406 27.8313 78.406 31.714ZM54.278 31.714C54.278 34.018 54.5127 35.9593 54.982 37.538C55.494 39.074 56.2833 40.2473 57.35 41.058C58.4167 41.826 59.8033 42.21 61.51 42.21C63.2167 42.21 64.582 41.826 65.606 41.058C66.6727 40.2473 67.4407 39.074 67.91 37.538C68.422 35.9593 68.678 34.018 68.678 31.714C68.678 29.41 68.422 27.49 67.91 25.954C67.4407 24.418 66.6727 23.266 65.606 22.498C64.5393 21.73 63.1527 21.346 61.446 21.346C58.9287 21.346 57.094 22.2207 55.942 23.97C54.8327 25.6767 54.278 28.258 54.278 31.714ZM108.047 13.666C111.802 13.666 114.81 14.69 117.071 16.738C119.332 18.7433 120.463 21.986 120.463 26.466V49.25H110.927V28.834C110.927 26.3167 110.479 24.4393 109.583 23.202C108.687 21.922 107.258 21.282 105.295 21.282C102.394 21.282 100.41 22.2847 99.343 24.29C98.2763 26.2527 97.743 29.09 97.743 32.802V49.25H88.207V14.306H95.503L96.783 18.786H97.295C98.063 17.5913 99.0017 16.6313 100.111 15.906C101.22 15.138 102.458 14.5833 103.823 14.242C105.188 13.858 106.596 13.666 108.047 13.666ZM146.909 42.274C147.976 42.274 149 42.1673 149.981 41.954C150.963 41.7407 151.944 41.4847 152.925 41.186V48.29C151.901 48.7167 150.621 49.0793 149.085 49.378C147.592 49.7193 145.949 49.89 144.157 49.89C142.067 49.89 140.189 49.5487 138.525 48.866C136.904 48.1833 135.603 47.01 134.621 45.346C133.683 43.6393 133.213 41.2927 133.213 38.306V21.474H128.669V17.442L133.917 14.242L136.669 6.882H142.749V14.306H152.541V21.474H142.749V38.306C142.749 39.6287 143.133 40.6313 143.901 41.314C144.669 41.954 145.672 42.274 146.909 42.274ZM176.195 13.602C180.889 13.602 184.473 14.626 186.947 16.674C189.465 18.6793 190.723 21.7727 190.723 25.954V49.25H184.067L182.211 44.514H181.955C180.974 45.7513 179.95 46.7753 178.883 47.586C177.859 48.3967 176.665 48.9727 175.299 49.314C173.977 49.698 172.334 49.89 170.371 49.89C168.323 49.89 166.467 49.506 164.803 48.738C163.182 47.9273 161.902 46.7113 160.963 45.09C160.025 43.426 159.555 41.3353 159.555 38.818C159.555 35.106 160.857 32.3753 163.459 30.626C166.062 28.834 169.966 27.8527 175.171 27.682L181.251 27.49V25.954C181.251 24.1193 180.761 22.7753 179.779 21.922C178.841 21.0687 177.518 20.642 175.811 20.642C174.105 20.642 172.441 20.898 170.819 21.41C169.198 21.8793 167.577 22.4767 165.955 23.202L162.819 16.738C164.697 15.7567 166.766 14.9887 169.027 14.434C171.331 13.8793 173.721 13.602 176.195 13.602ZM177.539 33.186C174.467 33.2713 172.334 33.826 171.139 34.85C169.945 35.874 169.347 37.218 169.347 38.882C169.347 40.3327 169.774 41.378 170.627 42.018C171.481 42.6153 172.59 42.914 173.955 42.914C176.003 42.914 177.731 42.3167 179.139 41.122C180.547 39.8847 181.251 38.1567 181.251 35.938V33.058L177.539 33.186ZM216.613 49.89C213.157 49.89 210.213 49.2713 207.781 48.034C205.349 46.754 203.493 44.7913 202.213 42.146C200.933 39.5007 200.293 36.1087 200.293 31.97C200.293 27.7033 201.018 24.226 202.469 21.538C203.919 18.85 205.925 16.866 208.485 15.586C211.087 14.306 214.074 13.666 217.445 13.666C219.834 13.666 221.903 13.9007 223.653 14.37C225.445 14.8393 227.002 15.394 228.325 16.034L225.509 23.394C224.015 22.7967 222.607 22.306 221.285 21.922C220.005 21.538 218.725 21.346 217.445 21.346C215.781 21.346 214.394 21.7513 213.285 22.562C212.175 23.33 211.343 24.5033 210.789 26.082C210.277 27.618 210.021 29.5593 210.021 31.906C210.021 34.21 210.298 36.13 210.853 37.666C211.45 39.1593 212.303 40.29 213.413 41.058C214.522 41.7833 215.866 42.146 217.445 42.146C219.45 42.146 221.221 41.89 222.757 41.378C224.293 40.8233 225.786 40.0767 227.237 39.138V47.266C225.786 48.2047 224.25 48.866 222.629 49.25C221.05 49.6767 219.045 49.89 216.613 49.89ZM251.92 42.274C252.986 42.274 254.01 42.1673 254.992 41.954C255.973 41.7407 256.954 41.4847 257.936 41.186V48.29C256.912 48.7167 255.632 49.0793 254.096 49.378C252.602 49.7193 250.96 49.89 249.168 49.89C247.077 49.89 245.2 49.5487 243.536 48.866C241.914 48.1833 240.613 47.01 239.632 45.346C238.693 43.6393 238.224 41.2927 238.224 38.306V21.474H233.68V17.442L238.928 14.242L241.68 6.882H247.76V14.306H257.552V21.474H247.76V38.306C247.76 39.6287 248.144 40.6313 248.912 41.314C249.68 41.954 250.682 42.274 251.92 42.274Z"/>
</mask>
<path d="M24.152 10.978C22.3173 10.978 20.6747 11.3407 19.224 12.066C17.816 12.7913 16.6213 13.8367 15.64 15.202C14.6587 16.5247 13.912 18.146 13.4 20.066C12.9307 21.986 12.696 24.1407 12.696 26.53C12.696 29.7727 13.08 32.546 13.848 34.85C14.6587 37.1113 15.9173 38.8393 17.624 40.034C19.3307 41.2287 21.5067 41.826 24.152 41.826C26.0293 41.826 27.8853 41.6127 29.72 41.186C31.5973 40.7593 33.624 40.162 35.8 39.394V47.522C33.7947 48.3327 31.8107 48.93 29.848 49.314C27.8853 49.698 25.688 49.89 23.256 49.89C18.5627 49.89 14.68 48.93 11.608 47.01C8.57867 45.0473 6.33867 42.3167 4.888 38.818C3.43733 35.2767 2.712 31.1593 2.712 26.466C2.712 23.01 3.18133 19.8527 4.12 16.994C5.05867 14.0927 6.424 11.5967 8.216 9.506C10.0507 7.41533 12.2907 5.794 14.936 4.642C17.624 3.49 20.696 2.914 24.152 2.914C26.4133 2.914 28.6747 3.21266 30.936 3.81C33.24 4.36466 35.4373 5.13266 37.528 6.114L34.392 13.986C32.6853 13.1753 30.9573 12.4713 29.208 11.874C27.5013 11.2767 25.816 10.978 24.152 10.978ZM78.406 31.714C78.406 34.6153 78.0007 37.1967 77.19 39.458C76.422 41.7193 75.2913 43.6393 73.798 45.218C72.3473 46.754 70.5767 47.9273 68.486 48.738C66.3953 49.506 64.0273 49.89 61.382 49.89C58.95 49.89 56.6887 49.506 54.598 48.738C52.55 47.9273 50.7793 46.754 49.286 45.218C47.7927 43.6393 46.6193 41.7193 45.766 39.458C44.9553 37.1967 44.55 34.6153 44.55 31.714C44.55 27.8313 45.2327 24.5673 46.598 21.922C47.9633 19.234 49.926 17.186 52.486 15.778C55.046 14.37 58.0753 13.666 61.574 13.666C64.8593 13.666 67.7607 14.37 70.278 15.778C72.7953 17.186 74.7793 19.234 76.23 21.922C77.6807 24.5673 78.406 27.8313 78.406 31.714ZM54.278 31.714C54.278 34.018 54.5127 35.9593 54.982 37.538C55.494 39.074 56.2833 40.2473 57.35 41.058C58.4167 41.826 59.8033 42.21 61.51 42.21C63.2167 42.21 64.582 41.826 65.606 41.058C66.6727 40.2473 67.4407 39.074 67.91 37.538C68.422 35.9593 68.678 34.018 68.678 31.714C68.678 29.41 68.422 27.49 67.91 25.954C67.4407 24.418 66.6727 23.266 65.606 22.498C64.5393 21.73 63.1527 21.346 61.446 21.346C58.9287 21.346 57.094 22.2207 55.942 23.97C54.8327 25.6767 54.278 28.258 54.278 31.714ZM108.047 13.666C111.802 13.666 114.81 14.69 117.071 16.738C119.332 18.7433 120.463 21.986 120.463 26.466V49.25H110.927V28.834C110.927 26.3167 110.479 24.4393 109.583 23.202C108.687 21.922 107.258 21.282 105.295 21.282C102.394 21.282 100.41 22.2847 99.343 24.29C98.2763 26.2527 97.743 29.09 97.743 32.802V49.25H88.207V14.306H95.503L96.783 18.786H97.295C98.063 17.5913 99.0017 16.6313 100.111 15.906C101.22 15.138 102.458 14.5833 103.823 14.242C105.188 13.858 106.596 13.666 108.047 13.666ZM146.909 42.274C147.976 42.274 149 42.1673 149.981 41.954C150.963 41.7407 151.944 41.4847 152.925 41.186V48.29C151.901 48.7167 150.621 49.0793 149.085 49.378C147.592 49.7193 145.949 49.89 144.157 49.89C142.067 49.89 140.189 49.5487 138.525 48.866C136.904 48.1833 135.603 47.01 134.621 45.346C133.683 43.6393 133.213 41.2927 133.213 38.306V21.474H128.669V17.442L133.917 14.242L136.669 6.882H142.749V14.306H152.541V21.474H142.749V38.306C142.749 39.6287 143.133 40.6313 143.901 41.314C144.669 41.954 145.672 42.274 146.909 42.274ZM176.195 13.602C180.889 13.602 184.473 14.626 186.947 16.674C189.465 18.6793 190.723 21.7727 190.723 25.954V49.25H184.067L182.211 44.514H181.955C180.974 45.7513 179.95 46.7753 178.883 47.586C177.859 48.3967 176.665 48.9727 175.299 49.314C173.977 49.698 172.334 49.89 170.371 49.89C168.323 49.89 166.467 49.506 164.803 48.738C163.182 47.9273 161.902 46.7113 160.963 45.09C160.025 43.426 159.555 41.3353 159.555 38.818C159.555 35.106 160.857 32.3753 163.459 30.626C166.062 28.834 169.966 27.8527 175.171 27.682L181.251 27.49V25.954C181.251 24.1193 180.761 22.7753 179.779 21.922C178.841 21.0687 177.518 20.642 175.811 20.642C174.105 20.642 172.441 20.898 170.819 21.41C169.198 21.8793 167.577 22.4767 165.955 23.202L162.819 16.738C164.697 15.7567 166.766 14.9887 169.027 14.434C171.331 13.8793 173.721 13.602 176.195 13.602ZM177.539 33.186C174.467 33.2713 172.334 33.826 171.139 34.85C169.945 35.874 169.347 37.218 169.347 38.882C169.347 40.3327 169.774 41.378 170.627 42.018C171.481 42.6153 172.59 42.914 173.955 42.914C176.003 42.914 177.731 42.3167 179.139 41.122C180.547 39.8847 181.251 38.1567 181.251 35.938V33.058L177.539 33.186ZM216.613 49.89C213.157 49.89 210.213 49.2713 207.781 48.034C205.349 46.754 203.493 44.7913 202.213 42.146C200.933 39.5007 200.293 36.1087 200.293 31.97C200.293 27.7033 201.018 24.226 202.469 21.538C203.919 18.85 205.925 16.866 208.485 15.586C211.087 14.306 214.074 13.666 217.445 13.666C219.834 13.666 221.903 13.9007 223.653 14.37C225.445 14.8393 227.002 15.394 228.325 16.034L225.509 23.394C224.015 22.7967 222.607 22.306 221.285 21.922C220.005 21.538 218.725 21.346 217.445 21.346C215.781 21.346 214.394 21.7513 213.285 22.562C212.175 23.33 211.343 24.5033 210.789 26.082C210.277 27.618 210.021 29.5593 210.021 31.906C210.021 34.21 210.298 36.13 210.853 37.666C211.45 39.1593 212.303 40.29 213.413 41.058C214.522 41.7833 215.866 42.146 217.445 42.146C219.45 42.146 221.221 41.89 222.757 41.378C224.293 40.8233 225.786 40.0767 227.237 39.138V47.266C225.786 48.2047 224.25 48.866 222.629 49.25C221.05 49.6767 219.045 49.89 216.613 49.89ZM251.92 42.274C252.986 42.274 254.01 42.1673 254.992 41.954C255.973 41.7407 256.954 41.4847 257.936 41.186V48.29C256.912 48.7167 255.632 49.0793 254.096 49.378C252.602 49.7193 250.96 49.89 249.168 49.89C247.077 49.89 245.2 49.5487 243.536 48.866C241.914 48.1833 240.613 47.01 239.632 45.346C238.693 43.6393 238.224 41.2927 238.224 38.306V21.474H233.68V17.442L238.928 14.242L241.68 6.882H247.76V14.306H257.552V21.474H247.76V38.306C247.76 39.6287 248.144 40.6313 248.912 41.314C249.68 41.954 250.682 42.274 251.92 42.274Z" fill="#F9D74C"/>
<path d="M19.224 12.066L18.3296 10.2771L18.3188 10.2825L18.3081 10.288L19.224 12.066ZM15.64 15.202L17.2462 16.3937L17.2552 16.3816L17.264 16.3693L15.64 15.202ZM13.4 20.066L11.4675 19.5507L11.4622 19.5708L11.4572 19.5911L13.4 20.066ZM13.848 34.85L11.9506 35.4825L11.9577 35.5038L11.9653 35.5249L13.848 34.85ZM17.624 40.034L16.4771 41.6725L16.4771 41.6725L17.624 40.034ZM29.72 41.186L29.2768 39.2357L29.267 39.238L29.72 41.186ZM35.8 39.394H37.8V36.5672L35.1344 37.508L35.8 39.394ZM35.8 47.522L36.5496 49.3762L37.8 48.8707V47.522H35.8ZM29.848 49.314L30.232 51.2768L30.232 51.2768L29.848 49.314ZM11.608 47.01L10.5205 48.6885L10.5342 48.6974L10.548 48.706L11.608 47.01ZM4.888 38.818L3.03725 39.5761L3.04052 39.584L4.888 38.818ZM4.12 16.994L6.0202 17.6179L6.02289 17.6096L4.12 16.994ZM8.216 9.506L6.71275 8.18682L6.70507 8.19557L6.69749 8.20441L8.216 9.506ZM14.936 4.642L14.1481 2.80368L14.1375 2.80833L14.936 4.642ZM30.936 3.81L30.4252 5.74367L30.4465 5.74929L30.4679 5.75444L30.936 3.81ZM37.528 6.114L39.386 6.85417L40.0832 5.10402L38.3778 4.30352L37.528 6.114ZM34.392 13.986L33.5339 15.7926L35.4606 16.7077L36.25 14.7262L34.392 13.986ZM29.208 11.874L28.5473 13.7617L28.5545 13.7642L28.5617 13.7667L29.208 11.874ZM24.152 8.978C22.0479 8.978 20.0925 9.3957 18.3296 10.2771L20.1184 13.8549C21.2569 13.2856 22.5868 12.978 24.152 12.978V8.978ZM18.3081 10.288C16.6019 11.167 15.1701 12.429 14.016 14.0347L17.264 16.3693C18.0726 15.2444 19.0301 14.4156 20.1399 13.8439L18.3081 10.288ZM14.0338 14.0103C12.8744 15.573 12.0315 17.4358 11.4675 19.5507L15.3325 20.5813C15.7925 18.8562 16.4429 17.4764 17.2462 16.3937L14.0338 14.0103ZM11.4572 19.5911C10.943 21.6948 10.696 24.0127 10.696 26.53H14.696C14.696 24.2687 14.9184 22.2772 15.3428 20.5409L11.4572 19.5911ZM10.696 26.53C10.696 29.9202 11.0962 32.9191 11.9506 35.4825L15.7454 34.2175C15.0638 32.1729 14.696 29.6251 14.696 26.53H10.696ZM11.9653 35.5249C12.8935 38.1141 14.3814 40.2055 16.4771 41.6725L18.7709 38.3955C17.4533 37.4732 16.4238 36.1085 15.7307 34.1751L11.9653 35.5249ZM16.4771 41.6725C18.6006 43.1589 21.2072 43.826 24.152 43.826V39.826C21.8061 39.826 20.0608 39.2984 18.7709 38.3955L16.4771 41.6725ZM24.152 43.826C26.1823 43.826 28.1903 43.5951 30.173 43.134L29.267 39.238C27.5803 39.6302 25.8763 39.826 24.152 39.826V43.826ZM30.1632 43.1363C32.1289 42.6895 34.2306 42.0688 36.4656 41.28L35.1344 37.508C33.0174 38.2552 31.0658 38.8291 29.2768 39.2357L30.1632 43.1363ZM33.8 39.394V47.522H37.8V39.394H33.8ZM35.0504 45.6678C33.1537 46.4345 31.2919 46.9936 29.464 47.3512L30.232 51.2768C32.3294 50.8664 34.4356 50.2308 36.5496 49.3762L35.0504 45.6678ZM29.464 47.3512C27.6515 47.7058 25.5856 47.89 23.256 47.89V51.89C25.7904 51.89 28.1192 51.6902 30.232 51.2768L29.464 47.3512ZM23.256 47.89C18.8286 47.89 15.3409 46.9846 12.668 45.314L10.548 48.706C14.0191 50.8754 18.2968 51.89 23.256 51.89V47.89ZM12.6955 45.3315C10.0233 43.6002 8.03914 41.1961 6.73548 38.052L3.04052 39.584C4.6382 43.4373 7.134 46.4944 10.5205 48.6885L12.6955 45.3315ZM6.73874 38.0599C5.40621 34.8069 4.712 30.9565 4.712 26.466H0.712C0.712 31.3622 1.46846 35.7464 3.03726 39.5761L6.73874 38.0599ZM4.712 26.466C4.712 23.191 5.15664 20.2478 6.02018 17.6179L2.21982 16.3701C1.20603 19.4575 0.712 22.829 0.712 26.466H4.712ZM6.02289 17.6096C6.88886 14.933 8.13239 12.6767 9.73451 10.8076L6.69749 8.20441C4.71561 10.5166 3.22848 13.2523 2.21711 16.3784L6.02289 17.6096ZM9.71925 10.8252C11.3524 8.96411 13.3488 7.51463 15.7345 6.47567L14.1375 2.80833C11.2326 4.07336 8.7489 5.86655 6.71275 8.18682L9.71925 10.8252ZM15.7238 6.48029C18.1219 5.45255 20.9184 4.914 24.152 4.914V0.913998C20.4736 0.913998 17.1261 1.52744 14.1482 2.80371L15.7238 6.48029ZM24.152 4.914C26.2351 4.914 28.3248 5.18886 30.4252 5.74367L31.4468 1.87632C29.0245 1.23647 26.5916 0.913998 24.152 0.913998V4.914ZM30.4679 5.75444C32.6439 6.2783 34.7131 7.00207 36.6782 7.92447L38.3778 4.30352C36.1616 3.26326 33.8361 2.45103 31.4041 1.86555L30.4679 5.75444ZM35.67 5.37382L32.534 13.2458L36.25 14.7262L39.386 6.85417L35.67 5.37382ZM35.2501 12.1794C33.4761 11.3368 31.6774 10.6038 29.8543 9.9813L28.5617 13.7667C30.2373 14.3388 31.8946 15.0139 33.5339 15.7926L35.2501 12.1794ZM29.8687 9.98628C27.9681 9.32106 26.0597 8.978 24.152 8.978V12.978C25.5723 12.978 27.0346 13.2323 28.5473 13.7617L29.8687 9.98628ZM77.19 39.458L75.3073 38.7831L75.3016 38.7989L75.2962 38.8148L77.19 39.458ZM73.798 45.218L72.3451 43.8436L72.344 43.8448L73.798 45.218ZM68.486 48.738L69.1756 50.6153L69.1924 50.6092L69.2091 50.6027L68.486 48.738ZM54.598 48.738L53.8619 50.5976L53.885 50.6068L53.9084 50.6153L54.598 48.738ZM49.286 45.218L47.8331 46.5924L47.8425 46.6023L47.852 46.6122L49.286 45.218ZM45.766 39.458L43.8833 40.1329L43.8889 40.1486L43.8948 40.1641L45.766 39.458ZM46.598 21.922L48.3753 22.8393L48.3812 22.8277L46.598 21.922ZM52.486 15.778L53.4498 17.5304L53.4498 17.5304L52.486 15.778ZM70.278 15.778L69.3017 17.5235L69.3017 17.5235L70.278 15.778ZM76.23 21.922L74.4699 22.8719L74.4764 22.8837L76.23 21.922ZM54.982 37.538L53.0649 38.1079L53.0743 38.1394L53.0846 38.1705L54.982 37.538ZM57.35 41.058L56.1398 42.6503L56.1604 42.666L56.1814 42.6811L57.35 41.058ZM65.606 41.058L66.806 42.658L66.8162 42.6503L65.606 41.058ZM67.91 37.538L66.0076 36.921L66.0023 36.9372L65.9973 36.9536L67.91 37.538ZM67.91 25.954L65.9973 26.5384L66.0047 26.5625L66.0126 26.5865L67.91 25.954ZM55.942 23.97L54.2716 22.87L54.2651 22.88L55.942 23.97ZM76.406 31.714C76.406 34.4316 76.0261 36.778 75.3073 38.7831L79.0727 40.1329C79.9752 37.6153 80.406 34.799 80.406 31.714H76.406ZM75.2962 38.8148C74.6116 40.8308 73.6217 42.4941 72.3451 43.8436L75.2509 46.5924C76.961 44.7846 78.2324 42.6079 79.0838 40.1012L75.2962 38.8148ZM72.344 43.8448C71.1098 45.1515 69.5938 46.1633 67.7629 46.8733L69.2091 50.6027C71.5595 49.6913 73.5848 48.3565 75.252 46.5912L72.344 43.8448ZM67.7964 46.8607C65.9637 47.5339 63.8351 47.89 61.382 47.89V51.89C64.2195 51.89 66.827 51.4781 69.1756 50.6153L67.7964 46.8607ZM61.382 47.89C59.1637 47.89 57.138 47.5404 55.2876 46.8607L53.9084 50.6153C56.2393 51.4716 58.7363 51.89 61.382 51.89V47.89ZM55.3341 46.8784C53.5414 46.1688 52.0106 45.1513 50.72 43.8238L47.852 46.6122C49.5481 48.3567 51.5586 49.6859 53.8619 50.5976L55.3341 46.8784ZM50.7389 43.8436C49.4474 42.4783 48.4074 40.7928 47.6372 38.7519L43.8948 40.1641C44.8313 42.6458 46.1379 44.8004 47.8331 46.5924L50.7389 43.8436ZM47.6487 38.7831C46.9299 36.778 46.55 34.4316 46.55 31.714H42.55C42.55 34.799 42.9808 37.6153 43.8833 40.1329L47.6487 38.7831ZM46.55 31.714C46.55 28.0567 47.194 25.128 48.3752 22.8393L44.8208 21.0047C43.2714 24.0067 42.55 27.6059 42.55 31.714H46.55ZM48.3812 22.8277C49.5708 20.4857 51.2535 18.7384 53.4498 17.5304L51.5222 14.0256C48.5985 15.6336 46.3559 17.9823 44.8148 21.0163L48.3812 22.8277ZM53.4498 17.5304C55.6614 16.3141 58.3459 15.666 61.574 15.666V11.666C57.8047 11.666 54.4306 12.4259 51.5222 14.0256L53.4498 17.5304ZM61.574 15.666C64.5657 15.666 67.1221 16.3044 69.3017 17.5235L71.2543 14.0325C68.3992 12.4356 65.153 11.666 61.574 11.666V15.666ZM69.3017 17.5235C71.4676 18.735 73.1885 20.4975 74.47 22.8719L77.99 20.9721C76.3701 17.9705 74.123 15.637 71.2543 14.0325L69.3017 17.5235ZM74.4764 22.8837C75.7255 25.1616 76.406 28.0735 76.406 31.714H80.406C80.406 27.5892 79.6358 23.9731 77.9836 20.9603L74.4764 22.8837ZM52.278 31.714C52.278 34.1404 52.5236 36.287 53.0649 38.1079L56.8991 36.9681C56.5018 35.6317 56.278 33.8956 56.278 31.714H52.278ZM53.0846 38.1705C53.697 40.0074 54.691 41.5492 56.1398 42.6503L58.5602 39.4657C57.8756 38.9454 57.291 38.1405 56.8794 36.9055L53.0846 38.1705ZM56.1814 42.6811C57.6774 43.7582 59.5088 44.21 61.51 44.21V40.21C60.0979 40.21 59.1559 39.8938 58.5186 39.4349L56.1814 42.6811ZM61.51 44.21C63.5062 44.21 65.3365 43.7601 66.806 42.658L64.406 39.458C63.8275 39.8919 62.9272 40.21 61.51 40.21V44.21ZM66.8162 42.6503C68.2791 41.5385 69.2557 39.9781 69.8227 38.1224L65.9973 36.9536C65.6256 38.1699 65.0662 38.9562 64.3958 39.4657L66.8162 42.6503ZM69.8124 38.155C70.4087 36.3164 70.678 34.1525 70.678 31.714H66.678C66.678 33.8835 66.4353 35.6022 66.0076 36.921L69.8124 38.155ZM70.678 31.714C70.678 29.2782 70.4094 27.1277 69.8074 25.3215L66.0126 26.5865C66.4346 27.8523 66.678 29.5418 66.678 31.714H70.678ZM69.8227 25.3696C69.2546 23.5104 68.2692 21.951 66.7746 20.8749L64.4374 24.1211C65.0761 24.581 65.6267 25.3256 65.9973 26.5384L69.8227 25.3696ZM66.7746 20.8749C65.2786 19.7978 63.4472 19.346 61.446 19.346V23.346C62.8581 23.346 63.8001 23.6622 64.4374 24.1211L66.7746 20.8749ZM61.446 19.346C58.4122 19.346 55.8721 20.4398 54.2717 22.87L57.6123 25.07C58.3159 24.0016 59.4451 23.346 61.446 23.346V19.346ZM54.2651 22.88C52.844 25.0664 52.278 28.1112 52.278 31.714H56.278C56.278 28.4048 56.8214 26.287 57.6189 25.06L54.2651 22.88ZM117.071 16.738L115.728 18.2204L115.736 18.2274L115.744 18.2344L117.071 16.738ZM120.463 49.25V51.25H122.463V49.25H120.463ZM110.927 49.25H108.927V51.25H110.927V49.25ZM109.583 23.202L107.945 24.3489L107.954 24.362L107.963 24.375L109.583 23.202ZM99.343 24.29L101.1 25.245L101.105 25.2371L101.109 25.2292L99.343 24.29ZM97.743 49.25V51.25H99.743V49.25H97.743ZM88.207 49.25H86.207V51.25H88.207V49.25ZM88.207 14.306V12.306H86.207V14.306H88.207ZM95.503 14.306L97.426 13.7566L97.0116 12.306H95.503V14.306ZM96.783 18.786L94.8599 19.3354L95.2744 20.786H96.783V18.786ZM97.295 18.786V20.786H98.3869L98.9774 19.8675L97.295 18.786ZM100.111 15.906L101.205 17.5799L101.228 17.5655L101.249 17.5504L100.111 15.906ZM103.823 14.242L104.308 16.1823L104.336 16.1752L104.364 16.1673L103.823 14.242ZM108.047 15.666C111.425 15.666 113.915 16.578 115.728 18.2204L118.414 15.2556C115.704 12.802 112.178 11.666 108.047 11.666V15.666ZM115.744 18.2344C117.405 19.7076 118.463 22.2789 118.463 26.466H122.463C122.463 21.6931 121.259 17.779 118.398 15.2416L115.744 18.2344ZM118.463 26.466V49.25H122.463V26.466H118.463ZM120.463 47.25H110.927V51.25H120.463V47.25ZM112.927 49.25V28.834H108.927V49.25H112.927ZM112.927 28.834C112.927 26.144 112.46 23.765 111.203 22.029L107.963 24.375C108.498 25.1136 108.927 26.4893 108.927 28.834H112.927ZM111.221 22.0551C109.855 20.1033 107.723 19.282 105.295 19.282V23.282C106.793 23.282 107.519 23.7407 107.945 24.3489L111.221 22.0551ZM105.295 19.282C101.895 19.282 99.0913 20.5044 97.5773 23.3508L101.109 25.2292C101.728 24.0649 102.892 23.282 105.295 23.282V19.282ZM97.5857 23.335C96.2872 25.7243 95.743 28.9515 95.743 32.802H99.743C99.743 29.2285 100.265 26.781 101.1 25.245L97.5857 23.335ZM95.743 32.802V49.25H99.743V32.802H95.743ZM97.743 47.25H88.207V51.25H97.743V47.25ZM90.207 49.25V14.306H86.207V49.25H90.207ZM88.207 16.306H95.503V12.306H88.207V16.306ZM93.5799 14.8554L94.8599 19.3354L98.706 18.2366L97.426 13.7566L93.5799 14.8554ZM96.783 20.786H97.295V16.786H96.783V20.786ZM98.9774 19.8675C99.6043 18.8923 100.348 18.1405 101.205 17.5799L99.0165 14.2321C97.6552 15.1221 96.5217 16.2904 95.6126 17.7045L98.9774 19.8675ZM101.249 17.5504C102.152 16.9254 103.166 16.4677 104.308 16.1823L103.338 12.3017C101.749 12.699 100.289 13.3506 98.9726 14.2616L101.249 17.5504ZM104.364 16.1673C105.55 15.834 106.775 15.666 108.047 15.666V11.666C106.417 11.666 104.827 11.882 103.282 12.3167L104.364 16.1673ZM149.981 41.954L149.557 39.9996L149.557 39.9996L149.981 41.954ZM152.925 41.186H154.925V38.4867L152.343 39.2727L152.925 41.186ZM152.925 48.29L153.695 50.1362L154.925 49.6233V48.29H152.925ZM149.085 49.378L148.704 47.4148L148.672 47.421L148.64 47.4283L149.085 49.378ZM138.525 48.866L137.749 50.7093L137.758 50.7128L137.766 50.7163L138.525 48.866ZM134.621 45.346L132.869 46.3098L132.884 46.3361L132.899 46.362L134.621 45.346ZM133.213 21.474H135.213V19.474H133.213V21.474ZM128.669 21.474H126.669V23.474H128.669V21.474ZM128.669 17.442L127.628 15.7344L126.669 16.319V17.442H128.669ZM133.917 14.242L134.959 15.9496L135.549 15.5898L135.791 14.9425L133.917 14.242ZM136.669 6.882V4.882H135.282L134.796 6.18153L136.669 6.882ZM142.749 6.882H144.749V4.882H142.749V6.882ZM142.749 14.306H140.749V16.306H142.749V14.306ZM152.541 14.306H154.541V12.306H152.541V14.306ZM152.541 21.474V23.474H154.541V21.474H152.541ZM142.749 21.474V19.474H140.749V21.474H142.749ZM143.901 41.314L142.573 42.8088L142.597 42.83L142.621 42.8504L143.901 41.314ZM146.909 44.274C148.11 44.274 149.277 44.1538 150.406 43.9084L149.557 39.9996C148.723 40.1808 147.842 40.274 146.909 40.274V44.274ZM150.406 43.9084C151.442 43.6832 152.476 43.4135 153.508 43.0993L152.343 39.2727C151.413 39.5559 150.484 39.7981 149.557 39.9996L150.406 43.9084ZM150.925 41.186V48.29H154.925V41.186H150.925ZM152.156 46.4438C151.296 46.8021 150.156 47.1323 148.704 47.4148L149.467 51.3412C151.087 51.0264 152.507 50.6312 153.695 50.1362L152.156 46.4438ZM148.64 47.4283C147.315 47.7311 145.824 47.89 144.157 47.89V51.89C146.075 51.89 147.869 51.7075 149.531 51.3277L148.64 47.4283ZM144.157 47.89C142.285 47.89 140.672 47.5848 139.285 47.0157L137.766 50.7163C139.707 51.5125 141.848 51.89 144.157 51.89V47.89ZM139.302 47.0227C138.116 46.5234 137.13 45.662 136.344 44.33L132.899 46.362C134.076 48.358 135.693 49.8433 137.749 50.7093L139.302 47.0227ZM136.374 44.3822C135.662 43.0874 135.213 41.12 135.213 38.306H131.213C131.213 41.4654 131.704 44.1913 132.869 46.3098L136.374 44.3822ZM135.213 38.306V21.474H131.213V38.306H135.213ZM133.213 19.474H128.669V23.474H133.213V19.474ZM130.669 21.474V17.442H126.669V21.474H130.669ZM129.711 19.1496L134.959 15.9496L132.876 12.5344L127.628 15.7344L129.711 19.1496ZM135.791 14.9425L138.543 7.58246L134.796 6.18153L132.044 13.5415L135.791 14.9425ZM136.669 8.882H142.749V4.882H136.669V8.882ZM140.749 6.882V14.306H144.749V6.882H140.749ZM142.749 16.306H152.541V12.306H142.749V16.306ZM150.541 14.306V21.474H154.541V14.306H150.541ZM152.541 19.474H142.749V23.474H152.541V19.474ZM140.749 21.474V38.306H144.749V21.474H140.749ZM140.749 38.306C140.749 40.025 141.263 41.6441 142.573 42.8088L145.23 39.8192C145.004 39.6185 144.749 39.2323 144.749 38.306H140.749ZM142.621 42.8504C143.828 43.856 145.319 44.274 146.909 44.274V40.274C146.025 40.274 145.511 40.052 145.182 39.7776L142.621 42.8504ZM186.947 16.674L185.672 18.2148L185.687 18.2267L185.701 18.2383L186.947 16.674ZM190.723 49.25V51.25H192.723V49.25H190.723ZM184.067 49.25L182.205 49.9797L182.703 51.25H184.067V49.25ZM182.211 44.514L184.074 43.7843L183.576 42.514H182.211V44.514ZM181.955 44.514V42.514H180.989L180.388 43.2712L181.955 44.514ZM178.883 47.586L177.673 45.9937L177.658 46.0056L177.642 46.0179L178.883 47.586ZM175.299 49.314L174.814 47.3737L174.778 47.3828L174.742 47.3933L175.299 49.314ZM164.803 48.738L163.909 50.5269L163.937 50.5408L163.965 50.5539L164.803 48.738ZM160.963 45.09L159.222 46.0726L159.227 46.0824L159.233 46.0921L160.963 45.09ZM163.459 30.626L164.575 32.2859L164.584 32.2797L164.594 32.2733L163.459 30.626ZM175.171 27.682L175.108 25.683L175.106 25.6831L175.171 27.682ZM181.251 27.49L181.315 29.489L183.251 29.4278V27.49H181.251ZM179.779 21.922L178.434 23.4019L178.45 23.4167L178.467 23.4312L179.779 21.922ZM170.819 21.41L171.376 23.3311L171.399 23.3244L171.422 23.3172L170.819 21.41ZM165.955 23.202L164.156 24.075L165.002 25.8194L166.772 25.0276L165.955 23.202ZM162.819 16.738L161.893 14.9655L160.173 15.8647L161.02 17.611L162.819 16.738ZM169.027 14.434L168.559 12.4895L168.551 12.4916L169.027 14.434ZM177.539 33.186L177.595 35.1853L177.608 35.1848L177.539 33.186ZM171.139 34.85L169.838 33.3315L169.838 33.3315L171.139 34.85ZM170.627 42.018L169.427 43.618L169.454 43.6377L169.481 43.6565L170.627 42.018ZM179.139 41.122L180.433 42.647L180.447 42.6358L180.46 42.6243L179.139 41.122ZM181.251 33.058H183.251V30.9878L181.183 31.0592L181.251 33.058ZM176.195 15.602C180.632 15.602 183.69 16.5739 185.672 18.2148L188.223 15.1332C185.256 12.6781 181.146 11.602 176.195 11.602V15.602ZM185.701 18.2383C187.607 19.7563 188.723 22.1844 188.723 25.954H192.723C192.723 21.3609 191.323 17.6024 188.194 15.1097L185.701 18.2383ZM188.723 25.954V49.25H192.723V25.954H188.723ZM190.723 47.25H184.067V51.25H190.723V47.25ZM185.93 48.5203L184.074 43.7843L180.349 45.2437L182.205 49.9797L185.93 48.5203ZM182.211 42.514H181.955V46.514H182.211V42.514ZM180.388 43.2712C179.493 44.4002 178.586 45.3003 177.673 45.9937L180.094 49.1783C181.315 48.2504 182.455 47.1025 183.522 45.7568L180.388 43.2712ZM177.642 46.0179C176.858 46.6388 175.926 47.0959 174.814 47.3737L175.785 51.2543C177.404 50.8495 178.861 50.1545 180.125 49.1541L177.642 46.0179ZM174.742 47.3933C173.659 47.7076 172.218 47.89 170.371 47.89V51.89C172.45 51.89 174.294 51.6884 175.857 51.2347L174.742 47.3933ZM170.371 47.89C168.579 47.89 167.013 47.5553 165.642 46.9221L163.965 50.5539C165.922 51.4567 168.068 51.89 170.371 51.89V47.89ZM165.698 46.9491C164.439 46.3194 163.444 45.3829 162.694 44.0879L159.233 46.0921C160.36 48.0398 161.926 49.5352 163.909 50.5269L165.698 46.9491ZM162.705 44.1074C161.981 42.8237 161.555 41.097 161.555 38.818H157.555C157.555 41.5737 158.068 44.0283 159.222 46.0726L162.705 44.1074ZM161.555 38.818C161.555 35.6311 162.633 33.5914 164.575 32.2859L162.344 28.9661C159.081 31.1593 157.555 34.5809 157.555 38.818H161.555ZM164.594 32.2733C166.737 30.7973 170.191 29.8464 175.237 29.6809L175.106 25.6831C169.741 25.859 165.387 26.8707 162.325 28.9787L164.594 32.2733ZM175.235 29.681L181.315 29.489L181.188 25.491L175.108 25.683L175.235 29.681ZM183.251 27.49V25.954H179.251V27.49H183.251ZM183.251 25.954C183.251 23.7866 182.667 21.7821 181.092 20.4128L178.467 23.4312C178.855 23.7685 179.251 24.4521 179.251 25.954H183.251ZM181.125 20.4421C179.707 19.1528 177.841 18.642 175.811 18.642V22.642C177.195 22.642 177.975 22.9845 178.434 23.4019L181.125 20.4421ZM175.811 18.642C173.901 18.642 172.034 18.9291 170.217 19.5028L171.422 23.3172C172.848 22.8669 174.308 22.642 175.811 22.642V18.642ZM170.263 19.4889C168.549 19.9853 166.84 20.6152 165.139 21.3764L166.772 25.0276C168.313 24.3382 169.848 23.7734 171.376 23.3311L170.263 19.4889ZM167.755 22.329L164.619 15.865L161.02 17.611L164.156 24.075L167.755 22.329ZM163.746 18.5104C165.467 17.6106 167.384 16.8965 169.504 16.3764L168.551 12.4916C166.149 13.0808 163.926 13.9027 161.893 14.9655L163.746 18.5104ZM169.496 16.3784C171.64 15.8623 173.872 15.602 176.195 15.602V11.602C173.57 11.602 171.023 11.8964 168.559 12.4896L169.496 16.3784ZM177.484 31.1868C174.327 31.2745 171.585 31.8337 169.838 33.3315L172.441 36.3685C173.083 35.8183 174.608 35.2682 177.595 35.1852L177.484 31.1868ZM169.838 33.3315C168.172 34.7597 167.347 36.6724 167.347 38.882H171.347C171.347 37.7636 171.718 36.9883 172.441 36.3685L169.838 33.3315ZM167.347 38.882C167.347 40.7182 167.903 42.4746 169.427 43.618L171.827 40.418C171.645 40.2814 171.347 39.9472 171.347 38.882H167.347ZM169.481 43.6565C170.761 44.5525 172.306 44.914 173.955 44.914V40.914C172.874 40.914 172.201 40.6782 171.774 40.3795L169.481 43.6565ZM173.955 44.914C176.422 44.914 178.624 44.1823 180.433 42.647L177.846 39.597C176.839 40.451 175.585 40.914 173.955 40.914V44.914ZM180.46 42.6243C182.38 40.9369 183.251 38.6159 183.251 35.938H179.251C179.251 37.6974 178.715 38.8324 177.819 39.6197L180.46 42.6243ZM183.251 35.938V33.058H179.251V35.938H183.251ZM181.183 31.0592L177.471 31.1872L177.608 35.1848L181.32 35.0568L181.183 31.0592ZM207.781 48.034L206.849 49.8038L206.861 49.8103L206.874 49.8166L207.781 48.034ZM202.213 42.146L204.013 41.2749L204.013 41.2749L202.213 42.146ZM202.469 21.538L200.708 20.5881L200.708 20.5881L202.469 21.538ZM208.485 15.586L207.602 13.7913L207.59 13.7971L208.485 15.586ZM223.653 14.37L223.134 16.3017L223.146 16.3047L223.653 14.37ZM228.325 16.034L230.192 16.7487L230.849 15.0335L229.196 14.2337L228.325 16.034ZM225.509 23.394L224.766 25.251L226.651 26.005L227.376 24.1087L225.509 23.394ZM221.285 21.922L220.71 23.8377L220.718 23.8402L220.727 23.8427L221.285 21.922ZM213.285 22.562L214.423 24.2064L214.444 24.1918L214.465 24.1768L213.285 22.562ZM210.789 26.082L208.902 25.419L208.896 25.4342L208.891 25.4495L210.789 26.082ZM210.853 37.666L208.971 38.3453L208.983 38.3772L208.996 38.4088L210.853 37.666ZM213.413 41.058L212.274 42.7024L212.296 42.7175L212.318 42.7319L213.413 41.058ZM222.757 41.378L223.389 43.2754L223.412 43.2675L223.436 43.2591L222.757 41.378ZM227.237 39.138H229.237V35.4617L226.15 37.4589L227.237 39.138ZM227.237 47.266L228.323 48.9451L229.237 48.3541V47.266H227.237ZM222.629 49.25L222.168 47.3038L222.137 47.3111L222.107 47.3193L222.629 49.25ZM216.613 47.89C213.39 47.89 210.774 47.3129 208.687 46.2514L206.874 49.8166C209.651 51.2298 212.923 51.89 216.613 51.89V47.89ZM208.712 46.2642C206.685 45.1974 205.12 43.5638 204.013 41.2749L200.412 43.0171C201.865 46.0189 204.012 48.3106 206.849 49.8038L208.712 46.2642ZM204.013 41.2749C202.907 38.9887 202.293 35.9222 202.293 31.97H198.293C198.293 36.2951 198.958 40.0127 200.412 43.0171L204.013 41.2749ZM202.293 31.97C202.293 27.9105 202.985 24.7912 204.229 22.4879L200.708 20.5881C199.05 23.6607 198.293 27.4962 198.293 31.97H202.293ZM204.229 22.4879C205.498 20.1362 207.212 18.4582 209.379 17.3749L207.59 13.7971C204.637 15.2738 202.341 17.5638 200.708 20.5881L204.229 22.4879ZM209.367 17.3807C211.654 16.256 214.33 15.666 217.445 15.666V11.666C213.817 11.666 210.52 12.356 207.602 13.7913L209.367 17.3807ZM217.445 15.666C219.711 15.666 221.598 15.8895 223.134 16.3017L224.171 12.4383C222.209 11.9119 219.957 11.666 217.445 11.666V15.666ZM223.146 16.3047C224.843 16.7493 226.273 17.2632 227.453 17.8343L229.196 14.2337C227.731 13.5248 226.046 12.9294 224.159 12.4353L223.146 16.3047ZM226.457 15.3193L223.641 22.6793L227.376 24.1087L230.192 16.7487L226.457 15.3193ZM226.251 21.537C224.707 20.9194 223.237 20.4062 221.842 20.0013L220.727 23.8427C221.977 24.2058 223.323 24.674 224.766 25.251L226.251 21.537ZM221.859 20.0063C220.401 19.5689 218.928 19.346 217.445 19.346V23.346C218.521 23.346 219.608 23.5071 220.71 23.8377L221.859 20.0063ZM217.445 19.346C215.448 19.346 213.624 19.8371 212.104 20.9472L214.465 24.1768C215.164 23.6655 216.113 23.346 217.445 23.346V19.346ZM212.146 20.9176C210.614 21.9781 209.562 23.5393 208.902 25.419L212.675 26.745C213.124 25.4673 213.736 24.6818 214.423 24.2064L212.146 20.9176ZM208.891 25.4495C208.288 27.2588 208.021 29.4321 208.021 31.906H212.021C212.021 29.6865 212.265 27.9772 212.686 26.7145L208.891 25.4495ZM208.021 31.906C208.021 34.354 208.313 36.522 208.971 38.3453L212.734 36.9867C212.283 35.738 212.021 34.066 212.021 31.906H208.021ZM208.996 38.4088C209.71 40.1955 210.784 41.6709 212.274 42.7024L214.551 39.4136C213.822 38.9091 213.189 38.1232 212.709 36.9232L208.996 38.4088ZM212.318 42.7319C213.811 43.7078 215.552 44.146 217.445 44.146V40.146C216.179 40.146 215.233 39.8588 214.507 39.3841L212.318 42.7319ZM217.445 44.146C219.616 44.146 221.607 43.8693 223.389 43.2754L222.124 39.4806C220.834 39.9107 219.284 40.146 217.445 40.146V44.146ZM223.436 43.2591C225.123 42.6499 226.752 41.8336 228.323 40.8171L226.15 37.4589C224.82 38.3197 223.462 38.9968 222.077 39.4969L223.436 43.2591ZM225.237 39.138V47.266H229.237V39.138H225.237ZM226.15 45.5869C224.884 46.4061 223.558 46.9744 222.168 47.3038L223.089 51.1962C224.941 50.7576 226.688 50.0032 228.323 48.9451L226.15 45.5869ZM222.107 47.3193C220.759 47.6835 218.945 47.89 216.613 47.89V51.89C219.144 51.89 221.341 51.6698 223.15 51.1807L222.107 47.3193ZM254.992 41.954L254.567 39.9996L254.567 39.9996L254.992 41.954ZM257.936 41.186H259.936V38.4867L257.353 39.2727L257.936 41.186ZM257.936 48.29L258.705 50.1362L259.936 49.6233V48.29H257.936ZM254.096 49.378L253.714 47.4148L253.682 47.421L253.65 47.4283L254.096 49.378ZM243.536 48.866L242.759 50.7093L242.768 50.7128L242.776 50.7163L243.536 48.866ZM239.632 45.346L237.879 46.3098L237.894 46.3361L237.909 46.362L239.632 45.346ZM238.224 21.474H240.224V19.474H238.224V21.474ZM233.68 21.474H231.68V23.474H233.68V21.474ZM233.68 17.442L232.638 15.7344L231.68 16.319V17.442H233.68ZM238.928 14.242L239.969 15.9496L240.559 15.5898L240.801 14.9425L238.928 14.242ZM241.68 6.882V4.882H240.292L239.806 6.18153L241.68 6.882ZM247.76 6.882H249.76V4.882H247.76V6.882ZM247.76 14.306H245.76V16.306H247.76V14.306ZM257.552 14.306H259.552V12.306H257.552V14.306ZM257.552 21.474V23.474H259.552V21.474H257.552ZM247.76 21.474V19.474H245.76V21.474H247.76ZM248.912 41.314L247.583 42.8088L247.607 42.83L247.631 42.8504L248.912 41.314ZM251.92 44.274C253.12 44.274 254.287 44.1538 255.416 43.9084L254.567 39.9996C253.733 40.1808 252.852 40.274 251.92 40.274V44.274ZM255.416 43.9084C256.452 43.6832 257.486 43.4135 258.518 43.0993L257.353 39.2727C256.423 39.5559 255.494 39.7981 254.567 39.9996L255.416 43.9084ZM255.936 41.186V48.29H259.936V41.186H255.936ZM257.166 46.4438C256.306 46.8021 255.166 47.1323 253.714 47.4148L254.477 51.3412C256.097 51.0264 257.517 50.6312 258.705 50.1362L257.166 46.4438ZM253.65 47.4283C252.325 47.7311 250.834 47.89 249.168 47.89V51.89C251.085 51.89 252.879 51.7075 254.541 51.3277L253.65 47.4283ZM249.168 47.89C247.295 47.89 245.682 47.5848 244.295 47.0157L242.776 50.7163C244.717 51.5125 246.858 51.89 249.168 51.89V47.89ZM244.312 47.0227C243.126 46.5234 242.14 45.662 241.354 44.33L237.909 46.362C239.086 48.358 240.703 49.8433 242.759 50.7093L244.312 47.0227ZM241.384 44.3822C240.672 43.0874 240.224 41.12 240.224 38.306H236.224C236.224 41.4654 236.714 44.1913 237.879 46.3098L241.384 44.3822ZM240.224 38.306V21.474H236.224V38.306H240.224ZM238.224 19.474H233.68V23.474H238.224V19.474ZM235.68 21.474V17.442H231.68V21.474H235.68ZM234.721 19.1496L239.969 15.9496L237.886 12.5344L232.638 15.7344L234.721 19.1496ZM240.801 14.9425L243.553 7.58246L239.806 6.18153L237.054 13.5415L240.801 14.9425ZM241.68 8.882H247.76V4.882H241.68V8.882ZM245.76 6.882V14.306H249.76V6.882H245.76ZM247.76 16.306H257.552V12.306H247.76V16.306ZM255.552 14.306V21.474H259.552V14.306H255.552ZM257.552 19.474H247.76V23.474H257.552V19.474ZM245.76 21.474V38.306H249.76V21.474H245.76ZM245.76 38.306C245.76 40.025 246.273 41.6441 247.583 42.8088L250.24 39.8192C250.014 39.6185 249.76 39.2323 249.76 38.306H245.76ZM247.631 42.8504C248.838 43.856 250.329 44.274 251.92 44.274V40.274C251.035 40.274 250.521 40.052 250.192 39.7776L247.631 42.8504Z" fill="#212121" mask="url(#path-1-outside-1_462_630)"/>
</svg>
