<svg width="465" height="111" viewBox="0 0 465 111" fill="none" xmlns="http://www.w3.org/2000/svg">
<mask id="path-1-outside-1_316_190" maskUnits="userSpaceOnUse" x="0" y="0" width="465" height="111" fill="black">
<rect fill="white" width="465" height="111"/>
<path d="M2.14 9.99999H17.74V101H2.14V9.99999ZM31.52 101H11.63V86.57H31.13C35.6367 86.57 39.7967 85.92 43.61 84.62C47.4233 83.32 50.7167 81.37 53.49 78.77C56.35 76.17 58.56 72.92 60.12 69.02C61.7667 65.12 62.59 60.6133 62.59 55.5C62.59 50.3867 61.7667 45.88 60.12 41.98C58.56 38.08 56.35 34.83 53.49 32.23C50.7167 29.63 47.4233 27.68 43.61 26.38C39.7967 25.08 35.6367 24.43 31.13 24.43H11.63V9.99999H31.52C40.7933 9.99999 48.94 11.9067 55.96 15.72C62.98 19.4467 68.44 24.7333 72.34 31.58C76.3267 38.34 78.32 46.3133 78.32 55.5C78.32 64.6867 76.3267 72.7033 72.34 79.55C68.44 86.31 62.98 91.5967 55.96 95.41C48.94 99.1367 40.7933 101 31.52 101ZM102.782 101V87.48H148.672V101H102.782ZM102.782 23.52V9.99999H148.672V23.52H102.782ZM102.782 58.88V45.62H146.072V58.88H102.782ZM93.2923 9.99999H108.372V101H93.2923V9.99999ZM173.54 71.75C175.533 75.2167 177.657 78.2933 179.91 80.98C182.25 83.58 184.807 85.6167 187.58 87.09C190.353 88.4767 193.473 89.17 196.94 89.17C201.1 89.17 204.48 88.0433 207.08 85.79C209.68 83.5367 210.98 80.6333 210.98 77.08C210.98 73.7 210.157 71.0133 208.51 69.02C206.863 66.94 204.567 65.2067 201.62 63.82C198.76 62.3467 195.423 60.9167 191.61 59.53C189.357 58.75 186.843 57.71 184.07 56.41C181.297 55.0233 178.653 53.3333 176.14 51.34C173.627 49.26 171.547 46.7467 169.9 43.8C168.253 40.7667 167.43 37.1267 167.43 32.88C167.43 28.0267 168.687 23.78 171.2 20.14C173.713 16.4133 177.093 13.5533 181.34 11.56C185.673 9.48 190.57 8.44 196.03 8.44C201.403 8.44 206.083 9.39333 210.07 11.3C214.057 13.2067 217.393 15.6333 220.08 18.58C222.853 21.5267 225.02 24.6033 226.58 27.81L214.1 34.83C212.973 32.5767 211.543 30.4967 209.81 28.59C208.077 26.5967 206.04 25.0367 203.7 23.91C201.447 22.6967 198.803 22.09 195.77 22.09C191.523 22.09 188.403 23.0867 186.41 25.08C184.417 26.9867 183.42 29.24 183.42 31.84C183.42 34.18 184.113 36.3033 185.5 38.21C186.973 40.03 189.227 41.7633 192.26 43.41C195.293 45.0567 199.237 46.7467 204.09 48.48C206.777 49.4333 209.463 50.6467 212.15 52.12C214.923 53.5933 217.437 55.4567 219.69 57.71C221.943 59.8767 223.72 62.4333 225.02 65.38C226.407 68.3267 227.1 71.7933 227.1 75.78C227.1 80.0267 226.277 83.84 224.63 87.22C222.983 90.6 220.73 93.46 217.87 95.8C215.01 98.0533 211.76 99.7867 208.12 101C204.567 102.3 200.84 102.95 196.94 102.95C191.567 102.95 186.583 101.91 181.99 99.83C177.483 97.6633 173.54 94.8033 170.16 91.25C166.78 87.6967 164.093 83.84 162.1 79.68L173.54 71.75ZM242.843 9.99999H258.313V101H242.843V9.99999ZM321.934 66.42V53.42H365.744C365.917 60.0933 365.051 66.42 363.144 72.4C361.237 78.2933 358.377 83.5367 354.564 88.13C350.751 92.7233 345.984 96.3633 340.264 99.05C334.631 101.65 328.217 102.95 321.024 102.95C314.177 102.95 307.851 101.823 302.044 99.57C296.237 97.23 291.167 93.9367 286.834 89.69C282.587 85.4433 279.294 80.4167 276.954 74.61C274.614 68.8033 273.444 62.4333 273.444 55.5C273.444 48.5667 274.614 42.24 276.954 36.52C279.381 30.7133 282.717 25.73 286.964 21.57C291.297 17.3233 296.367 14.0733 302.174 11.82C308.067 9.56666 314.437 8.44 321.284 8.44C327.264 8.44 332.681 9.26333 337.534 10.91C342.387 12.47 346.721 14.7667 350.534 17.8C354.434 20.7467 357.727 24.3433 360.414 28.59L347.934 36.91C345.421 32.5767 341.911 29.11 337.404 26.51C332.984 23.91 327.611 22.61 321.284 22.61C315.391 22.61 310.061 23.9967 305.294 26.77C300.527 29.4567 296.714 33.27 293.854 38.21C290.994 43.0633 289.564 48.8267 289.564 55.5C289.564 62.0867 290.951 67.8933 293.724 72.92C296.584 77.86 300.397 81.7167 305.164 84.49C309.931 87.2633 315.304 88.65 321.284 88.65C325.357 88.65 328.997 88.0867 332.204 86.96C335.411 85.8333 338.184 84.23 340.524 82.15C342.864 80.07 344.814 77.6867 346.374 75C347.934 72.3133 349.104 69.4533 349.884 66.42H321.934ZM447.906 9.99999H462.986V105.55L396.556 39.9V101H381.476V5.45L447.906 71.1V9.99999Z"/>
</mask>
<path d="M2.14 9.99999H17.74V101H2.14V9.99999ZM31.52 101H11.63V86.57H31.13C35.6367 86.57 39.7967 85.92 43.61 84.62C47.4233 83.32 50.7167 81.37 53.49 78.77C56.35 76.17 58.56 72.92 60.12 69.02C61.7667 65.12 62.59 60.6133 62.59 55.5C62.59 50.3867 61.7667 45.88 60.12 41.98C58.56 38.08 56.35 34.83 53.49 32.23C50.7167 29.63 47.4233 27.68 43.61 26.38C39.7967 25.08 35.6367 24.43 31.13 24.43H11.63V9.99999H31.52C40.7933 9.99999 48.94 11.9067 55.96 15.72C62.98 19.4467 68.44 24.7333 72.34 31.58C76.3267 38.34 78.32 46.3133 78.32 55.5C78.32 64.6867 76.3267 72.7033 72.34 79.55C68.44 86.31 62.98 91.5967 55.96 95.41C48.94 99.1367 40.7933 101 31.52 101ZM102.782 101V87.48H148.672V101H102.782ZM102.782 23.52V9.99999H148.672V23.52H102.782ZM102.782 58.88V45.62H146.072V58.88H102.782ZM93.2923 9.99999H108.372V101H93.2923V9.99999ZM173.54 71.75C175.533 75.2167 177.657 78.2933 179.91 80.98C182.25 83.58 184.807 85.6167 187.58 87.09C190.353 88.4767 193.473 89.17 196.94 89.17C201.1 89.17 204.48 88.0433 207.08 85.79C209.68 83.5367 210.98 80.6333 210.98 77.08C210.98 73.7 210.157 71.0133 208.51 69.02C206.863 66.94 204.567 65.2067 201.62 63.82C198.76 62.3467 195.423 60.9167 191.61 59.53C189.357 58.75 186.843 57.71 184.07 56.41C181.297 55.0233 178.653 53.3333 176.14 51.34C173.627 49.26 171.547 46.7467 169.9 43.8C168.253 40.7667 167.43 37.1267 167.43 32.88C167.43 28.0267 168.687 23.78 171.2 20.14C173.713 16.4133 177.093 13.5533 181.34 11.56C185.673 9.48 190.57 8.44 196.03 8.44C201.403 8.44 206.083 9.39333 210.07 11.3C214.057 13.2067 217.393 15.6333 220.08 18.58C222.853 21.5267 225.02 24.6033 226.58 27.81L214.1 34.83C212.973 32.5767 211.543 30.4967 209.81 28.59C208.077 26.5967 206.04 25.0367 203.7 23.91C201.447 22.6967 198.803 22.09 195.77 22.09C191.523 22.09 188.403 23.0867 186.41 25.08C184.417 26.9867 183.42 29.24 183.42 31.84C183.42 34.18 184.113 36.3033 185.5 38.21C186.973 40.03 189.227 41.7633 192.26 43.41C195.293 45.0567 199.237 46.7467 204.09 48.48C206.777 49.4333 209.463 50.6467 212.15 52.12C214.923 53.5933 217.437 55.4567 219.69 57.71C221.943 59.8767 223.72 62.4333 225.02 65.38C226.407 68.3267 227.1 71.7933 227.1 75.78C227.1 80.0267 226.277 83.84 224.63 87.22C222.983 90.6 220.73 93.46 217.87 95.8C215.01 98.0533 211.76 99.7867 208.12 101C204.567 102.3 200.84 102.95 196.94 102.95C191.567 102.95 186.583 101.91 181.99 99.83C177.483 97.6633 173.54 94.8033 170.16 91.25C166.78 87.6967 164.093 83.84 162.1 79.68L173.54 71.75ZM242.843 9.99999H258.313V101H242.843V9.99999ZM321.934 66.42V53.42H365.744C365.917 60.0933 365.051 66.42 363.144 72.4C361.237 78.2933 358.377 83.5367 354.564 88.13C350.751 92.7233 345.984 96.3633 340.264 99.05C334.631 101.65 328.217 102.95 321.024 102.95C314.177 102.95 307.851 101.823 302.044 99.57C296.237 97.23 291.167 93.9367 286.834 89.69C282.587 85.4433 279.294 80.4167 276.954 74.61C274.614 68.8033 273.444 62.4333 273.444 55.5C273.444 48.5667 274.614 42.24 276.954 36.52C279.381 30.7133 282.717 25.73 286.964 21.57C291.297 17.3233 296.367 14.0733 302.174 11.82C308.067 9.56666 314.437 8.44 321.284 8.44C327.264 8.44 332.681 9.26333 337.534 10.91C342.387 12.47 346.721 14.7667 350.534 17.8C354.434 20.7467 357.727 24.3433 360.414 28.59L347.934 36.91C345.421 32.5767 341.911 29.11 337.404 26.51C332.984 23.91 327.611 22.61 321.284 22.61C315.391 22.61 310.061 23.9967 305.294 26.77C300.527 29.4567 296.714 33.27 293.854 38.21C290.994 43.0633 289.564 48.8267 289.564 55.5C289.564 62.0867 290.951 67.8933 293.724 72.92C296.584 77.86 300.397 81.7167 305.164 84.49C309.931 87.2633 315.304 88.65 321.284 88.65C325.357 88.65 328.997 88.0867 332.204 86.96C335.411 85.8333 338.184 84.23 340.524 82.15C342.864 80.07 344.814 77.6867 346.374 75C347.934 72.3133 349.104 69.4533 349.884 66.42H321.934ZM447.906 9.99999H462.986V105.55L396.556 39.9V101H381.476V5.45L447.906 71.1V9.99999Z" fill="white"/>
<path d="M2.14 9.99999V7.99999H0.14V9.99999H2.14ZM17.74 9.99999H19.74V7.99999H17.74V9.99999ZM17.74 101V103H19.74V101H17.74ZM2.14 101H0.14V103H2.14V101ZM11.63 101H9.63V103H11.63V101ZM11.63 86.57V84.57H9.63V86.57H11.63ZM43.61 84.62L44.2553 86.513L43.61 84.62ZM53.49 78.77L52.1447 77.2901L52.1333 77.3004L52.1221 77.3109L53.49 78.77ZM60.12 69.02L58.2775 68.2421L58.2701 68.2596L58.2631 68.2772L60.12 69.02ZM60.12 41.98L58.2631 42.7228L58.2701 42.7404L58.2775 42.7579L60.12 41.98ZM53.49 32.23L52.1221 33.6891L52.1333 33.6996L52.1447 33.7099L53.49 32.23ZM43.61 26.38L42.9647 28.273V28.273L43.61 26.38ZM11.63 24.43H9.63V26.43H11.63V24.43ZM11.63 9.99999V7.99999H9.63V9.99999H11.63ZM55.96 15.72L55.0053 17.4774L55.0138 17.482L55.0222 17.4865L55.96 15.72ZM72.34 31.58L70.6022 32.5699L70.6096 32.583L70.6173 32.596L72.34 31.58ZM72.34 79.55L70.6116 78.5436L70.6076 78.5506L72.34 79.55ZM55.96 95.41L56.8978 97.1765L56.9062 97.172L56.9147 97.1674L55.96 95.41ZM2.14 12H17.74V7.99999H2.14V12ZM15.74 9.99999V101H19.74V9.99999H15.74ZM17.74 99H2.14V103H17.74V99ZM4.14 101V9.99999H0.14V101H4.14ZM31.52 99H11.63V103H31.52V99ZM13.63 101V86.57H9.63V101H13.63ZM11.63 88.57H31.13V84.57H11.63V88.57ZM31.13 88.57C35.8304 88.57 40.2112 87.8917 44.2553 86.513L42.9647 82.727C39.3822 83.9483 35.4429 84.57 31.13 84.57V88.57ZM44.2553 86.513C48.3212 85.1269 51.865 83.0349 54.8579 80.2291L52.1221 77.3109C49.5683 79.7051 46.5254 81.5131 42.9647 82.727L44.2553 86.513ZM54.8353 80.2499C57.9385 77.4289 60.3144 73.9192 61.977 69.7628L58.2631 68.2772C56.8056 71.9208 54.7615 74.9111 52.1447 77.2901L54.8353 80.2499ZM61.9625 69.7979C63.7323 65.6062 64.59 60.8263 64.59 55.5H60.59C60.59 60.4004 59.801 64.6338 58.2775 68.2421L61.9625 69.7979ZM64.59 55.5C64.59 50.1737 63.7323 45.3938 61.9625 41.2021L58.2775 42.7579C59.801 46.3662 60.59 50.5996 60.59 55.5H64.59ZM61.977 41.2372C60.3144 37.0808 57.9385 33.5711 54.8354 30.7501L52.1447 33.7099C54.7615 36.0889 56.8056 39.0792 58.2631 42.7228L61.977 41.2372ZM54.8579 30.7709C51.865 27.9651 48.3212 25.8731 44.2553 24.487L42.9647 28.273C46.5254 29.4869 49.5683 31.2949 52.1221 33.6891L54.8579 30.7709ZM44.2554 24.487C40.2112 23.1083 35.8304 22.43 31.13 22.43V26.43C35.4429 26.43 39.3822 27.0517 42.9647 28.273L44.2554 24.487ZM31.13 22.43H11.63V26.43H31.13V22.43ZM13.63 24.43V9.99999H9.63V24.43H13.63ZM11.63 12H31.52V7.99999H11.63V12ZM31.52 12C40.5138 12 48.3224 13.8472 55.0053 17.4774L56.9147 13.9626C49.5576 9.96614 41.0729 7.99999 31.52 7.99999V12ZM55.0222 17.4865C61.7104 21.037 66.8916 26.0557 70.6022 32.5699L74.0778 30.5901C69.9884 23.4109 64.2496 17.8563 56.8978 13.9535L55.0222 17.4865ZM70.6173 32.596C74.3935 38.9991 76.32 46.6091 76.32 55.5H80.32C80.32 46.0176 78.2599 37.6809 74.0627 30.564L70.6173 32.596ZM76.32 55.5C76.32 64.3902 74.3937 72.0483 70.6117 78.5436L74.0684 80.5564C78.2596 73.3583 80.32 64.9831 80.32 55.5H76.32ZM70.6076 78.5506C66.8965 84.9831 61.7092 90.0109 55.0053 93.6526L56.9147 97.1674C64.2508 93.1824 69.9835 87.6369 74.0724 80.5494L70.6076 78.5506ZM55.0222 93.6435C48.3357 97.1931 40.521 99 31.52 99V103C41.0656 103 49.5443 101.08 56.8978 97.1765L55.0222 93.6435ZM102.782 101H100.782V103H102.782V101ZM102.782 87.48V85.48H100.782V87.48H102.782ZM148.672 87.48H150.672V85.48H148.672V87.48ZM148.672 101V103H150.672V101H148.672ZM102.782 23.52H100.782V25.52H102.782V23.52ZM102.782 9.99999V7.99999H100.782V9.99999H102.782ZM148.672 9.99999H150.672V7.99999H148.672V9.99999ZM148.672 23.52V25.52H150.672V23.52H148.672ZM102.782 58.88H100.782V60.88H102.782V58.88ZM102.782 45.62V43.62H100.782V45.62H102.782ZM146.072 45.62H148.072V43.62H146.072V45.62ZM146.072 58.88V60.88H148.072V58.88H146.072ZM93.2923 9.99999V7.99999H91.2923V9.99999H93.2923ZM108.372 9.99999H110.372V7.99999H108.372V9.99999ZM108.372 101V103H110.372V101H108.372ZM93.2923 101H91.2923V103H93.2923V101ZM104.782 101V87.48H100.782V101H104.782ZM102.782 89.48H148.672V85.48H102.782V89.48ZM146.672 87.48V101H150.672V87.48H146.672ZM148.672 99H102.782V103H148.672V99ZM104.782 23.52V9.99999H100.782V23.52H104.782ZM102.782 12H148.672V7.99999H102.782V12ZM146.672 9.99999V23.52H150.672V9.99999H146.672ZM148.672 21.52H102.782V25.52H148.672V21.52ZM104.782 58.88V45.62H100.782V58.88H104.782ZM102.782 47.62H146.072V43.62H102.782V47.62ZM144.072 45.62V58.88H148.072V45.62H144.072ZM146.072 56.88H102.782V60.88H146.072V56.88ZM93.2923 12H108.372V7.99999H93.2923V12ZM106.372 9.99999V101H110.372V9.99999H106.372ZM108.372 99H93.2923V103H108.372V99ZM95.2923 101V9.99999H91.2923V101H95.2923ZM173.54 71.75L175.274 70.7531L174.189 68.8666L172.401 70.1063L173.54 71.75ZM179.91 80.98L178.378 82.2652L178.4 82.292L178.423 82.3179L179.91 80.98ZM187.58 87.09L186.642 88.8562L186.663 88.8678L186.686 88.8789L187.58 87.09ZM208.51 69.02L206.942 70.2614L206.955 70.2777L206.968 70.2938L208.51 69.02ZM201.62 63.82L200.704 65.5979L200.736 65.6144L200.768 65.6296L201.62 63.82ZM191.61 59.53L192.293 57.6504L192.279 57.6451L192.264 57.64L191.61 59.53ZM184.07 56.41L183.175 58.1989L183.198 58.2102L183.221 58.2209L184.07 56.41ZM176.14 51.34L174.865 52.8808L174.881 52.8941L174.897 52.907L176.14 51.34ZM169.9 43.8L168.142 44.7542L168.148 44.7649L168.154 44.7756L169.9 43.8ZM171.2 20.14L172.846 21.2764L172.852 21.2674L172.858 21.2583L171.2 20.14ZM181.34 11.56L182.19 13.3705L182.198 13.3668L182.205 13.363L181.34 11.56ZM210.07 11.3L210.933 9.49572L210.07 11.3ZM220.08 18.58L218.602 19.9275L218.613 19.9392L218.624 19.9507L220.08 18.58ZM226.58 27.81L227.56 29.5531L229.203 28.6294L228.378 26.9351L226.58 27.81ZM214.1 34.83L212.311 35.7244L213.25 37.6027L215.08 36.5732L214.1 34.83ZM209.81 28.59L208.301 29.9024L208.315 29.919L208.33 29.9353L209.81 28.59ZM203.7 23.91L202.752 25.6709L202.792 25.6924L202.832 25.712L203.7 23.91ZM186.41 25.08L187.792 26.5253L187.808 26.5099L187.824 26.4942L186.41 25.08ZM185.5 38.21L183.882 39.3863L183.913 39.4282L183.945 39.4684L185.5 38.21ZM192.26 43.41L193.214 41.6523L192.26 43.41ZM204.09 48.48L203.417 50.3635L203.421 50.3649L204.09 48.48ZM212.15 52.12L211.188 53.8736L211.2 53.88L211.212 53.8862L212.15 52.12ZM219.69 57.71L218.276 59.1242L218.29 59.1381L218.304 59.1517L219.69 57.71ZM225.02 65.38L223.19 66.1873L223.2 66.2096L223.21 66.2316L225.02 65.38ZM224.63 87.22L222.832 86.3441L224.63 87.22ZM217.87 95.8L219.108 97.371L219.122 97.3596L219.136 97.3479L217.87 95.8ZM208.12 101L207.487 99.1026L207.46 99.1118L207.433 99.1218L208.12 101ZM181.99 99.83L181.123 101.633L181.144 101.642L181.165 101.652L181.99 99.83ZM170.16 91.25L168.711 92.6284L170.16 91.25ZM162.1 79.68L160.961 78.0363L159.56 79.0072L160.296 80.5442L162.1 79.68ZM171.806 72.7469C173.85 76.3016 176.039 79.4771 178.378 82.2652L181.442 79.6948C179.274 77.1096 177.217 74.1318 175.274 70.7531L171.806 72.7469ZM178.423 82.3179C180.902 85.072 183.64 87.2615 186.642 88.8562L188.518 85.3238C185.973 83.9718 183.598 82.088 181.397 79.6421L178.423 82.3179ZM186.686 88.8789C189.768 90.42 193.2 91.17 196.94 91.17V87.17C193.747 87.17 190.939 86.5333 188.474 85.3011L186.686 88.8789ZM196.94 91.17C201.476 91.17 205.354 89.9325 208.39 87.3014L205.77 84.2786C203.606 86.1541 200.724 87.17 196.94 87.17V91.17ZM208.39 87.3014C211.444 84.6541 212.98 81.1916 212.98 77.08H208.98C208.98 80.0751 207.916 82.4192 205.77 84.2786L208.39 87.3014ZM212.98 77.08C212.98 73.3797 212.075 70.1956 210.052 67.7462L206.968 70.2938C208.238 71.8311 208.98 74.0203 208.98 77.08H212.98ZM210.078 67.7786C208.201 65.4075 205.635 63.4992 202.472 62.0104L200.768 65.6296C203.498 66.9142 205.526 68.4725 206.942 70.2614L210.078 67.7786ZM202.536 62.042C199.584 60.5215 196.167 59.0589 192.293 57.6504L190.926 61.4096C194.68 62.7744 197.936 64.1718 200.704 65.5979L202.536 62.042ZM192.264 57.64C190.093 56.8883 187.645 55.8772 184.919 54.5991L183.221 58.2209C186.041 59.5428 188.621 60.6117 190.956 61.42L192.264 57.64ZM184.964 54.6211C182.319 53.2983 179.792 51.6835 177.383 49.773L174.897 52.907C177.515 54.9831 180.275 56.7484 183.175 58.1989L184.964 54.6211ZM177.415 49.7992C175.099 47.8823 173.176 45.5628 171.646 42.8244L168.154 44.7756C169.917 47.9306 172.154 50.6377 174.865 52.8808L177.415 49.7992ZM171.658 42.8458C170.203 40.1655 169.43 36.8692 169.43 32.88H165.43C165.43 37.3841 166.304 41.3678 168.142 44.7542L171.658 42.8458ZM169.43 32.88C169.43 28.3913 170.585 24.5499 172.846 21.2764L169.554 19.0036C166.788 23.0101 165.43 27.662 165.43 32.88H169.43ZM172.858 21.2583C175.16 17.8445 178.255 15.2173 182.19 13.3705L180.49 9.74952C175.931 11.8893 172.266 14.9822 169.542 19.0217L172.858 21.2583ZM182.205 13.363C186.234 11.4293 190.829 10.44 196.03 10.44V6.44C190.311 6.44 185.112 7.53072 180.474 9.75695L182.205 13.363ZM196.03 10.44C201.168 10.44 205.542 11.3512 209.207 13.1043L210.933 9.49572C206.625 7.43541 201.639 6.44 196.03 6.44V10.44ZM209.207 13.1043C212.986 14.9118 216.107 17.1909 218.602 19.9275L221.558 17.2325C218.68 14.0758 215.127 11.5016 210.933 9.49572L209.207 13.1043ZM218.624 19.9507C221.277 22.7698 223.321 25.6824 224.781 28.6849L228.378 26.9351C226.719 23.5242 224.43 20.2835 221.536 17.2093L218.624 19.9507ZM225.599 26.0668L213.119 33.0868L215.08 36.5732L227.56 29.5531L225.599 26.0668ZM215.889 33.9356C214.678 31.5148 213.143 29.2837 211.29 27.2446L208.33 29.9353C209.943 31.7097 211.268 33.6386 212.311 35.7244L215.889 33.9356ZM211.319 27.2776C209.411 25.0828 207.157 23.3546 204.568 22.108L202.832 25.712C204.923 26.7187 206.743 28.1105 208.301 29.9024L211.319 27.2776ZM204.648 22.1491C202.054 20.7521 199.073 20.09 195.77 20.09V24.09C198.534 24.09 200.839 24.6412 202.752 25.6709L204.648 22.1491ZM195.77 20.09C191.258 20.09 187.517 21.1443 184.996 23.6658L187.824 26.4942C189.289 25.029 191.789 24.09 195.77 24.09V20.09ZM185.027 23.6347C182.667 25.893 181.42 28.6581 181.42 31.84H185.42C185.42 29.8219 186.167 28.0803 187.792 26.5253L185.027 23.6347ZM181.42 31.84C181.42 34.6061 182.249 37.1406 183.882 39.3863L187.117 37.0337C185.977 35.4661 185.42 33.7539 185.42 31.84H181.42ZM183.945 39.4684C185.643 41.5655 188.141 43.4498 191.306 45.1677L193.214 41.6523C190.312 40.0768 188.303 38.4945 187.054 36.9516L183.945 39.4684ZM191.306 45.1677C194.462 46.8811 198.509 48.6106 203.417 50.3635L204.763 46.5965C199.964 44.8827 196.125 43.2323 193.214 41.6523L191.306 45.1677ZM203.421 50.3649C206 51.2798 208.589 52.448 211.188 53.8736L213.112 50.3664C210.338 48.8453 207.554 47.5869 204.759 46.5951L203.421 50.3649ZM211.212 53.8862C213.807 55.2651 216.161 57.0091 218.276 59.1242L221.104 56.2958C218.713 53.9043 216.039 51.9216 213.088 50.3538L211.212 53.8862ZM218.304 59.1517C220.364 61.1323 221.992 63.4716 223.19 66.1873L226.85 64.5727C225.448 61.3951 223.523 58.6211 221.076 56.2683L218.304 59.1517ZM223.21 66.2316C224.447 68.859 225.1 72.0231 225.1 75.78H229.1C229.1 71.5636 228.366 67.7943 226.83 64.5284L223.21 66.2316ZM225.1 75.78C225.1 79.7627 224.329 83.2704 222.832 86.3441L226.428 88.0959C228.224 84.4096 229.1 80.2906 229.1 75.78H225.1ZM222.832 86.3441C221.31 89.469 219.236 92.0983 216.603 94.2521L219.136 97.3479C222.224 94.8217 224.657 91.731 226.428 88.0959L222.832 86.3441ZM216.632 94.229C213.963 96.3319 210.92 97.9584 207.487 99.1026L208.752 102.897C212.6 101.615 216.057 99.7748 219.108 97.371L216.632 94.229ZM207.433 99.1218C204.106 100.339 200.613 100.95 196.94 100.95V104.95C201.067 104.95 205.027 104.261 208.807 102.878L207.433 99.1218ZM196.94 100.95C191.832 100.95 187.132 99.9631 182.815 98.0081L181.165 101.652C186.034 103.857 191.301 104.95 196.94 104.95V100.95ZM182.857 98.0275C178.564 95.9637 174.819 93.246 171.609 89.8716L168.711 92.6284C172.261 96.3607 176.403 99.363 181.123 101.633L182.857 98.0275ZM171.609 89.8716C168.364 86.4604 165.801 82.7753 163.904 78.8158L160.296 80.5442C162.386 84.9047 165.196 88.9329 168.711 92.6284L171.609 89.8716ZM163.239 81.3237L174.679 73.3937L172.401 70.1063L160.961 78.0363L163.239 81.3237ZM242.843 9.99999V7.99999H240.843V9.99999H242.843ZM258.313 9.99999H260.313V7.99999H258.313V9.99999ZM258.313 101V103H260.313V101H258.313ZM242.843 101H240.843V103H242.843V101ZM242.843 12H258.313V7.99999H242.843V12ZM256.313 9.99999V101H260.313V9.99999H256.313ZM258.313 99H242.843V103H258.313V99ZM244.843 101V9.99999H240.843V101H244.843ZM321.934 66.42H319.934V68.42H321.934V66.42ZM321.934 53.42V51.42H319.934V53.42H321.934ZM365.744 53.42L367.743 53.3681L367.693 51.42H365.744V53.42ZM363.144 72.4L365.047 73.0156L365.049 73.0075L363.144 72.4ZM354.564 88.13L356.103 89.4075L354.564 88.13ZM340.264 99.05L341.102 100.866L341.114 100.86L340.264 99.05ZM302.044 99.57L301.296 101.425L301.308 101.43L301.32 101.435L302.044 99.57ZM286.834 89.69L285.42 91.1042L285.427 91.1114L285.434 91.1184L286.834 89.69ZM276.954 74.61L275.099 75.3576L276.954 74.61ZM276.954 36.52L275.109 35.7488L275.106 35.7558L275.103 35.7627L276.954 36.52ZM286.964 21.57L288.363 22.9987L288.364 22.9984L286.964 21.57ZM302.174 11.82L301.46 9.95187L301.45 9.95546L302.174 11.82ZM337.534 10.91L336.891 12.804L336.907 12.8091L336.922 12.8141L337.534 10.91ZM350.534 17.8L349.289 19.3652L349.308 19.3807L349.328 19.3957L350.534 17.8ZM360.414 28.59L361.523 30.2541L363.148 29.1709L362.104 27.5207L360.414 28.59ZM347.934 36.91L346.204 37.9134L347.272 39.755L349.043 38.5741L347.934 36.91ZM337.404 26.51L336.39 28.2339L336.397 28.2381L336.404 28.2424L337.404 26.51ZM305.294 26.77L306.276 28.5123L306.288 28.5056L306.3 28.4987L305.294 26.77ZM293.854 38.21L295.577 39.2254L295.581 39.2187L295.585 39.2121L293.854 38.21ZM293.724 72.92L291.973 73.8862L291.983 73.9042L291.993 73.9221L293.724 72.92ZM305.164 84.49L304.158 86.2187L305.164 84.49ZM332.204 86.96L332.867 88.8469L332.204 86.96ZM346.374 75L348.103 76.0043L346.374 75ZM349.884 66.42L351.821 66.9181L352.463 64.42H349.884V66.42ZM323.934 66.42V53.42H319.934V66.42H323.934ZM321.934 55.42H365.744V51.42H321.934V55.42ZM363.745 53.4719C363.912 59.936 363.073 66.0387 361.238 71.7924L365.049 73.0075C367.028 66.8013 367.922 60.2506 367.743 53.3681L363.745 53.4719ZM361.241 71.7844C359.41 77.4452 356.67 82.462 353.025 86.8525L356.103 89.4075C360.084 84.6113 363.065 79.1415 365.047 73.0156L361.241 71.7844ZM353.025 86.8525C349.41 91.2067 344.884 94.6705 339.414 97.2397L341.114 100.86C347.084 98.0562 352.091 94.24 356.103 89.4075L353.025 86.8525ZM339.426 97.2341C334.094 99.6949 327.974 100.95 321.024 100.95V104.95C328.461 104.95 335.167 103.605 341.102 100.866L339.426 97.2341ZM321.024 100.95C314.4 100.95 308.322 99.8608 302.767 97.7055L301.32 101.435C307.38 103.786 313.954 104.95 321.024 104.95V100.95ZM302.791 97.715C297.22 95.4698 292.374 92.3188 288.234 88.2616L285.434 91.1184C289.961 95.5546 295.254 98.9902 301.296 101.425L302.791 97.715ZM288.248 88.2758C284.2 84.2275 281.053 79.4303 278.809 73.8624L275.099 75.3576C277.535 81.403 280.975 86.6592 285.42 91.1042L288.248 88.2758ZM278.809 73.8624C276.574 68.3177 275.444 62.2047 275.444 55.5H271.444C271.444 62.662 272.653 69.289 275.099 75.3576L278.809 73.8624ZM275.444 55.5C275.444 48.7948 276.575 42.7293 278.805 37.2773L275.103 35.7627C272.653 41.7507 271.444 48.3385 271.444 55.5H275.444ZM278.799 37.2912C281.129 31.7166 284.319 26.9607 288.363 22.9987L285.564 20.1413C281.116 24.4993 277.632 29.7101 275.109 35.7488L278.799 37.2912ZM288.364 22.9984C292.498 18.9465 297.337 15.8425 302.897 13.6845L301.45 9.95546C295.398 12.3042 290.096 15.7001 285.564 20.1416L288.364 22.9984ZM302.888 13.6881C308.535 11.5291 314.661 10.44 321.284 10.44V6.44C314.214 6.44 307.6 7.60421 301.46 9.95189L302.888 13.6881ZM321.284 10.44C327.081 10.44 332.276 11.2381 336.891 12.804L338.177 9.01604C333.085 7.28855 327.447 6.44 321.284 6.44V10.44ZM336.922 12.8141C341.556 14.3037 345.673 16.489 349.289 19.3652L351.779 16.2348C347.768 13.0444 343.218 10.6363 338.146 9.00594L336.922 12.8141ZM349.328 19.3957C353.031 22.1934 356.162 25.61 358.724 29.6593L362.104 27.5207C359.293 23.0767 355.837 19.2999 351.74 16.2043L349.328 19.3957ZM359.305 26.9259L346.824 35.2459L349.043 38.5741L361.523 30.2541L359.305 26.9259ZM349.664 35.9066C346.968 31.2585 343.201 27.5455 338.403 24.7776L336.404 28.2424C340.62 30.6745 343.873 33.8948 346.204 37.9134L349.664 35.9066ZM338.418 24.7861C333.626 21.9675 327.884 20.61 321.284 20.61V24.61C327.337 24.61 332.342 25.8525 336.39 28.2339L338.418 24.7861ZM321.284 20.61C315.062 20.61 309.381 22.078 304.288 25.0413L306.3 28.4987C310.74 25.9153 315.719 24.61 321.284 24.61V20.61ZM304.312 25.0277C299.22 27.8975 295.154 31.9727 292.123 37.2079L295.585 39.2121C298.274 34.5673 301.834 31.0158 306.276 28.5123L304.312 25.0277ZM292.131 37.1946C289.059 42.4082 287.564 48.5359 287.564 55.5H291.564C291.564 49.1174 292.929 43.7185 295.577 39.2254L292.131 37.1946ZM287.564 55.5C287.564 62.3743 289.013 68.5225 291.973 73.8862L295.475 71.9538C292.888 67.2642 291.564 61.7991 291.564 55.5H287.564ZM291.993 73.9221C295.021 79.1522 299.08 83.2641 304.158 86.2187L306.17 82.7613C301.715 80.1693 298.147 76.5678 295.455 71.9179L291.993 73.9221ZM304.158 86.2187C309.256 89.1846 314.981 90.65 321.284 90.65V86.65C315.626 86.65 310.605 85.3421 306.17 82.7613L304.158 86.2187ZM321.284 90.65C325.54 90.65 329.41 90.0616 332.867 88.8469L331.541 85.0731C328.585 86.1117 325.175 86.65 321.284 86.65V90.65ZM332.867 88.8469C336.298 87.6415 339.302 85.9118 341.853 83.6448L339.195 80.6552C337.066 82.5482 334.523 84.0252 331.541 85.0731L332.867 88.8469ZM341.853 83.6448C344.35 81.4247 346.436 78.8762 348.103 76.0043L344.644 73.9957C343.192 76.4972 341.378 78.7152 339.195 80.6552L341.853 83.6448ZM348.103 76.0043C349.756 73.1579 350.996 70.1274 351.821 66.9181L347.947 65.9219C347.212 68.7793 346.112 71.4688 344.644 73.9957L348.103 76.0043ZM349.884 64.42H321.934V68.42H349.884V64.42ZM447.906 9.99999V7.99999H445.906V9.99999H447.906ZM462.986 9.99999H464.986V7.99999H462.986V9.99999ZM462.986 105.55L461.58 106.973L464.986 110.338V105.55H462.986ZM396.556 39.9L397.962 38.4775L394.556 35.1116V39.9H396.556ZM396.556 101V103H398.556V101H396.556ZM381.476 101H379.476V103H381.476V101ZM381.476 5.45L382.882 4.02746L379.476 0.66161V5.45H381.476ZM447.906 71.1L446.5 72.5225L449.906 75.8884V71.1H447.906ZM447.906 12H462.986V7.99999H447.906V12ZM460.986 9.99999V105.55H464.986V9.99999H460.986ZM464.392 104.127L397.962 38.4775L395.15 41.3225L461.58 106.973L464.392 104.127ZM394.556 39.9V101H398.556V39.9H394.556ZM396.556 99H381.476V103H396.556V99ZM383.476 101V5.45H379.476V101H383.476ZM380.07 6.87254L446.5 72.5225L449.312 69.6775L382.882 4.02746L380.07 6.87254ZM449.906 71.1V9.99999H445.906V71.1H449.906Z" fill="#212121" mask="url(#path-1-outside-1_316_190)"/>
</svg>
