<svg width="544" height="249" viewBox="0 0 544 249" fill="none" xmlns="http://www.w3.org/2000/svg">
<mask id="path-1-outside-1_571_1041" maskUnits="userSpaceOnUse" x="8" y="138" width="465" height="111" fill="black">
<rect fill="white" x="8" y="138" width="465" height="111"/>
<path d="M10.14 148H25.74V239H10.14V148ZM39.52 239H19.63V224.57H39.13C43.6367 224.57 47.7967 223.92 51.61 222.62C55.4233 221.32 58.7167 219.37 61.49 216.77C64.35 214.17 66.56 210.92 68.12 207.02C69.7667 203.12 70.59 198.613 70.59 193.5C70.59 188.387 69.7667 183.88 68.12 179.98C66.56 176.08 64.35 172.83 61.49 170.23C58.7167 167.63 55.4233 165.68 51.61 164.38C47.7967 163.08 43.6367 162.43 39.13 162.43H19.63V148H39.52C48.7933 148 56.94 149.907 63.96 153.72C70.98 157.447 76.44 162.733 80.34 169.58C84.3267 176.34 86.32 184.313 86.32 193.5C86.32 202.687 84.3267 210.703 80.34 217.55C76.44 224.31 70.98 229.597 63.96 233.41C56.94 237.137 48.7933 239 39.52 239ZM110.782 239V225.48H156.672V239H110.782ZM110.782 161.52V148H156.672V161.52H110.782ZM110.782 196.88V183.62H154.072V196.88H110.782ZM101.292 148H116.372V239H101.292V148ZM181.54 209.75C183.533 213.217 185.657 216.293 187.91 218.98C190.25 221.58 192.807 223.617 195.58 225.09C198.353 226.477 201.473 227.17 204.94 227.17C209.1 227.17 212.48 226.043 215.08 223.79C217.68 221.537 218.98 218.633 218.98 215.08C218.98 211.7 218.157 209.013 216.51 207.02C214.863 204.94 212.567 203.207 209.62 201.82C206.76 200.347 203.423 198.917 199.61 197.53C197.357 196.75 194.843 195.71 192.07 194.41C189.297 193.023 186.653 191.333 184.14 189.34C181.627 187.26 179.547 184.747 177.9 181.8C176.253 178.767 175.43 175.127 175.43 170.88C175.43 166.027 176.687 161.78 179.2 158.14C181.713 154.413 185.093 151.553 189.34 149.56C193.673 147.48 198.57 146.44 204.03 146.44C209.403 146.44 214.083 147.393 218.07 149.3C222.057 151.207 225.393 153.633 228.08 156.58C230.853 159.527 233.02 162.603 234.58 165.81L222.1 172.83C220.973 170.577 219.543 168.497 217.81 166.59C216.077 164.597 214.04 163.037 211.7 161.91C209.447 160.697 206.803 160.09 203.77 160.09C199.523 160.09 196.403 161.087 194.41 163.08C192.417 164.987 191.42 167.24 191.42 169.84C191.42 172.18 192.113 174.303 193.5 176.21C194.973 178.03 197.227 179.763 200.26 181.41C203.293 183.057 207.237 184.747 212.09 186.48C214.777 187.433 217.463 188.647 220.15 190.12C222.923 191.593 225.437 193.457 227.69 195.71C229.943 197.877 231.72 200.433 233.02 203.38C234.407 206.327 235.1 209.793 235.1 213.78C235.1 218.027 234.277 221.84 232.63 225.22C230.983 228.6 228.73 231.46 225.87 233.8C223.01 236.053 219.76 237.787 216.12 239C212.567 240.3 208.84 240.95 204.94 240.95C199.567 240.95 194.583 239.91 189.99 237.83C185.483 235.663 181.54 232.803 178.16 229.25C174.78 225.697 172.093 221.84 170.1 217.68L181.54 209.75ZM250.843 148H266.313V239H250.843V148ZM329.934 204.42V191.42H373.744C373.917 198.093 373.051 204.42 371.144 210.4C369.237 216.293 366.377 221.537 362.564 226.13C358.751 230.723 353.984 234.363 348.264 237.05C342.631 239.65 336.217 240.95 329.024 240.95C322.177 240.95 315.851 239.823 310.044 237.57C304.237 235.23 299.167 231.937 294.834 227.69C290.587 223.443 287.294 218.417 284.954 212.61C282.614 206.803 281.444 200.433 281.444 193.5C281.444 186.567 282.614 180.24 284.954 174.52C287.381 168.713 290.717 163.73 294.964 159.57C299.297 155.323 304.367 152.073 310.174 149.82C316.067 147.567 322.437 146.44 329.284 146.44C335.264 146.44 340.681 147.263 345.534 148.91C350.387 150.47 354.721 152.767 358.534 155.8C362.434 158.747 365.727 162.343 368.414 166.59L355.934 174.91C353.421 170.577 349.911 167.11 345.404 164.51C340.984 161.91 335.611 160.61 329.284 160.61C323.391 160.61 318.061 161.997 313.294 164.77C308.527 167.457 304.714 171.27 301.854 176.21C298.994 181.063 297.564 186.827 297.564 193.5C297.564 200.087 298.951 205.893 301.724 210.92C304.584 215.86 308.397 219.717 313.164 222.49C317.931 225.263 323.304 226.65 329.284 226.65C333.357 226.65 336.997 226.087 340.204 224.96C343.411 223.833 346.184 222.23 348.524 220.15C350.864 218.07 352.814 215.687 354.374 213C355.934 210.313 357.104 207.453 357.884 204.42H329.934ZM455.906 148H470.986V243.55L404.556 177.9V239H389.476V143.45L455.906 209.1V148Z"/>
</mask>
<path d="M10.14 148H25.74V239H10.14V148ZM39.52 239H19.63V224.57H39.13C43.6367 224.57 47.7967 223.92 51.61 222.62C55.4233 221.32 58.7167 219.37 61.49 216.77C64.35 214.17 66.56 210.92 68.12 207.02C69.7667 203.12 70.59 198.613 70.59 193.5C70.59 188.387 69.7667 183.88 68.12 179.98C66.56 176.08 64.35 172.83 61.49 170.23C58.7167 167.63 55.4233 165.68 51.61 164.38C47.7967 163.08 43.6367 162.43 39.13 162.43H19.63V148H39.52C48.7933 148 56.94 149.907 63.96 153.72C70.98 157.447 76.44 162.733 80.34 169.58C84.3267 176.34 86.32 184.313 86.32 193.5C86.32 202.687 84.3267 210.703 80.34 217.55C76.44 224.31 70.98 229.597 63.96 233.41C56.94 237.137 48.7933 239 39.52 239ZM110.782 239V225.48H156.672V239H110.782ZM110.782 161.52V148H156.672V161.52H110.782ZM110.782 196.88V183.62H154.072V196.88H110.782ZM101.292 148H116.372V239H101.292V148ZM181.54 209.75C183.533 213.217 185.657 216.293 187.91 218.98C190.25 221.58 192.807 223.617 195.58 225.09C198.353 226.477 201.473 227.17 204.94 227.17C209.1 227.17 212.48 226.043 215.08 223.79C217.68 221.537 218.98 218.633 218.98 215.08C218.98 211.7 218.157 209.013 216.51 207.02C214.863 204.94 212.567 203.207 209.62 201.82C206.76 200.347 203.423 198.917 199.61 197.53C197.357 196.75 194.843 195.71 192.07 194.41C189.297 193.023 186.653 191.333 184.14 189.34C181.627 187.26 179.547 184.747 177.9 181.8C176.253 178.767 175.43 175.127 175.43 170.88C175.43 166.027 176.687 161.78 179.2 158.14C181.713 154.413 185.093 151.553 189.34 149.56C193.673 147.48 198.57 146.44 204.03 146.44C209.403 146.44 214.083 147.393 218.07 149.3C222.057 151.207 225.393 153.633 228.08 156.58C230.853 159.527 233.02 162.603 234.58 165.81L222.1 172.83C220.973 170.577 219.543 168.497 217.81 166.59C216.077 164.597 214.04 163.037 211.7 161.91C209.447 160.697 206.803 160.09 203.77 160.09C199.523 160.09 196.403 161.087 194.41 163.08C192.417 164.987 191.42 167.24 191.42 169.84C191.42 172.18 192.113 174.303 193.5 176.21C194.973 178.03 197.227 179.763 200.26 181.41C203.293 183.057 207.237 184.747 212.09 186.48C214.777 187.433 217.463 188.647 220.15 190.12C222.923 191.593 225.437 193.457 227.69 195.71C229.943 197.877 231.72 200.433 233.02 203.38C234.407 206.327 235.1 209.793 235.1 213.78C235.1 218.027 234.277 221.84 232.63 225.22C230.983 228.6 228.73 231.46 225.87 233.8C223.01 236.053 219.76 237.787 216.12 239C212.567 240.3 208.84 240.95 204.94 240.95C199.567 240.95 194.583 239.91 189.99 237.83C185.483 235.663 181.54 232.803 178.16 229.25C174.78 225.697 172.093 221.84 170.1 217.68L181.54 209.75ZM250.843 148H266.313V239H250.843V148ZM329.934 204.42V191.42H373.744C373.917 198.093 373.051 204.42 371.144 210.4C369.237 216.293 366.377 221.537 362.564 226.13C358.751 230.723 353.984 234.363 348.264 237.05C342.631 239.65 336.217 240.95 329.024 240.95C322.177 240.95 315.851 239.823 310.044 237.57C304.237 235.23 299.167 231.937 294.834 227.69C290.587 223.443 287.294 218.417 284.954 212.61C282.614 206.803 281.444 200.433 281.444 193.5C281.444 186.567 282.614 180.24 284.954 174.52C287.381 168.713 290.717 163.73 294.964 159.57C299.297 155.323 304.367 152.073 310.174 149.82C316.067 147.567 322.437 146.44 329.284 146.44C335.264 146.44 340.681 147.263 345.534 148.91C350.387 150.47 354.721 152.767 358.534 155.8C362.434 158.747 365.727 162.343 368.414 166.59L355.934 174.91C353.421 170.577 349.911 167.11 345.404 164.51C340.984 161.91 335.611 160.61 329.284 160.61C323.391 160.61 318.061 161.997 313.294 164.77C308.527 167.457 304.714 171.27 301.854 176.21C298.994 181.063 297.564 186.827 297.564 193.5C297.564 200.087 298.951 205.893 301.724 210.92C304.584 215.86 308.397 219.717 313.164 222.49C317.931 225.263 323.304 226.65 329.284 226.65C333.357 226.65 336.997 226.087 340.204 224.96C343.411 223.833 346.184 222.23 348.524 220.15C350.864 218.07 352.814 215.687 354.374 213C355.934 210.313 357.104 207.453 357.884 204.42H329.934ZM455.906 148H470.986V243.55L404.556 177.9V239H389.476V143.45L455.906 209.1V148Z" fill="white"/>
<path d="M10.14 148V146H8.14V148H10.14ZM25.74 148H27.74V146H25.74V148ZM25.74 239V241H27.74V239H25.74ZM10.14 239H8.14V241H10.14V239ZM19.63 239H17.63V241H19.63V239ZM19.63 224.57V222.57H17.63V224.57H19.63ZM51.61 222.62L52.2553 224.513L52.2553 224.513L51.61 222.62ZM61.49 216.77L60.1447 215.29L60.1333 215.3L60.1221 215.311L61.49 216.77ZM68.12 207.02L66.2775 206.242L66.2701 206.26L66.2631 206.277L68.12 207.02ZM68.12 179.98L66.2631 180.723L66.2701 180.74L66.2775 180.758L68.12 179.98ZM61.49 170.23L60.1221 171.689L60.1333 171.7L60.1447 171.71L61.49 170.23ZM51.61 164.38L50.9647 166.273L50.9647 166.273L51.61 164.38ZM19.63 162.43H17.63V164.43H19.63V162.43ZM19.63 148V146H17.63V148H19.63ZM63.96 153.72L63.0053 155.477L63.0138 155.482L63.0222 155.487L63.96 153.72ZM80.34 169.58L78.6022 170.57L78.6096 170.583L78.6173 170.596L80.34 169.58ZM80.34 217.55L78.6116 216.544L78.6076 216.551L80.34 217.55ZM63.96 233.41L64.8978 235.177L64.9062 235.172L64.9147 235.167L63.96 233.41ZM10.14 150H25.74V146H10.14V150ZM23.74 148V239H27.74V148H23.74ZM25.74 237H10.14V241H25.74V237ZM12.14 239V148H8.14V239H12.14ZM39.52 237H19.63V241H39.52V237ZM21.63 239V224.57H17.63V239H21.63ZM19.63 226.57H39.13V222.57H19.63V226.57ZM39.13 226.57C43.8304 226.57 48.2112 225.892 52.2553 224.513L50.9647 220.727C47.3822 221.948 43.4429 222.57 39.13 222.57V226.57ZM52.2553 224.513C56.3212 223.127 59.865 221.035 62.8579 218.229L60.1221 215.311C57.5683 217.705 54.5254 219.513 50.9647 220.727L52.2553 224.513ZM62.8353 218.25C65.9385 215.429 68.3144 211.919 69.977 207.763L66.2631 206.277C64.8056 209.921 62.7615 212.911 60.1447 215.29L62.8353 218.25ZM69.9625 207.798C71.7323 203.606 72.59 198.826 72.59 193.5H68.59C68.59 198.4 67.801 202.634 66.2775 206.242L69.9625 207.798ZM72.59 193.5C72.59 188.174 71.7323 183.394 69.9625 179.202L66.2775 180.758C67.801 184.366 68.59 188.6 68.59 193.5H72.59ZM69.977 179.237C68.3144 175.081 65.9385 171.571 62.8353 168.75L60.1447 171.71C62.7615 174.089 64.8056 177.079 66.2631 180.723L69.977 179.237ZM62.8579 168.771C59.865 165.965 56.3212 163.873 52.2553 162.487L50.9647 166.273C54.5254 167.487 57.5683 169.295 60.1221 171.689L62.8579 168.771ZM52.2554 162.487C48.2112 161.108 43.8304 160.43 39.13 160.43V164.43C43.4429 164.43 47.3822 165.052 50.9647 166.273L52.2554 162.487ZM39.13 160.43H19.63V164.43H39.13V160.43ZM21.63 162.43V148H17.63V162.43H21.63ZM19.63 150H39.52V146H19.63V150ZM39.52 150C48.5138 150 56.3224 151.847 63.0053 155.477L64.9147 151.963C57.5576 147.966 49.0729 146 39.52 146V150ZM63.0222 155.487C69.7104 159.037 74.8916 164.056 78.6022 170.57L82.0778 168.59C77.9884 161.411 72.2496 155.856 64.8978 151.953L63.0222 155.487ZM78.6173 170.596C82.3935 176.999 84.32 184.609 84.32 193.5H88.32C88.32 184.018 86.2599 175.681 82.0627 168.564L78.6173 170.596ZM84.32 193.5C84.32 202.39 82.3937 210.048 78.6117 216.544L82.0684 218.556C86.2596 211.358 88.32 202.983 88.32 193.5H84.32ZM78.6076 216.551C74.8965 222.983 69.7092 228.011 63.0053 231.653L64.9147 235.167C72.2508 231.182 77.9835 225.637 82.0724 218.549L78.6076 216.551ZM63.0222 231.643C56.3357 235.193 48.521 237 39.52 237V241C49.0656 241 57.5443 239.08 64.8978 235.177L63.0222 231.643ZM110.782 239H108.782V241H110.782V239ZM110.782 225.48V223.48H108.782V225.48H110.782ZM156.672 225.48H158.672V223.48H156.672V225.48ZM156.672 239V241H158.672V239H156.672ZM110.782 161.52H108.782V163.52H110.782V161.52ZM110.782 148V146H108.782V148H110.782ZM156.672 148H158.672V146H156.672V148ZM156.672 161.52V163.52H158.672V161.52H156.672ZM110.782 196.88H108.782V198.88H110.782V196.88ZM110.782 183.62V181.62H108.782V183.62H110.782ZM154.072 183.62H156.072V181.62H154.072V183.62ZM154.072 196.88V198.88H156.072V196.88H154.072ZM101.292 148V146H99.2923V148H101.292ZM116.372 148H118.372V146H116.372V148ZM116.372 239V241H118.372V239H116.372ZM101.292 239H99.2923V241H101.292V239ZM112.782 239V225.48H108.782V239H112.782ZM110.782 227.48H156.672V223.48H110.782V227.48ZM154.672 225.48V239H158.672V225.48H154.672ZM156.672 237H110.782V241H156.672V237ZM112.782 161.52V148H108.782V161.52H112.782ZM110.782 150H156.672V146H110.782V150ZM154.672 148V161.52H158.672V148H154.672ZM156.672 159.52H110.782V163.52H156.672V159.52ZM112.782 196.88V183.62H108.782V196.88H112.782ZM110.782 185.62H154.072V181.62H110.782V185.62ZM152.072 183.62V196.88H156.072V183.62H152.072ZM154.072 194.88H110.782V198.88H154.072V194.88ZM101.292 150H116.372V146H101.292V150ZM114.372 148V239H118.372V148H114.372ZM116.372 237H101.292V241H116.372V237ZM103.292 239V148H99.2923V239H103.292ZM181.54 209.75L183.274 208.753L182.189 206.867L180.401 208.106L181.54 209.75ZM187.91 218.98L186.378 220.265L186.4 220.292L186.423 220.318L187.91 218.98ZM195.58 225.09L194.642 226.856L194.663 226.868L194.685 226.879L195.58 225.09ZM216.51 207.02L214.942 208.261L214.955 208.278L214.968 208.294L216.51 207.02ZM209.62 201.82L208.704 203.598L208.736 203.614L208.768 203.63L209.62 201.82ZM199.61 197.53L200.293 195.65L200.279 195.645L200.264 195.64L199.61 197.53ZM192.07 194.41L191.175 196.199L191.198 196.21L191.221 196.221L192.07 194.41ZM184.14 189.34L182.865 190.881L182.881 190.894L182.897 190.907L184.14 189.34ZM177.9 181.8L176.142 182.754L176.148 182.765L176.154 182.776L177.9 181.8ZM179.2 158.14L180.846 159.276L180.852 159.267L180.858 159.258L179.2 158.14ZM189.34 149.56L190.19 151.37L190.198 151.367L190.205 151.363L189.34 149.56ZM218.07 149.3L218.933 147.496L218.933 147.496L218.07 149.3ZM228.08 156.58L226.602 157.928L226.613 157.939L226.624 157.951L228.08 156.58ZM234.58 165.81L235.56 167.553L237.203 166.629L236.378 164.935L234.58 165.81ZM222.1 172.83L220.311 173.724L221.25 175.603L223.08 174.573L222.1 172.83ZM217.81 166.59L216.301 167.902L216.315 167.919L216.33 167.935L217.81 166.59ZM211.7 161.91L210.752 163.671L210.792 163.692L210.832 163.712L211.7 161.91ZM194.41 163.08L195.792 164.525L195.808 164.51L195.824 164.494L194.41 163.08ZM193.5 176.21L191.882 177.386L191.913 177.428L191.945 177.468L193.5 176.21ZM200.26 181.41L201.214 179.652L200.26 181.41ZM212.09 186.48L211.417 188.363L211.421 188.365L212.09 186.48ZM220.15 190.12L219.188 191.874L219.2 191.88L219.212 191.886L220.15 190.12ZM227.69 195.71L226.276 197.124L226.29 197.138L226.304 197.152L227.69 195.71ZM233.02 203.38L231.19 204.187L231.2 204.21L231.21 204.232L233.02 203.38ZM232.63 225.22L230.832 224.344L232.63 225.22ZM225.87 233.8L227.108 235.371L227.122 235.36L227.136 235.348L225.87 233.8ZM216.12 239L215.487 237.103L215.46 237.112L215.433 237.122L216.12 239ZM189.99 237.83L189.123 239.633L189.144 239.642L189.165 239.652L189.99 237.83ZM178.16 229.25L176.711 230.628L176.711 230.628L178.16 229.25ZM170.1 217.68L168.961 216.036L167.56 217.007L168.296 218.544L170.1 217.68ZM179.806 210.747C181.85 214.302 184.039 217.477 186.378 220.265L189.442 217.695C187.274 215.11 185.217 212.132 183.274 208.753L179.806 210.747ZM186.423 220.318C188.902 223.072 191.64 225.261 194.642 226.856L196.518 223.324C193.973 221.972 191.598 220.088 189.397 217.642L186.423 220.318ZM194.685 226.879C197.768 228.42 201.2 229.17 204.94 229.17V225.17C201.747 225.17 198.939 224.533 196.474 223.301L194.685 226.879ZM204.94 229.17C209.476 229.17 213.354 227.933 216.39 225.301L213.77 222.279C211.606 224.154 208.724 225.17 204.94 225.17V229.17ZM216.39 225.301C219.444 222.654 220.98 219.192 220.98 215.08H216.98C216.98 218.075 215.916 220.419 213.77 222.279L216.39 225.301ZM220.98 215.08C220.98 211.38 220.075 208.196 218.052 205.746L214.968 208.294C216.238 209.831 216.98 212.02 216.98 215.08H220.98ZM218.078 205.779C216.201 203.408 213.635 201.499 210.472 200.01L208.768 203.63C211.498 204.914 213.526 206.472 214.942 208.261L218.078 205.779ZM210.536 200.042C207.584 198.521 204.167 197.059 200.293 195.65L198.926 199.41C202.68 200.774 205.936 202.172 208.704 203.598L210.536 200.042ZM200.264 195.64C198.093 194.888 195.645 193.877 192.919 192.599L191.221 196.221C194.041 197.543 196.621 198.612 198.956 199.42L200.264 195.64ZM192.964 192.621C190.319 191.298 187.792 189.684 185.383 187.773L182.897 190.907C185.515 192.983 188.275 194.748 191.175 196.199L192.964 192.621ZM185.415 187.799C183.099 185.882 181.176 183.563 179.646 180.824L176.154 182.776C177.917 185.931 180.154 188.638 182.865 190.881L185.415 187.799ZM179.658 180.846C178.203 178.166 177.43 174.869 177.43 170.88H173.43C173.43 175.384 174.304 179.368 176.142 182.754L179.658 180.846ZM177.43 170.88C177.43 166.391 178.585 162.55 180.846 159.276L177.554 157.004C174.788 161.01 173.43 165.662 173.43 170.88H177.43ZM180.858 159.258C183.16 155.844 186.255 153.217 190.19 151.37L188.49 147.75C183.931 149.889 180.266 152.982 177.542 157.022L180.858 159.258ZM190.205 151.363C194.234 149.429 198.829 148.44 204.03 148.44V144.44C198.311 144.44 193.112 145.531 188.474 147.757L190.205 151.363ZM204.03 148.44C209.168 148.44 213.542 149.351 217.207 151.104L218.933 147.496C214.625 145.435 209.639 144.44 204.03 144.44V148.44ZM217.207 151.104C220.986 152.912 224.107 155.191 226.602 157.928L229.558 155.232C226.68 152.076 223.127 149.502 218.933 147.496L217.207 151.104ZM226.624 157.951C229.277 160.77 231.321 163.682 232.781 166.685L236.378 164.935C234.719 161.524 232.43 158.284 229.536 155.209L226.624 157.951ZM233.599 164.067L221.119 171.087L223.08 174.573L235.56 167.553L233.599 164.067ZM223.889 171.936C222.678 169.515 221.143 167.284 219.29 165.245L216.33 167.935C217.943 169.71 219.268 171.639 220.311 173.724L223.889 171.936ZM219.319 165.278C217.411 163.083 215.157 161.355 212.568 160.108L210.832 163.712C212.923 164.719 214.743 166.111 216.301 167.902L219.319 165.278ZM212.648 160.149C210.054 158.752 207.073 158.09 203.77 158.09V162.09C206.534 162.09 208.839 162.641 210.752 163.671L212.648 160.149ZM203.77 158.09C199.258 158.09 195.517 159.144 192.996 161.666L195.824 164.494C197.289 163.029 199.789 162.09 203.77 162.09V158.09ZM193.027 161.635C190.667 163.893 189.42 166.658 189.42 169.84H193.42C193.42 167.822 194.167 166.08 195.792 164.525L193.027 161.635ZM189.42 169.84C189.42 172.606 190.249 175.141 191.882 177.386L195.117 175.034C193.977 173.466 193.42 171.754 193.42 169.84H189.42ZM191.945 177.468C193.643 179.565 196.141 181.45 199.306 183.168L201.214 179.652C198.312 178.077 196.303 176.495 195.054 174.952L191.945 177.468ZM199.306 183.168C202.462 184.881 206.509 186.611 211.417 188.363L212.763 184.597C207.964 182.883 204.125 181.232 201.214 179.652L199.306 183.168ZM211.421 188.365C214 189.28 216.589 190.448 219.188 191.874L221.112 188.366C218.338 186.845 215.554 185.587 212.759 184.595L211.421 188.365ZM219.212 191.886C221.807 193.265 224.161 195.009 226.276 197.124L229.104 194.296C226.713 191.904 224.039 189.922 221.088 188.354L219.212 191.886ZM226.304 197.152C228.364 199.132 229.992 201.472 231.19 204.187L234.85 202.573C233.448 199.395 231.523 196.621 229.076 194.268L226.304 197.152ZM231.21 204.232C232.447 206.859 233.1 210.023 233.1 213.78H237.1C237.1 209.564 236.366 205.794 234.83 202.528L231.21 204.232ZM233.1 213.78C233.1 217.763 232.329 221.27 230.832 224.344L234.428 226.096C236.224 222.41 237.1 218.291 237.1 213.78H233.1ZM230.832 224.344C229.31 227.469 227.236 230.098 224.603 232.252L227.136 235.348C230.224 232.822 232.657 229.731 234.428 226.096L230.832 224.344ZM224.632 232.229C221.963 234.332 218.92 235.958 215.487 237.103L216.752 240.897C220.6 239.615 224.057 237.775 227.108 235.371L224.632 232.229ZM215.433 237.122C212.106 238.339 208.613 238.95 204.94 238.95V242.95C209.067 242.95 213.027 242.261 216.807 240.878L215.433 237.122ZM204.94 238.95C199.832 238.95 195.132 237.963 190.815 236.008L189.165 239.652C194.034 241.857 199.301 242.95 204.94 242.95V238.95ZM190.857 236.027C186.564 233.964 182.819 231.246 179.609 227.872L176.711 230.628C180.261 234.361 184.403 237.363 189.123 239.633L190.857 236.027ZM179.609 227.872C176.364 224.46 173.801 220.775 171.904 216.816L168.296 218.544C170.386 222.905 173.196 226.933 176.711 230.628L179.609 227.872ZM171.239 219.324L182.679 211.394L180.401 208.106L168.961 216.036L171.239 219.324ZM250.843 148V146H248.843V148H250.843ZM266.313 148H268.313V146H266.313V148ZM266.313 239V241H268.313V239H266.313ZM250.843 239H248.843V241H250.843V239ZM250.843 150H266.313V146H250.843V150ZM264.313 148V239H268.313V148H264.313ZM266.313 237H250.843V241H266.313V237ZM252.843 239V148H248.843V239H252.843ZM329.934 204.42H327.934V206.42H329.934V204.42ZM329.934 191.42V189.42H327.934V191.42H329.934ZM373.744 191.42L375.743 191.368L375.693 189.42H373.744V191.42ZM371.144 210.4L373.047 211.016L373.049 211.008L371.144 210.4ZM362.564 226.13L364.103 227.408L364.103 227.408L362.564 226.13ZM348.264 237.05L349.102 238.866L349.114 238.86L348.264 237.05ZM310.044 237.57L309.296 239.425L309.308 239.43L309.32 239.435L310.044 237.57ZM294.834 227.69L293.42 229.104L293.427 229.111L293.434 229.118L294.834 227.69ZM284.954 212.61L283.099 213.358L284.954 212.61ZM284.954 174.52L283.109 173.749L283.106 173.756L283.103 173.763L284.954 174.52ZM294.964 159.57L296.363 160.999L296.364 160.998L294.964 159.57ZM310.174 149.82L309.46 147.952L309.45 147.955L310.174 149.82ZM345.534 148.91L344.891 150.804L344.907 150.809L344.922 150.814L345.534 148.91ZM358.534 155.8L357.289 157.365L357.308 157.381L357.328 157.396L358.534 155.8ZM368.414 166.59L369.523 168.254L371.148 167.171L370.104 165.521L368.414 166.59ZM355.934 174.91L354.204 175.913L355.272 177.755L357.043 176.574L355.934 174.91ZM345.404 164.51L344.39 166.234L344.397 166.238L344.404 166.242L345.404 164.51ZM313.294 164.77L314.276 166.512L314.288 166.506L314.3 166.499L313.294 164.77ZM301.854 176.21L303.577 177.225L303.581 177.219L303.585 177.212L301.854 176.21ZM301.724 210.92L299.973 211.886L299.983 211.904L299.993 211.922L301.724 210.92ZM313.164 222.49L312.158 224.219L312.158 224.219L313.164 222.49ZM340.204 224.96L340.867 226.847L340.867 226.847L340.204 224.96ZM354.374 213L356.103 214.004L356.103 214.004L354.374 213ZM357.884 204.42L359.821 204.918L360.463 202.42H357.884V204.42ZM331.934 204.42V191.42H327.934V204.42H331.934ZM329.934 193.42H373.744V189.42H329.934V193.42ZM371.745 191.472C371.912 197.936 371.073 204.039 369.238 209.792L373.049 211.008C375.028 204.801 375.922 198.251 375.743 191.368L371.745 191.472ZM369.241 209.784C367.41 215.445 364.67 220.462 361.025 224.852L364.103 227.408C368.084 222.611 371.065 217.141 373.047 211.016L369.241 209.784ZM361.025 224.852C357.41 229.207 352.884 232.67 347.414 235.24L349.114 238.86C355.084 236.056 360.091 232.24 364.103 227.408L361.025 224.852ZM347.426 235.234C342.094 237.695 335.974 238.95 329.024 238.95V242.95C336.461 242.95 343.167 241.605 349.102 238.866L347.426 235.234ZM329.024 238.95C322.4 238.95 316.322 237.861 310.767 235.705L309.32 239.435C315.38 241.786 321.954 242.95 329.024 242.95V238.95ZM310.791 235.715C305.22 233.47 300.374 230.319 296.234 226.262L293.434 229.118C297.961 233.555 303.254 236.99 309.296 239.425L310.791 235.715ZM296.248 226.276C292.2 222.227 289.053 217.43 286.809 211.862L283.099 213.358C285.535 219.403 288.975 224.659 293.42 229.104L296.248 226.276ZM286.809 211.862C284.574 206.318 283.444 200.205 283.444 193.5H279.444C279.444 200.662 280.653 207.289 283.099 213.358L286.809 211.862ZM283.444 193.5C283.444 186.795 284.575 180.729 286.805 175.277L283.103 173.763C280.653 179.751 279.444 186.339 279.444 193.5H283.444ZM286.799 175.291C289.129 169.717 292.319 164.961 296.363 160.999L293.564 158.141C289.116 162.499 285.632 167.71 283.109 173.749L286.799 175.291ZM296.364 160.998C300.498 156.947 305.337 153.842 310.897 151.685L309.45 147.955C303.398 150.304 298.096 153.7 293.564 158.142L296.364 160.998ZM310.888 151.688C316.535 149.529 322.661 148.44 329.284 148.44V144.44C322.214 144.44 315.6 145.604 309.46 147.952L310.888 151.688ZM329.284 148.44C335.081 148.44 340.276 149.238 344.891 150.804L346.177 147.016C341.085 145.289 335.447 144.44 329.284 144.44V148.44ZM344.922 150.814C349.556 152.304 353.673 154.489 357.289 157.365L359.779 154.235C355.768 151.044 351.218 148.636 346.146 147.006L344.922 150.814ZM357.328 157.396C361.031 160.193 364.162 163.61 366.724 167.659L370.104 165.521C367.293 161.077 363.837 157.3 359.74 154.204L357.328 157.396ZM367.305 164.926L354.825 173.246L357.043 176.574L369.523 168.254L367.305 164.926ZM357.664 173.907C354.968 169.259 351.201 165.545 346.403 162.778L344.404 166.242C348.62 168.675 351.873 171.895 354.204 175.913L357.664 173.907ZM346.418 162.786C341.626 159.968 335.884 158.61 329.284 158.61V162.61C335.337 162.61 340.342 163.852 344.39 166.234L346.418 162.786ZM329.284 158.61C323.062 158.61 317.381 160.078 312.288 163.041L314.3 166.499C318.74 163.915 323.719 162.61 329.284 162.61V158.61ZM312.312 163.028C307.22 165.898 303.154 169.973 300.123 175.208L303.585 177.212C306.274 172.567 309.834 169.016 314.276 166.512L312.312 163.028ZM300.131 175.195C297.059 180.408 295.564 186.536 295.564 193.5H299.564C299.564 187.117 300.929 181.718 303.577 177.225L300.131 175.195ZM295.564 193.5C295.564 200.374 297.013 206.522 299.973 211.886L303.475 209.954C300.888 205.264 299.564 199.799 299.564 193.5H295.564ZM299.993 211.922C303.021 217.152 307.08 221.264 312.158 224.219L314.17 220.761C309.715 218.169 306.147 214.568 303.455 209.918L299.993 211.922ZM312.158 224.219C317.256 227.185 322.981 228.65 329.284 228.65V224.65C323.626 224.65 318.605 223.342 314.17 220.761L312.158 224.219ZM329.284 228.65C333.54 228.65 337.41 228.062 340.867 226.847L339.541 223.073C336.585 224.112 333.175 224.65 329.284 224.65V228.65ZM340.867 226.847C344.298 225.641 347.302 223.912 349.853 221.645L347.195 218.655C345.066 220.548 342.523 222.025 339.541 223.073L340.867 226.847ZM349.853 221.645C352.35 219.425 354.436 216.876 356.103 214.004L352.644 211.996C351.192 214.497 349.378 216.715 347.195 218.655L349.853 221.645ZM356.103 214.004C357.756 211.158 358.996 208.127 359.821 204.918L355.947 203.922C355.212 206.779 354.112 209.469 352.644 211.996L356.103 214.004ZM357.884 202.42H329.934V206.42H357.884V202.42ZM455.906 148V146H453.906V148H455.906ZM470.986 148H472.986V146H470.986V148ZM470.986 243.55L469.58 244.973L472.986 248.338V243.55H470.986ZM404.556 177.9L405.962 176.477L402.556 173.112V177.9H404.556ZM404.556 239V241H406.556V239H404.556ZM389.476 239H387.476V241H389.476V239ZM389.476 143.45L390.882 142.027L387.476 138.662V143.45H389.476ZM455.906 209.1L454.5 210.523L457.906 213.888V209.1H455.906ZM455.906 150H470.986V146H455.906V150ZM468.986 148V243.55H472.986V148H468.986ZM472.392 242.127L405.962 176.477L403.15 179.323L469.58 244.973L472.392 242.127ZM402.556 177.9V239H406.556V177.9H402.556ZM404.556 237H389.476V241H404.556V237ZM391.476 239V143.45H387.476V239H391.476ZM388.07 144.873L454.5 210.523L457.312 207.677L390.882 142.027L388.07 144.873ZM457.906 209.1V148H453.906V209.1H457.906Z" fill="#212121" mask="url(#path-1-outside-1_571_1041)"/>
<mask id="path-4-outside-2_571_1041" maskUnits="userSpaceOnUse" x="8" y="0" width="526" height="111" fill="black">
<rect fill="white" x="8" width="526" height="111"/>
<path d="M21.84 54.07V46.53H36.53C39.39 46.53 41.9033 46.0533 44.07 45.1C46.2367 44.1467 47.9267 42.8033 49.14 41.07C50.3533 39.25 50.96 37.0833 50.96 34.57C50.96 30.7567 49.6167 27.81 46.93 25.73C44.2433 23.65 40.7767 22.61 36.53 22.61H25.48V88.39H38.22C41.6867 88.39 44.7633 87.8267 47.45 86.7C50.1367 85.5733 52.26 83.8833 53.82 81.63C55.38 79.3767 56.16 76.56 56.16 73.18C56.16 70.7533 55.6833 68.63 54.73 66.81C53.8633 64.9033 52.6067 63.3433 50.96 62.13C49.4 60.83 47.5367 59.92 45.37 59.4C43.2033 58.7933 40.82 58.49 38.22 58.49H21.84V50.04H39.13C43.55 50.04 47.71 50.5167 51.61 51.47C55.51 52.4233 58.9767 53.8967 62.01 55.89C65.13 57.8833 67.5567 60.44 69.29 63.56C71.0233 66.68 71.89 70.4067 71.89 74.74C71.89 80.72 70.46 85.66 67.6 89.56C64.8267 93.46 60.97 96.3633 56.03 98.27C51.1767 100.09 45.5433 101 39.13 101H10.14V9.99999H37.57C43.29 9.99999 48.3167 10.8233 52.65 12.47C57.07 14.1167 60.4933 16.63 62.92 20.01C65.4333 23.39 66.69 27.68 66.69 32.88C66.69 37.3867 65.4333 41.2433 62.92 44.45C60.4933 47.57 57.07 49.9533 52.65 51.6C48.3167 53.2467 43.29 54.07 37.57 54.07H21.84ZM87.4392 9.99999H102.779V70.45C102.779 76.0833 104.253 80.6333 107.199 84.1C110.233 87.48 114.696 89.17 120.589 89.17C126.396 89.17 130.816 87.48 133.849 84.1C136.883 80.6333 138.399 76.0833 138.399 70.45V9.99999H153.739V71.1C153.739 76.1267 152.916 80.6333 151.269 84.62C149.709 88.52 147.456 91.8567 144.509 94.63C141.563 97.4033 138.053 99.5267 133.979 101C129.906 102.473 125.443 103.21 120.589 103.21C115.736 103.21 111.273 102.473 107.199 101C103.126 99.5267 99.5726 97.4033 96.5392 94.63C93.5926 91.8567 91.3392 88.52 89.7792 84.62C88.2192 80.6333 87.4392 76.1267 87.4392 71.1V9.99999ZM192.122 57.58H208.762L239.572 101H221.112L192.122 57.58ZM173.402 9.99999H188.742V101H173.402V9.99999ZM182.502 23.26V9.99999H201.482C208.068 9.99999 213.788 11.17 218.642 13.51C223.582 15.85 227.395 19.1433 230.082 23.39C232.768 27.55 234.112 32.49 234.112 38.21C234.112 43.93 232.768 48.9133 230.082 53.16C227.395 57.4067 223.582 60.7 218.642 63.04C213.788 65.38 208.068 66.55 201.482 66.55H182.502V53.94H200.832C204.298 53.94 207.332 53.3333 209.932 52.12C212.618 50.9067 214.698 49.1733 216.172 46.92C217.645 44.58 218.382 41.8067 218.382 38.6C218.382 35.3067 217.645 32.5333 216.172 30.28C214.698 28.0267 212.618 26.2933 209.932 25.08C207.332 23.8667 204.298 23.26 200.832 23.26H182.502ZM261.636 77.6L264.496 64.6H306.746L309.736 77.6H261.636ZM285.426 35.74L271.126 69.15L270.866 72.53L258.256 101H240.966L285.426 4.93L329.886 101H312.596L300.246 73.31L299.856 69.54L285.426 35.74ZM406.902 9.99999H421.982V105.55L355.552 39.9V101H340.472V5.45L406.902 71.1V9.99999ZM453.211 55.5C453.211 61.74 454.511 67.33 457.111 72.27C459.798 77.1233 463.481 80.9367 468.161 83.71C472.841 86.4833 478.171 87.87 484.151 87.87C490.218 87.87 495.548 86.4833 500.141 83.71C504.821 80.9367 508.461 77.1233 511.061 72.27C513.748 67.33 515.091 61.74 515.091 55.5C515.091 49.26 513.791 43.7133 511.191 38.86C508.591 33.92 504.951 30.0633 500.271 27.29C495.678 24.5167 490.305 23.13 484.151 23.13C478.171 23.13 472.841 24.5167 468.161 27.29C463.481 30.0633 459.798 33.92 457.111 38.86C454.511 43.7133 453.211 49.26 453.211 55.5ZM436.961 55.5C436.961 48.6533 438.131 42.37 440.471 36.65C442.811 30.93 446.105 25.99 450.351 21.83C454.685 17.5833 459.711 14.29 465.431 11.95C471.238 9.61 477.478 8.44 484.151 8.44C490.998 8.44 497.281 9.61 503.001 11.95C508.721 14.29 513.705 17.5833 517.951 21.83C522.285 25.99 525.621 30.93 527.961 36.65C530.301 42.37 531.471 48.6533 531.471 55.5C531.471 62.26 530.301 68.5433 527.961 74.35C525.621 80.1567 522.328 85.1833 518.081 89.43C513.835 93.6767 508.808 97.0133 503.001 99.44C497.281 101.78 490.998 102.95 484.151 102.95C477.391 102.95 471.108 101.78 465.301 99.44C459.495 97.0133 454.468 93.6767 450.221 89.43C446.061 85.1833 442.811 80.1567 440.471 74.35C438.131 68.5433 436.961 62.26 436.961 55.5Z"/>
</mask>
<path d="M21.84 54.07V46.53H36.53C39.39 46.53 41.9033 46.0533 44.07 45.1C46.2367 44.1467 47.9267 42.8033 49.14 41.07C50.3533 39.25 50.96 37.0833 50.96 34.57C50.96 30.7567 49.6167 27.81 46.93 25.73C44.2433 23.65 40.7767 22.61 36.53 22.61H25.48V88.39H38.22C41.6867 88.39 44.7633 87.8267 47.45 86.7C50.1367 85.5733 52.26 83.8833 53.82 81.63C55.38 79.3767 56.16 76.56 56.16 73.18C56.16 70.7533 55.6833 68.63 54.73 66.81C53.8633 64.9033 52.6067 63.3433 50.96 62.13C49.4 60.83 47.5367 59.92 45.37 59.4C43.2033 58.7933 40.82 58.49 38.22 58.49H21.84V50.04H39.13C43.55 50.04 47.71 50.5167 51.61 51.47C55.51 52.4233 58.9767 53.8967 62.01 55.89C65.13 57.8833 67.5567 60.44 69.29 63.56C71.0233 66.68 71.89 70.4067 71.89 74.74C71.89 80.72 70.46 85.66 67.6 89.56C64.8267 93.46 60.97 96.3633 56.03 98.27C51.1767 100.09 45.5433 101 39.13 101H10.14V9.99999H37.57C43.29 9.99999 48.3167 10.8233 52.65 12.47C57.07 14.1167 60.4933 16.63 62.92 20.01C65.4333 23.39 66.69 27.68 66.69 32.88C66.69 37.3867 65.4333 41.2433 62.92 44.45C60.4933 47.57 57.07 49.9533 52.65 51.6C48.3167 53.2467 43.29 54.07 37.57 54.07H21.84ZM87.4392 9.99999H102.779V70.45C102.779 76.0833 104.253 80.6333 107.199 84.1C110.233 87.48 114.696 89.17 120.589 89.17C126.396 89.17 130.816 87.48 133.849 84.1C136.883 80.6333 138.399 76.0833 138.399 70.45V9.99999H153.739V71.1C153.739 76.1267 152.916 80.6333 151.269 84.62C149.709 88.52 147.456 91.8567 144.509 94.63C141.563 97.4033 138.053 99.5267 133.979 101C129.906 102.473 125.443 103.21 120.589 103.21C115.736 103.21 111.273 102.473 107.199 101C103.126 99.5267 99.5726 97.4033 96.5392 94.63C93.5926 91.8567 91.3392 88.52 89.7792 84.62C88.2192 80.6333 87.4392 76.1267 87.4392 71.1V9.99999ZM192.122 57.58H208.762L239.572 101H221.112L192.122 57.58ZM173.402 9.99999H188.742V101H173.402V9.99999ZM182.502 23.26V9.99999H201.482C208.068 9.99999 213.788 11.17 218.642 13.51C223.582 15.85 227.395 19.1433 230.082 23.39C232.768 27.55 234.112 32.49 234.112 38.21C234.112 43.93 232.768 48.9133 230.082 53.16C227.395 57.4067 223.582 60.7 218.642 63.04C213.788 65.38 208.068 66.55 201.482 66.55H182.502V53.94H200.832C204.298 53.94 207.332 53.3333 209.932 52.12C212.618 50.9067 214.698 49.1733 216.172 46.92C217.645 44.58 218.382 41.8067 218.382 38.6C218.382 35.3067 217.645 32.5333 216.172 30.28C214.698 28.0267 212.618 26.2933 209.932 25.08C207.332 23.8667 204.298 23.26 200.832 23.26H182.502ZM261.636 77.6L264.496 64.6H306.746L309.736 77.6H261.636ZM285.426 35.74L271.126 69.15L270.866 72.53L258.256 101H240.966L285.426 4.93L329.886 101H312.596L300.246 73.31L299.856 69.54L285.426 35.74ZM406.902 9.99999H421.982V105.55L355.552 39.9V101H340.472V5.45L406.902 71.1V9.99999ZM453.211 55.5C453.211 61.74 454.511 67.33 457.111 72.27C459.798 77.1233 463.481 80.9367 468.161 83.71C472.841 86.4833 478.171 87.87 484.151 87.87C490.218 87.87 495.548 86.4833 500.141 83.71C504.821 80.9367 508.461 77.1233 511.061 72.27C513.748 67.33 515.091 61.74 515.091 55.5C515.091 49.26 513.791 43.7133 511.191 38.86C508.591 33.92 504.951 30.0633 500.271 27.29C495.678 24.5167 490.305 23.13 484.151 23.13C478.171 23.13 472.841 24.5167 468.161 27.29C463.481 30.0633 459.798 33.92 457.111 38.86C454.511 43.7133 453.211 49.26 453.211 55.5ZM436.961 55.5C436.961 48.6533 438.131 42.37 440.471 36.65C442.811 30.93 446.105 25.99 450.351 21.83C454.685 17.5833 459.711 14.29 465.431 11.95C471.238 9.61 477.478 8.44 484.151 8.44C490.998 8.44 497.281 9.61 503.001 11.95C508.721 14.29 513.705 17.5833 517.951 21.83C522.285 25.99 525.621 30.93 527.961 36.65C530.301 42.37 531.471 48.6533 531.471 55.5C531.471 62.26 530.301 68.5433 527.961 74.35C525.621 80.1567 522.328 85.1833 518.081 89.43C513.835 93.6767 508.808 97.0133 503.001 99.44C497.281 101.78 490.998 102.95 484.151 102.95C477.391 102.95 471.108 101.78 465.301 99.44C459.495 97.0133 454.468 93.6767 450.221 89.43C446.061 85.1833 442.811 80.1567 440.471 74.35C438.131 68.5433 436.961 62.26 436.961 55.5Z" fill="white"/>
<path d="M21.84 54.07H19.84V56.07H21.84V54.07ZM21.84 46.53V44.53H19.84V46.53H21.84ZM44.07 45.1L44.8755 46.9306L44.8755 46.9306L44.07 45.1ZM49.14 41.07L50.7785 42.2169L50.7915 42.1983L50.8041 42.1794L49.14 41.07ZM46.93 25.73L48.1544 24.1485L48.1543 24.1485L46.93 25.73ZM25.48 22.61V20.61H23.48V22.61H25.48ZM25.48 88.39H23.48V90.39H25.48V88.39ZM47.45 86.7L46.6765 84.8556L46.6765 84.8556L47.45 86.7ZM53.82 81.63L55.4644 82.7684L55.4644 82.7684L53.82 81.63ZM54.73 66.81L52.9093 67.6376L52.9324 67.6885L52.9583 67.738L54.73 66.81ZM50.96 62.13L49.6796 63.6664L49.7255 63.7047L49.7736 63.7401L50.96 62.13ZM45.37 59.4L44.8307 61.3259L44.8668 61.336L44.9033 61.3448L45.37 59.4ZM21.84 58.49H19.84V60.49H21.84V58.49ZM21.84 50.04V48.04H19.84V50.04H21.84ZM51.61 51.47L51.1351 53.4128L51.1351 53.4128L51.61 51.47ZM62.01 55.89L60.9116 57.5614L60.9224 57.5685L60.9332 57.5754L62.01 55.89ZM69.29 63.56L71.0383 62.5887L71.0383 62.5887L69.29 63.56ZM67.6 89.56L65.9872 88.3773L65.9786 88.389L65.9701 88.401L67.6 89.56ZM56.03 98.27L56.7323 100.143L56.7412 100.139L56.7502 100.136L56.03 98.27ZM10.14 101H8.14V103H10.14V101ZM10.14 9.99999V7.99999H8.14V9.99999H10.14ZM52.65 12.47L51.9396 14.3396L51.9518 14.3442L52.65 12.47ZM62.92 20.01L61.2954 21.1764L61.3051 21.19L61.3151 21.2034L62.92 20.01ZM62.92 44.45L61.3459 43.2162L61.3413 43.2221L62.92 44.45ZM52.65 51.6L51.9518 49.7258L51.9396 49.7304L52.65 51.6ZM23.84 54.07V46.53H19.84V54.07H23.84ZM21.84 48.53H36.53V44.53H21.84V48.53ZM36.53 48.53C39.6108 48.53 42.4079 48.0164 44.8755 46.9306L43.2645 43.2694C41.3988 44.0903 39.1692 44.53 36.53 44.53V48.53ZM44.8755 46.9306C47.3363 45.8479 49.3311 44.2847 50.7785 42.2169L47.5015 39.9231C46.5223 41.322 45.1371 42.4455 43.2645 43.2694L44.8755 46.9306ZM50.8041 42.1794C52.2678 39.9839 52.96 37.4177 52.96 34.57H48.96C48.96 36.749 48.4389 38.5161 47.4759 39.9606L50.8041 42.1794ZM52.96 34.57C52.96 30.2243 51.3947 26.6572 48.1544 24.1485L45.7057 27.3114C47.8386 28.9628 48.96 31.2891 48.96 34.57H52.96ZM48.1543 24.1485C45.0374 21.7354 41.107 20.61 36.53 20.61V24.61C40.4463 24.61 43.4493 25.5646 45.7057 27.3114L48.1543 24.1485ZM36.53 20.61H25.48V24.61H36.53V20.61ZM23.48 22.61V88.39H27.48V22.61H23.48ZM25.48 90.39H38.22V86.39H25.48V90.39ZM38.22 90.39C41.9027 90.39 45.25 89.7913 48.2235 88.5444L46.6765 84.8556C44.2767 85.862 41.4706 86.39 38.22 86.39V90.39ZM48.2235 88.5444C51.2386 87.28 53.6734 85.3554 55.4644 82.7684L52.1756 80.4916C50.8466 82.4113 49.0347 83.8667 46.6765 84.8556L48.2235 88.5444ZM55.4644 82.7684C57.3051 80.1096 58.16 76.8709 58.16 73.18H54.16C54.16 76.2491 53.4549 78.6437 52.1756 80.4916L55.4644 82.7684ZM58.16 73.18C58.16 70.4885 57.6299 68.036 56.5017 65.882L52.9583 67.738C53.7367 69.224 54.16 71.0182 54.16 73.18H58.16ZM56.5507 65.9824C55.5464 63.7728 54.0746 61.9407 52.1464 60.5199L49.7736 63.7401C51.1387 64.746 52.1803 66.0339 52.9093 67.6376L56.5507 65.9824ZM52.2404 60.5936C50.4219 59.0781 48.2729 58.0399 45.8367 57.4552L44.9033 61.3448C46.8005 61.8001 48.3781 62.5818 49.6796 63.6664L52.2404 60.5936ZM45.9093 57.4741C43.5423 56.8113 40.9746 56.49 38.22 56.49V60.49C40.6654 60.49 42.8644 60.7753 44.8307 61.3259L45.9093 57.4741ZM38.22 56.49H21.84V60.49H38.22V56.49ZM23.84 58.49V50.04H19.84V58.49H23.84ZM21.84 52.04H39.13V48.04H21.84V52.04ZM39.13 52.04C43.4059 52.04 47.4053 52.5011 51.1351 53.4128L52.0849 49.5272C48.0147 48.5323 43.6941 48.04 39.13 48.04V52.04ZM51.1351 53.4128C54.8367 54.3176 58.0883 55.7061 60.9116 57.5614L63.1084 54.2186C59.8651 52.0873 56.1833 50.529 52.0849 49.5272L51.1351 53.4128ZM60.9332 57.5754C63.7844 59.397 65.9756 61.7124 67.5417 64.5313L71.0383 62.5887C69.1377 59.1676 66.4756 56.3697 63.0868 54.2046L60.9332 57.5754ZM67.5417 64.5313C69.0781 67.2968 69.89 70.6742 69.89 74.74H73.89C73.89 70.1391 72.9686 66.0632 71.0383 62.5887L67.5417 64.5313ZM69.89 74.74C69.89 80.3968 68.5413 84.8944 65.9872 88.3773L69.2128 90.7427C72.3787 86.4256 73.89 81.0432 73.89 74.74H69.89ZM65.9701 88.401C63.448 91.9476 59.9243 94.6231 55.3099 96.4042L56.7502 100.136C62.0157 98.1035 66.2053 94.9724 69.2299 90.719L65.9701 88.401ZM55.3278 96.3973C50.7452 98.1158 45.3584 99 39.13 99V103C45.7283 103 51.6082 102.064 56.7323 100.143L55.3278 96.3973ZM39.13 99H10.14V103H39.13V99ZM12.14 101V9.99999H8.14V101H12.14ZM10.14 12H37.57V7.99999H10.14V12ZM37.57 12C43.1021 12 47.8793 12.7967 51.9396 14.3396L53.3604 10.6004C48.754 8.84998 43.4779 7.99999 37.57 7.99999V12ZM51.9518 14.3442C56.0509 15.8713 59.1304 18.1609 61.2954 21.1764L64.5447 18.8436C61.8563 15.0991 58.0891 12.362 53.3482 10.5958L51.9518 14.3442ZM61.3151 21.2034C63.5167 24.1642 64.69 28.0072 64.69 32.88H68.69C68.69 27.3527 67.35 22.6158 64.5249 18.8166L61.3151 21.2034ZM64.69 32.88C64.69 36.9897 63.5538 40.3993 61.3459 43.2162L64.4941 45.6838C67.3129 42.0874 68.69 37.7837 68.69 32.88H64.69ZM61.3413 43.2221C59.1832 45.9969 56.0918 48.1835 51.9518 49.7258L53.3482 53.4742C58.0482 51.7232 61.8035 49.1431 64.4987 45.6779L61.3413 43.2221ZM51.9396 49.7304C47.8793 51.2733 43.1021 52.07 37.57 52.07V56.07C43.4779 56.07 48.754 55.22 53.3604 53.4696L51.9396 49.7304ZM37.57 52.07H21.84V56.07H37.57V52.07ZM87.4392 9.99999V7.99999H85.4392V9.99999H87.4392ZM102.779 9.99999H104.779V7.99999H102.779V9.99999ZM107.199 84.1L105.675 85.3953L105.693 85.4158L105.711 85.4358L107.199 84.1ZM133.849 84.1L135.338 85.4358L135.346 85.4265L135.354 85.417L133.849 84.1ZM138.399 9.99999V7.99999H136.399V9.99999H138.399ZM153.739 9.99999H155.739V7.99999H153.739V9.99999ZM151.269 84.62L149.421 83.8565L149.416 83.8668L149.412 83.8772L151.269 84.62ZM144.509 94.63L145.88 96.0864L145.88 96.0864L144.509 94.63ZM133.979 101L134.659 102.881L134.659 102.881L133.979 101ZM107.199 101L106.519 102.881L107.199 101ZM96.5392 94.63L95.1685 96.0864L95.179 96.0963L95.1897 96.1061L96.5392 94.63ZM89.7792 84.62L87.9167 85.3488L87.9195 85.3558L87.9223 85.3628L89.7792 84.62ZM87.4392 12H102.779V7.99999H87.4392V12ZM100.779 9.99999V70.45H104.779V9.99999H100.779ZM100.779 70.45C100.779 76.441 102.353 81.4869 105.675 85.3953L108.723 82.8047C106.152 79.7797 104.779 75.7257 104.779 70.45H100.779ZM105.711 85.4358C109.229 89.3558 114.307 91.17 120.589 91.17V87.17C115.084 87.17 111.236 85.6042 108.688 82.7642L105.711 85.4358ZM120.589 91.17C126.795 91.17 131.825 89.3497 135.338 85.4358L132.361 82.7642C129.806 85.6103 125.997 87.17 120.589 87.17V91.17ZM135.354 85.417C138.774 81.5091 140.399 76.4551 140.399 70.45H136.399C136.399 75.7115 134.991 79.7576 132.344 82.783L135.354 85.417ZM140.399 70.45V9.99999H136.399V70.45H140.399ZM138.399 12H153.739V7.99999H138.399V12ZM151.739 9.99999V71.1H155.739V9.99999H151.739ZM151.739 71.1C151.739 75.9075 150.952 80.1486 149.421 83.8565L153.118 85.3835C154.88 81.1181 155.739 76.3459 155.739 71.1H151.739ZM149.412 83.8772C147.956 87.5173 145.865 90.6075 143.138 93.1736L145.88 96.0864C149.047 93.1058 151.462 89.5227 153.126 85.3628L149.412 83.8772ZM143.138 93.1736C140.404 95.7469 137.134 97.7321 133.299 99.1192L134.659 102.881C138.971 101.321 142.721 99.0597 145.88 96.0864L143.138 93.1736ZM133.299 99.1192C129.468 100.505 125.238 101.21 120.589 101.21V105.21C125.647 105.21 130.343 104.442 134.659 102.881L133.299 99.1192ZM120.589 101.21C115.94 101.21 111.71 100.505 107.879 99.1192L106.519 102.881C110.835 104.442 115.532 105.21 120.589 105.21V101.21ZM107.879 99.1192C104.04 97.7305 100.717 95.7402 97.8888 93.1539L95.1897 96.1061C98.4277 99.0665 102.212 101.323 106.519 102.881L107.879 99.1192ZM97.9099 93.1736C95.1835 90.6075 93.0922 87.5173 91.6362 83.8772L87.9223 85.3628C89.5862 89.5227 92.0016 93.1058 95.1685 96.0864L97.9099 93.1736ZM91.6417 83.8912C90.1869 80.1734 89.4392 75.9199 89.4392 71.1H85.4392C85.4392 76.3334 86.2515 81.0932 87.9167 85.3488L91.6417 83.8912ZM89.4392 71.1V9.99999H85.4392V71.1H89.4392ZM192.122 57.58V55.58H188.382L190.458 58.6905L192.122 57.58ZM208.762 57.58L210.393 56.4226L209.795 55.58H208.762V57.58ZM239.572 101V103H243.443L241.203 99.8426L239.572 101ZM221.112 101L219.448 102.111L220.042 103H221.112V101ZM173.402 9.99999V7.99999H171.402V9.99999H173.402ZM188.742 9.99999H190.742V7.99999H188.742V9.99999ZM188.742 101V103H190.742V101H188.742ZM173.402 101H171.402V103H173.402V101ZM182.502 23.26H180.502V25.26H182.502V23.26ZM182.502 9.99999V7.99999H180.502V9.99999H182.502ZM218.642 13.51L217.773 15.3116L217.786 15.3175L218.642 13.51ZM230.082 23.39L228.392 24.4593L228.397 24.4672L228.402 24.4751L230.082 23.39ZM230.082 53.16L228.392 52.0907L228.392 52.0907L230.082 53.16ZM218.642 63.04L217.786 61.2325L217.773 61.2385L218.642 63.04ZM182.502 66.55H180.502V68.55H182.502V66.55ZM182.502 53.94V51.94H180.502V53.94H182.502ZM209.932 52.12L209.109 50.2973L209.097 50.3024L209.086 50.3076L209.932 52.12ZM216.172 46.92L217.846 48.0145L217.855 48.0001L217.864 47.9856L216.172 46.92ZM216.172 30.28L214.498 31.3745L214.498 31.3745L216.172 30.28ZM209.932 25.08L209.086 26.8924L209.097 26.8976L209.109 26.9027L209.932 25.08ZM192.122 59.58H208.762V55.58H192.122V59.58ZM207.131 58.7374L237.941 102.157L241.203 99.8426L210.393 56.4226L207.131 58.7374ZM239.572 99H221.112V103H239.572V99ZM222.775 99.8895L193.785 56.4694L190.458 58.6905L219.448 102.111L222.775 99.8895ZM173.402 12H188.742V7.99999H173.402V12ZM186.742 9.99999V101H190.742V9.99999H186.742ZM188.742 99H173.402V103H188.742V99ZM175.402 101V9.99999H171.402V101H175.402ZM184.502 23.26V9.99999H180.502V23.26H184.502ZM182.502 12H201.482V7.99999H182.502V12ZM201.482 12C207.833 12 213.244 13.128 217.773 15.3115L219.51 11.7085C214.333 9.21203 208.303 7.99999 201.482 7.99999V12ZM217.786 15.3175C222.414 17.5101 225.925 20.5607 228.392 24.4593L231.772 22.3207C228.865 17.726 224.749 14.1899 219.498 11.7025L217.786 15.3175ZM228.402 24.4751C230.849 28.2639 232.112 32.8138 232.112 38.21H236.112C236.112 32.1661 234.688 26.8361 231.762 22.3049L228.402 24.4751ZM232.112 38.21C232.112 43.6051 230.849 48.2065 228.392 52.0907L231.772 54.2293C234.688 49.6202 236.112 44.2549 236.112 38.21H232.112ZM228.392 52.0907C225.925 55.9893 222.414 59.0399 217.786 61.2325L219.498 64.8475C224.749 62.3601 228.865 58.824 231.772 54.2293L228.392 52.0907ZM217.773 61.2385C213.244 63.422 207.833 64.55 201.482 64.55V68.55C208.303 68.55 214.333 67.338 219.51 64.8415L217.773 61.2385ZM201.482 64.55H182.502V68.55H201.482V64.55ZM184.502 66.55V53.94H180.502V66.55H184.502ZM182.502 55.94H200.832V51.94H182.502V55.94ZM200.832 55.94C204.531 55.94 207.863 55.2923 210.777 53.9324L209.086 50.3076C206.8 51.3744 204.066 51.94 200.832 51.94V55.94ZM210.755 53.9427C213.754 52.5881 216.144 50.6167 217.846 48.0145L214.498 45.8255C213.253 47.73 211.482 49.2252 209.109 50.2973L210.755 53.9427ZM217.864 47.9856C219.569 45.2783 220.382 42.1224 220.382 38.6H216.382C216.382 41.491 215.721 43.8817 214.479 45.8544L217.864 47.9856ZM220.382 38.6C220.382 35.0053 219.575 31.8304 217.846 29.1855L214.498 31.3745C215.715 33.2363 216.382 35.6081 216.382 38.6H220.382ZM217.846 29.1855C216.144 26.5833 213.754 24.6119 210.755 23.2573L209.109 26.9027C211.482 27.9747 213.253 29.47 214.498 31.3745L217.846 29.1855ZM210.777 23.2676C207.863 21.9077 204.531 21.26 200.832 21.26V25.26C204.066 25.26 206.8 25.8256 209.086 26.8924L210.777 23.2676ZM200.832 21.26H182.502V25.26H200.832V21.26ZM261.636 77.6L259.683 77.1703L259.148 79.6H261.636V77.6ZM264.496 64.6V62.6H262.888L262.543 64.1703L264.496 64.6ZM306.746 64.6L308.695 64.1517L308.338 62.6H306.746V64.6ZM309.736 77.6V79.6H312.248L311.685 77.1517L309.736 77.6ZM285.426 35.74L287.266 34.9547L285.429 30.6518L283.588 34.953L285.426 35.74ZM271.126 69.15L269.288 68.363L269.157 68.667L269.132 68.9966L271.126 69.15ZM270.866 72.53L272.695 73.34L272.834 73.0259L272.86 72.6834L270.866 72.53ZM258.256 101V103H259.558L260.085 101.81L258.256 101ZM240.966 101L239.151 100.16L237.837 103H240.966V101ZM285.426 4.93L287.241 4.09001L285.426 0.168007L283.611 4.09001L285.426 4.93ZM329.886 101V103H333.016L331.701 100.16L329.886 101ZM312.596 101L310.77 101.815L311.298 103H312.596V101ZM300.246 73.31L298.257 73.5158L298.29 73.8332L298.42 74.1247L300.246 73.31ZM299.856 69.54L301.846 69.3342L301.814 69.0331L301.696 68.7547L299.856 69.54ZM263.589 78.0297L266.449 65.0297L262.543 64.1703L259.683 77.1703L263.589 78.0297ZM264.496 66.6H306.746V62.6H264.496V66.6ZM304.797 65.0483L307.787 78.0483L311.685 77.1517L308.695 64.1517L304.797 65.0483ZM309.736 75.6H261.636V79.6H309.736V75.6ZM283.588 34.953L269.288 68.363L272.965 69.937L287.265 36.527L283.588 34.953ZM269.132 68.9966L268.872 72.3766L272.86 72.6834L273.12 69.3034L269.132 68.9966ZM269.038 71.72L256.428 100.19L260.085 101.81L272.695 73.34L269.038 71.72ZM258.256 99H240.966V103H258.256V99ZM242.781 101.84L287.241 5.76998L283.611 4.09001L239.151 100.16L242.781 101.84ZM283.611 5.76998L328.071 101.84L331.701 100.16L287.241 4.09001L283.611 5.76998ZM329.886 99H312.596V103H329.886V99ZM314.423 100.185L302.073 72.4953L298.42 74.1247L310.77 101.815L314.423 100.185ZM302.236 73.1042L301.846 69.3342L297.867 69.7458L298.257 73.5158L302.236 73.1042ZM301.696 68.7547L287.266 34.9547L283.587 36.5253L298.017 70.3253L301.696 68.7547ZM406.902 9.99999V7.99999H404.902V9.99999H406.902ZM421.982 9.99999H423.982V7.99999H421.982V9.99999ZM421.982 105.55L420.576 106.973L423.982 110.338V105.55H421.982ZM355.552 39.9L356.958 38.4775L353.552 35.1116V39.9H355.552ZM355.552 101V103H357.552V101H355.552ZM340.472 101H338.472V103H340.472V101ZM340.472 5.45L341.878 4.02746L338.472 0.661611V5.45H340.472ZM406.902 71.1L405.496 72.5225L408.902 75.8884V71.1H406.902ZM406.902 12H421.982V7.99999H406.902V12ZM419.982 9.99999V105.55H423.982V9.99999H419.982ZM423.388 104.127L356.958 38.4775L354.146 41.3225L420.576 106.973L423.388 104.127ZM353.552 39.9V101H357.552V39.9H353.552ZM355.552 99H340.472V103H355.552V99ZM342.472 101V5.45H338.472V101H342.472ZM339.066 6.87254L405.496 72.5225L408.308 69.6775L341.878 4.02746L339.066 6.87254ZM408.902 71.1V9.99999H404.902V71.1H408.902ZM457.111 72.27L455.342 73.2015L455.351 73.2202L455.362 73.2386L457.111 72.27ZM468.161 83.71L469.181 81.9894L469.181 81.9894L468.161 83.71ZM500.141 83.71L499.122 81.9894L499.115 81.9936L499.108 81.9979L500.141 83.71ZM511.061 72.27L509.304 71.3144L509.299 71.3256L511.061 72.27ZM511.191 38.86L509.422 39.7915L509.425 39.798L509.429 39.8044L511.191 38.86ZM500.271 27.29L499.238 29.0021L499.245 29.0064L499.252 29.0106L500.271 27.29ZM468.161 27.29L469.181 29.0106L469.181 29.0106L468.161 27.29ZM457.111 38.86L455.354 37.9044L455.349 37.9156L457.111 38.86ZM440.471 36.65L438.62 35.8927L440.471 36.65ZM450.351 21.83L451.751 23.2587L451.751 23.2584L450.351 21.83ZM465.431 11.95L464.684 10.0949L464.674 10.0989L465.431 11.95ZM503.001 11.95L503.759 10.0989L503.759 10.0989L503.001 11.95ZM517.951 21.83L516.537 23.2442L516.552 23.2586L516.566 23.2728L517.951 21.83ZM527.961 36.65L529.813 35.8927L527.961 36.65ZM518.081 89.43L519.496 90.8442L519.496 90.8442L518.081 89.43ZM503.001 99.44L503.759 101.291L503.766 101.288L503.773 101.285L503.001 99.44ZM465.301 99.44L464.53 101.285L464.542 101.29L464.554 101.295L465.301 99.44ZM450.221 89.43L448.793 90.8296L448.8 90.8369L448.807 90.8442L450.221 89.43ZM440.471 74.35L438.616 75.0976L440.471 74.35ZM451.211 55.5C451.211 62.0258 452.573 67.9418 455.342 73.2015L458.881 71.3385C456.45 66.7182 455.211 61.4542 455.211 55.5H451.211ZM455.362 73.2386C458.217 78.3966 462.15 82.4722 467.142 85.4306L469.181 81.9894C464.813 79.4011 461.379 75.85 458.861 71.3014L455.362 73.2386ZM467.142 85.4306C472.161 88.4047 477.849 89.87 484.151 89.87V85.87C478.494 85.87 473.522 84.562 469.181 81.9894L467.142 85.4306ZM484.151 89.87C490.534 89.87 496.231 88.4075 501.175 85.4221L499.108 81.9979C494.866 84.5592 489.902 85.87 484.151 85.87V89.87ZM501.161 85.4306C506.159 82.4688 510.054 78.3854 512.824 73.2144L509.299 71.3256C506.869 75.8613 503.484 79.4045 499.122 81.9894L501.161 85.4306ZM512.818 73.2255C515.682 67.9612 517.091 62.0365 517.091 55.5H513.091C513.091 61.4435 511.815 66.6988 509.305 71.3145L512.818 73.2255ZM517.091 55.5C517.091 48.9749 515.73 43.0962 512.954 37.9156L509.429 39.8044C511.853 44.3305 513.091 49.5451 513.091 55.5H517.091ZM512.961 37.9285C510.194 32.6702 506.298 28.5365 501.291 25.5694L499.252 29.0106C503.605 31.5902 506.989 35.1698 509.422 39.7915L512.961 37.9285ZM501.305 25.5779C496.356 22.5899 490.615 21.13 484.151 21.13V25.13C489.995 25.13 495 26.4434 499.238 29.0021L501.305 25.5779ZM484.151 21.13C477.849 21.13 472.161 22.5953 467.142 25.5694L469.181 29.0106C473.522 26.438 478.494 25.13 484.151 25.13V21.13ZM467.142 25.5694C462.141 28.533 458.207 32.6588 455.355 37.9045L458.868 39.8155C461.389 35.1812 464.822 31.5937 469.181 29.0106L467.142 25.5694ZM455.349 37.9156C452.573 43.0962 451.211 48.9749 451.211 55.5H455.211C455.211 49.5451 456.45 44.3305 458.874 39.8044L455.349 37.9156ZM438.961 55.5C438.961 48.885 440.091 42.8622 442.323 37.4073L438.62 35.8927C436.172 41.8778 434.961 48.4217 434.961 55.5H438.961ZM442.323 37.4073C444.564 31.9293 447.707 27.2204 451.751 23.2587L448.952 20.4013C444.503 24.7596 441.059 29.9307 438.62 35.8927L442.323 37.4073ZM451.751 23.2584C455.896 19.1963 460.704 16.045 466.189 13.8011L464.674 10.0989C458.719 12.535 453.473 15.9703 448.952 20.4016L451.751 23.2584ZM466.179 13.805C471.733 11.567 477.717 10.44 484.151 10.44V6.44C477.239 6.44 470.744 7.65302 464.684 10.095L466.179 13.805ZM484.151 10.44C490.767 10.44 496.789 11.5695 502.244 13.8011L503.759 10.0989C497.774 7.65049 491.23 6.44 484.151 6.44V10.44ZM502.244 13.8011C507.726 16.0435 512.484 19.1908 516.537 23.2442L519.366 20.4158C514.926 15.9758 509.717 12.5365 503.759 10.0989L502.244 13.8011ZM516.566 23.2728C520.692 27.2337 523.873 31.9382 526.11 37.4073L529.813 35.8927C527.37 29.9218 523.877 24.7463 519.337 20.3872L516.566 23.2728ZM526.11 37.4073C528.342 42.8622 529.471 48.885 529.471 55.5H533.471C533.471 48.4217 532.261 41.8778 529.813 35.8927L526.11 37.4073ZM529.471 55.5C529.471 62.0244 528.343 68.0518 526.106 73.6024L529.817 75.0976C532.26 69.0349 533.471 62.4956 533.471 55.5H529.471ZM526.106 73.6024C523.863 79.1703 520.716 83.9675 516.667 88.0158L519.496 90.8442C523.941 86.3992 527.38 81.143 529.817 75.0976L526.106 73.6024ZM516.667 88.0158C512.614 92.0695 507.808 95.2636 502.23 97.5947L503.773 101.285C509.808 98.7631 515.056 95.2839 519.496 90.8442L516.667 88.0158ZM502.244 97.5889C496.789 99.8205 490.767 100.95 484.151 100.95V104.95C491.23 104.95 497.774 103.74 503.759 101.291L502.244 97.5889ZM484.151 100.95C477.627 100.95 471.6 99.8218 466.049 97.585L464.554 101.295C470.617 103.738 477.156 104.95 484.151 104.95V100.95ZM466.073 97.5947C460.495 95.2636 455.689 92.0695 451.636 88.0158L448.807 90.8442C453.247 95.2839 458.495 98.7631 464.53 101.285L466.073 97.5947ZM451.65 88.0304C447.683 83.9809 444.574 79.1791 442.327 73.6024L438.616 75.0976C441.049 81.1343 444.44 86.3858 448.793 90.8296L451.65 88.0304ZM442.327 73.6024C440.09 68.0518 438.961 62.0244 438.961 55.5H434.961C434.961 62.4956 436.173 69.0349 438.616 75.0976L442.327 73.6024Z" fill="#212121" mask="url(#path-4-outside-2_571_1041)"/>
</svg>
