<svg width="319" height="69" viewBox="0 0 319 69" fill="none" xmlns="http://www.w3.org/2000/svg">
<mask id="path-1-outside-1_457_625" maskUnits="userSpaceOnUse" x="0" y="0" width="319" height="69" fill="black">
<rect fill="white" width="319" height="69"/>
<path d="M22.088 51L11.08 15.16H10.824C10.8667 16.0133 10.9307 17.2933 11.016 19C11.1013 20.7067 11.1867 22.5413 11.272 24.504C11.3573 26.424 11.4 28.1733 11.4 29.752V51H2.76V5.304H15.944L26.76 40.248H26.952L38.408 5.304H51.592V51H42.568V29.368C42.568 27.9173 42.5893 26.2533 42.632 24.376C42.7173 22.4987 42.7813 20.728 42.824 19.064C42.9093 17.3573 42.9733 16.0773 43.016 15.224H42.76L30.984 51H22.088ZM59.295 16.056H69.727L76.319 35.704C76.5323 36.344 76.703 36.984 76.831 37.624C77.0017 38.264 77.1297 38.9253 77.215 39.608C77.343 40.2907 77.4283 41.016 77.471 41.784H77.663C77.791 40.6747 77.9617 39.6293 78.175 38.648C78.431 37.624 78.7083 36.6427 79.007 35.704L85.471 16.056H95.711L80.927 55.48C80.031 57.8693 78.8577 59.8747 77.407 61.496C75.999 63.1173 74.3563 64.3333 72.479 65.144C70.6017 65.9547 68.5537 66.36 66.335 66.36C65.2683 66.36 64.3297 66.296 63.519 66.168C62.751 66.0827 62.0683 65.976 61.471 65.848V58.296C61.9403 58.3813 62.495 58.4667 63.135 58.552C63.8177 58.6373 64.5217 58.68 65.247 58.68C66.5697 58.68 67.7003 58.4027 68.639 57.848C69.6203 57.2933 70.431 56.5253 71.071 55.544C71.711 54.6053 72.223 53.5813 72.607 52.472L73.183 50.744L59.295 16.056ZM147.238 38.776C147.067 38.0507 146.811 36.984 146.47 35.576C146.171 34.1253 145.83 32.5893 145.446 30.968C145.062 29.304 144.699 27.7893 144.358 26.424C144.016 25.016 143.782 23.992 143.654 23.352H143.398C143.27 23.992 143.035 25.016 142.694 26.424C142.395 27.7893 142.054 29.304 141.67 30.968C141.286 32.5893 140.923 34.1253 140.582 35.576C140.24 37.0267 139.984 38.136 139.814 38.904L136.998 51H126.758L116.838 16.056H126.31L130.342 31.544C130.64 32.6107 130.896 33.8907 131.11 35.384C131.366 36.8773 131.6 38.328 131.814 39.736C132.027 41.1013 132.176 42.1893 132.262 43H132.518C132.56 42.4027 132.646 41.6133 132.774 40.632C132.902 39.608 133.051 38.5627 133.222 37.496C133.435 36.4293 133.606 35.4693 133.734 34.616C133.904 33.72 134.032 33.1227 134.118 32.824L138.406 16.056H148.902L152.998 32.824C153.168 33.4213 153.36 34.3813 153.574 35.704C153.83 37.0267 154.043 38.3707 154.214 39.736C154.427 41.1013 154.534 42.1893 154.534 43H154.79C154.875 42.2747 155.024 41.2293 155.238 39.864C155.451 38.456 155.686 36.984 155.942 35.448C156.24 33.912 156.539 32.6107 156.838 31.544L160.998 16.056H170.342L160.294 51H149.926L147.238 38.776ZM209.666 33.464C209.666 36.3653 209.261 38.9467 208.45 41.208C207.682 43.4693 206.551 45.3893 205.058 46.968C203.607 48.504 201.837 49.6773 199.746 50.488C197.655 51.256 195.287 51.64 192.642 51.64C190.21 51.64 187.949 51.256 185.858 50.488C183.81 49.6773 182.039 48.504 180.546 46.968C179.053 45.3893 177.879 43.4693 177.026 41.208C176.215 38.9467 175.81 36.3653 175.81 33.464C175.81 29.5813 176.493 26.3173 177.858 23.672C179.223 20.984 181.186 18.936 183.746 17.528C186.306 16.12 189.335 15.416 192.834 15.416C196.119 15.416 199.021 16.12 201.538 17.528C204.055 18.936 206.039 20.984 207.49 23.672C208.941 26.3173 209.666 29.5813 209.666 33.464ZM185.538 33.464C185.538 35.768 185.773 37.7093 186.242 39.288C186.754 40.824 187.543 41.9973 188.61 42.808C189.677 43.576 191.063 43.96 192.77 43.96C194.477 43.96 195.842 43.576 196.866 42.808C197.933 41.9973 198.701 40.824 199.17 39.288C199.682 37.7093 199.938 35.768 199.938 33.464C199.938 31.16 199.682 29.24 199.17 27.704C198.701 26.168 197.933 25.016 196.866 24.248C195.799 23.48 194.413 23.096 192.706 23.096C190.189 23.096 188.354 23.9707 187.202 25.72C186.093 27.4267 185.538 30.008 185.538 33.464ZM238.987 15.416C239.456 15.416 240.011 15.4373 240.651 15.48C241.291 15.5227 241.803 15.5867 242.187 15.672L241.483 24.632C241.184 24.5467 240.736 24.4827 240.139 24.44C239.584 24.3547 239.094 24.312 238.667 24.312C237.43 24.312 236.235 24.4827 235.083 24.824C233.931 25.1227 232.886 25.6133 231.947 26.296C231.051 26.9787 230.326 27.896 229.771 29.048C229.259 30.1573 229.003 31.544 229.003 33.208V51H219.467V16.056H226.699L228.107 21.944H228.555C229.238 20.7493 230.091 19.6613 231.115 18.68C232.139 17.6987 233.312 16.9093 234.635 16.312C236 15.7147 237.451 15.416 238.987 15.416ZM259.986 24.12C259.986 25.4427 259.922 26.7653 259.794 28.088C259.708 29.368 259.602 30.6693 259.474 31.992H259.602C260.028 31.3947 260.455 30.7973 260.882 30.2C261.351 29.6027 261.82 29.0053 262.29 28.408C262.759 27.8107 263.25 27.2347 263.762 26.68L273.554 16.056H284.306L270.418 31.224L285.138 51H274.13L264.082 36.856L259.986 40.12V51H250.45V2.36H259.986V24.12ZM316.441 40.632C316.441 42.9787 315.886 44.984 314.777 46.648C313.668 48.2693 312.004 49.5067 309.785 50.36C307.566 51.2133 304.814 51.64 301.529 51.64C299.097 51.64 297.006 51.4693 295.257 51.128C293.508 50.8293 291.758 50.3173 290.009 49.592V41.72C291.886 42.5733 293.913 43.2773 296.089 43.832C298.265 44.3867 300.185 44.664 301.849 44.664C303.726 44.664 305.049 44.3867 305.817 43.832C306.628 43.2773 307.033 42.552 307.033 41.656C307.033 41.0587 306.862 40.5253 306.521 40.056C306.222 39.5867 305.54 39.0533 304.473 38.456C303.406 37.8587 301.742 37.0907 299.481 36.152C297.305 35.2133 295.513 34.296 294.105 33.4C292.697 32.4613 291.652 31.352 290.969 30.072C290.286 28.7493 289.945 27.1067 289.945 25.144C289.945 21.9013 291.204 19.4693 293.721 17.848C296.238 16.2267 299.588 15.416 303.769 15.416C305.945 15.416 308.014 15.6293 309.977 16.056C311.94 16.4827 313.966 17.1867 316.057 18.168L313.177 25.016C312.025 24.504 310.916 24.056 309.849 23.672C308.782 23.288 307.737 22.9893 306.713 22.776C305.732 22.5627 304.708 22.456 303.641 22.456C302.233 22.456 301.166 22.648 300.441 23.032C299.758 23.416 299.417 23.992 299.417 24.76C299.417 25.3147 299.588 25.8267 299.929 26.296C300.313 26.7227 301.017 27.192 302.041 27.704C303.108 28.216 304.665 28.8987 306.713 29.752C308.718 30.5627 310.446 31.416 311.897 32.312C313.348 33.1653 314.457 34.2533 315.225 35.576C316.036 36.856 316.441 38.5413 316.441 40.632Z"/>
</mask>
<path d="M22.088 51L11.08 15.16H10.824C10.8667 16.0133 10.9307 17.2933 11.016 19C11.1013 20.7067 11.1867 22.5413 11.272 24.504C11.3573 26.424 11.4 28.1733 11.4 29.752V51H2.76V5.304H15.944L26.76 40.248H26.952L38.408 5.304H51.592V51H42.568V29.368C42.568 27.9173 42.5893 26.2533 42.632 24.376C42.7173 22.4987 42.7813 20.728 42.824 19.064C42.9093 17.3573 42.9733 16.0773 43.016 15.224H42.76L30.984 51H22.088ZM59.295 16.056H69.727L76.319 35.704C76.5323 36.344 76.703 36.984 76.831 37.624C77.0017 38.264 77.1297 38.9253 77.215 39.608C77.343 40.2907 77.4283 41.016 77.471 41.784H77.663C77.791 40.6747 77.9617 39.6293 78.175 38.648C78.431 37.624 78.7083 36.6427 79.007 35.704L85.471 16.056H95.711L80.927 55.48C80.031 57.8693 78.8577 59.8747 77.407 61.496C75.999 63.1173 74.3563 64.3333 72.479 65.144C70.6017 65.9547 68.5537 66.36 66.335 66.36C65.2683 66.36 64.3297 66.296 63.519 66.168C62.751 66.0827 62.0683 65.976 61.471 65.848V58.296C61.9403 58.3813 62.495 58.4667 63.135 58.552C63.8177 58.6373 64.5217 58.68 65.247 58.68C66.5697 58.68 67.7003 58.4027 68.639 57.848C69.6203 57.2933 70.431 56.5253 71.071 55.544C71.711 54.6053 72.223 53.5813 72.607 52.472L73.183 50.744L59.295 16.056ZM147.238 38.776C147.067 38.0507 146.811 36.984 146.47 35.576C146.171 34.1253 145.83 32.5893 145.446 30.968C145.062 29.304 144.699 27.7893 144.358 26.424C144.016 25.016 143.782 23.992 143.654 23.352H143.398C143.27 23.992 143.035 25.016 142.694 26.424C142.395 27.7893 142.054 29.304 141.67 30.968C141.286 32.5893 140.923 34.1253 140.582 35.576C140.24 37.0267 139.984 38.136 139.814 38.904L136.998 51H126.758L116.838 16.056H126.31L130.342 31.544C130.64 32.6107 130.896 33.8907 131.11 35.384C131.366 36.8773 131.6 38.328 131.814 39.736C132.027 41.1013 132.176 42.1893 132.262 43H132.518C132.56 42.4027 132.646 41.6133 132.774 40.632C132.902 39.608 133.051 38.5627 133.222 37.496C133.435 36.4293 133.606 35.4693 133.734 34.616C133.904 33.72 134.032 33.1227 134.118 32.824L138.406 16.056H148.902L152.998 32.824C153.168 33.4213 153.36 34.3813 153.574 35.704C153.83 37.0267 154.043 38.3707 154.214 39.736C154.427 41.1013 154.534 42.1893 154.534 43H154.79C154.875 42.2747 155.024 41.2293 155.238 39.864C155.451 38.456 155.686 36.984 155.942 35.448C156.24 33.912 156.539 32.6107 156.838 31.544L160.998 16.056H170.342L160.294 51H149.926L147.238 38.776ZM209.666 33.464C209.666 36.3653 209.261 38.9467 208.45 41.208C207.682 43.4693 206.551 45.3893 205.058 46.968C203.607 48.504 201.837 49.6773 199.746 50.488C197.655 51.256 195.287 51.64 192.642 51.64C190.21 51.64 187.949 51.256 185.858 50.488C183.81 49.6773 182.039 48.504 180.546 46.968C179.053 45.3893 177.879 43.4693 177.026 41.208C176.215 38.9467 175.81 36.3653 175.81 33.464C175.81 29.5813 176.493 26.3173 177.858 23.672C179.223 20.984 181.186 18.936 183.746 17.528C186.306 16.12 189.335 15.416 192.834 15.416C196.119 15.416 199.021 16.12 201.538 17.528C204.055 18.936 206.039 20.984 207.49 23.672C208.941 26.3173 209.666 29.5813 209.666 33.464ZM185.538 33.464C185.538 35.768 185.773 37.7093 186.242 39.288C186.754 40.824 187.543 41.9973 188.61 42.808C189.677 43.576 191.063 43.96 192.77 43.96C194.477 43.96 195.842 43.576 196.866 42.808C197.933 41.9973 198.701 40.824 199.17 39.288C199.682 37.7093 199.938 35.768 199.938 33.464C199.938 31.16 199.682 29.24 199.17 27.704C198.701 26.168 197.933 25.016 196.866 24.248C195.799 23.48 194.413 23.096 192.706 23.096C190.189 23.096 188.354 23.9707 187.202 25.72C186.093 27.4267 185.538 30.008 185.538 33.464ZM238.987 15.416C239.456 15.416 240.011 15.4373 240.651 15.48C241.291 15.5227 241.803 15.5867 242.187 15.672L241.483 24.632C241.184 24.5467 240.736 24.4827 240.139 24.44C239.584 24.3547 239.094 24.312 238.667 24.312C237.43 24.312 236.235 24.4827 235.083 24.824C233.931 25.1227 232.886 25.6133 231.947 26.296C231.051 26.9787 230.326 27.896 229.771 29.048C229.259 30.1573 229.003 31.544 229.003 33.208V51H219.467V16.056H226.699L228.107 21.944H228.555C229.238 20.7493 230.091 19.6613 231.115 18.68C232.139 17.6987 233.312 16.9093 234.635 16.312C236 15.7147 237.451 15.416 238.987 15.416ZM259.986 24.12C259.986 25.4427 259.922 26.7653 259.794 28.088C259.708 29.368 259.602 30.6693 259.474 31.992H259.602C260.028 31.3947 260.455 30.7973 260.882 30.2C261.351 29.6027 261.82 29.0053 262.29 28.408C262.759 27.8107 263.25 27.2347 263.762 26.68L273.554 16.056H284.306L270.418 31.224L285.138 51H274.13L264.082 36.856L259.986 40.12V51H250.45V2.36H259.986V24.12ZM316.441 40.632C316.441 42.9787 315.886 44.984 314.777 46.648C313.668 48.2693 312.004 49.5067 309.785 50.36C307.566 51.2133 304.814 51.64 301.529 51.64C299.097 51.64 297.006 51.4693 295.257 51.128C293.508 50.8293 291.758 50.3173 290.009 49.592V41.72C291.886 42.5733 293.913 43.2773 296.089 43.832C298.265 44.3867 300.185 44.664 301.849 44.664C303.726 44.664 305.049 44.3867 305.817 43.832C306.628 43.2773 307.033 42.552 307.033 41.656C307.033 41.0587 306.862 40.5253 306.521 40.056C306.222 39.5867 305.54 39.0533 304.473 38.456C303.406 37.8587 301.742 37.0907 299.481 36.152C297.305 35.2133 295.513 34.296 294.105 33.4C292.697 32.4613 291.652 31.352 290.969 30.072C290.286 28.7493 289.945 27.1067 289.945 25.144C289.945 21.9013 291.204 19.4693 293.721 17.848C296.238 16.2267 299.588 15.416 303.769 15.416C305.945 15.416 308.014 15.6293 309.977 16.056C311.94 16.4827 313.966 17.1867 316.057 18.168L313.177 25.016C312.025 24.504 310.916 24.056 309.849 23.672C308.782 23.288 307.737 22.9893 306.713 22.776C305.732 22.5627 304.708 22.456 303.641 22.456C302.233 22.456 301.166 22.648 300.441 23.032C299.758 23.416 299.417 23.992 299.417 24.76C299.417 25.3147 299.588 25.8267 299.929 26.296C300.313 26.7227 301.017 27.192 302.041 27.704C303.108 28.216 304.665 28.8987 306.713 29.752C308.718 30.5627 310.446 31.416 311.897 32.312C313.348 33.1653 314.457 34.2533 315.225 35.576C316.036 36.856 316.441 38.5413 316.441 40.632Z" fill="#ED7E71"/>
<path d="M22.088 51L20.1761 51.5872L20.6101 53H22.088V51ZM11.08 15.16L12.9919 14.5728L12.5579 13.16H11.08V15.16ZM10.824 15.16V13.16H8.7215L8.8265 15.2599L10.824 15.16ZM11.016 19L9.0185 19.0999L11.016 19ZM11.272 24.504L9.27389 24.5909L9.27397 24.5928L11.272 24.504ZM11.4 51V53H13.4V51H11.4ZM2.76 51H0.76V53H2.76V51ZM2.76 5.304V3.304H0.76V5.304H2.76ZM15.944 5.304L17.8546 4.71263L17.4186 3.304H15.944V5.304ZM26.76 40.248L24.8494 40.8394L25.2854 42.248H26.76V40.248ZM26.952 40.248V42.248H28.4011L28.8525 40.871L26.952 40.248ZM38.408 5.304V3.304H36.9589L36.5075 4.68095L38.408 5.304ZM51.592 5.304H53.592V3.304H51.592V5.304ZM51.592 51V53H53.592V51H51.592ZM42.568 51H40.568V53H42.568V51ZM42.632 24.376L40.6341 24.2852L40.633 24.3079L40.6325 24.3306L42.632 24.376ZM42.824 19.064L40.8265 18.9641L40.8253 18.9884L40.8247 19.0127L42.824 19.064ZM43.016 15.224L45.0135 15.3239L45.1185 13.224H43.016V15.224ZM42.76 15.224V13.224H41.3128L40.8603 14.5987L42.76 15.224ZM30.984 51V53H32.4312L32.8837 51.6253L30.984 51ZM23.9999 50.4128L12.9919 14.5728L9.16815 15.7472L20.1761 51.5872L23.9999 50.4128ZM11.08 13.16H10.824V17.16H11.08V13.16ZM8.8265 15.2599C8.86916 16.1132 8.93316 17.3932 9.0185 19.0999L13.0135 18.9001C12.9282 17.1935 12.8642 15.9135 12.8215 15.0601L8.8265 15.2599ZM9.0185 19.0999C9.10358 20.8016 9.18872 22.6319 9.27389 24.5909L13.2701 24.4171C13.1846 22.4507 13.0991 20.6117 13.0135 18.9001L9.0185 19.0999ZM9.27397 24.5928C9.35826 26.4893 9.4 28.2085 9.4 29.752H13.4C13.4 28.1382 13.3564 26.3587 13.27 24.4152L9.27397 24.5928ZM9.4 29.752V51H13.4V29.752H9.4ZM11.4 49H2.76V53H11.4V49ZM4.76 51V5.304H0.76V51H4.76ZM2.76 7.304H15.944V3.304H2.76V7.304ZM14.0334 5.89536L24.8494 40.8394L28.6706 39.6566L17.8546 4.71263L14.0334 5.89536ZM26.76 42.248H26.952V38.248H26.76V42.248ZM28.8525 40.871L40.3085 5.92705L36.5075 4.68095L25.0515 39.6249L28.8525 40.871ZM38.408 7.304H51.592V3.304H38.408V7.304ZM49.592 5.304V51H53.592V5.304H49.592ZM51.592 49H42.568V53H51.592V49ZM44.568 51V29.368H40.568V51H44.568ZM44.568 29.368C44.568 27.9361 44.5891 26.2878 44.6315 24.4214L40.6325 24.3306C40.5896 26.2189 40.568 27.8985 40.568 29.368H44.568ZM44.6299 24.4668C44.7158 22.5779 44.7803 20.794 44.8233 19.1153L40.8247 19.0127C40.7824 20.662 40.7189 22.4194 40.6341 24.2852L44.6299 24.4668ZM44.8215 19.1639C44.9068 17.4572 44.9708 16.1772 45.0135 15.3239L41.0185 15.1241C40.9758 15.9775 40.9118 17.2575 40.8265 18.9641L44.8215 19.1639ZM43.016 13.224H42.76V17.224H43.016V13.224ZM40.8603 14.5987L29.0843 50.3747L32.8837 51.6253L44.6597 15.8493L40.8603 14.5987ZM30.984 49H22.088V53H30.984V49ZM59.295 16.056V14.056H56.3399L57.4383 16.7994L59.295 16.056ZM69.727 16.056L71.6231 15.4198L71.1656 14.056H69.727V16.056ZM76.319 35.704L78.2164 35.0715L78.2151 35.0678L76.319 35.704ZM76.831 37.624L74.8698 38.0162L74.8822 38.0782L74.8985 38.1393L76.831 37.624ZM77.215 39.608L75.2304 39.8561L75.238 39.9166L75.2493 39.9766L77.215 39.608ZM77.471 41.784L75.4741 41.8949L75.579 43.784H77.471V41.784ZM77.663 41.784V43.784H79.4455L79.6498 42.0132L77.663 41.784ZM78.175 38.648L76.2347 38.1629L76.2272 38.1929L76.2206 38.2231L78.175 38.648ZM79.007 35.704L77.1072 35.079L77.1041 35.0883L77.1012 35.0976L79.007 35.704ZM85.471 16.056V14.056H84.0235L83.5712 15.431L85.471 16.056ZM95.711 16.056L97.5837 16.7582L98.597 14.056H95.711V16.056ZM80.927 55.48L82.7997 56.1822L80.927 55.48ZM77.407 61.496L75.9165 60.1624L75.9066 60.1734L75.8969 60.1846L77.407 61.496ZM72.479 65.144L73.2719 66.9801L72.479 65.144ZM63.519 66.168L63.8309 64.1925L63.7855 64.1853L63.7399 64.1802L63.519 66.168ZM61.471 65.848H59.471V67.4648L61.0519 67.8036L61.471 65.848ZM61.471 58.296L61.8288 56.3283L59.471 55.8996V58.296H61.471ZM63.135 58.552L62.8707 60.5345L62.8788 60.5355L62.8869 60.5366L63.135 58.552ZM68.639 57.848L67.6549 56.1069L67.6381 56.1164L67.6215 56.1261L68.639 57.848ZM71.071 55.544L69.4185 54.4173L69.407 54.4343L69.3958 54.4515L71.071 55.544ZM72.607 52.472L74.497 53.1262L74.5007 53.1154L74.5044 53.1045L72.607 52.472ZM73.183 50.744L75.0804 51.3765L75.3121 50.6811L75.0397 50.0006L73.183 50.744ZM59.295 18.056H69.727V14.056H59.295V18.056ZM67.8309 16.6922L74.4229 36.3402L78.2151 35.0678L71.6231 15.4198L67.8309 16.6922ZM74.4216 36.3365C74.6096 36.9004 74.7586 37.4602 74.8698 38.0162L78.7922 37.2318C78.6474 36.5078 78.455 35.7876 78.2164 35.0715L74.4216 36.3365ZM74.8985 38.1393C75.0449 38.6882 75.1559 39.2601 75.2304 39.8561L79.1996 39.3599C79.1034 38.5906 78.9584 37.8398 78.7635 37.1087L74.8985 38.1393ZM75.2493 39.9766C75.3597 40.5656 75.4357 41.2043 75.4741 41.8949L79.4679 41.6731C79.421 40.8277 79.3263 40.0157 79.1807 39.2394L75.2493 39.9766ZM77.471 43.784H77.663V39.784H77.471V43.784ZM79.6498 42.0132C79.7711 40.9625 79.9315 39.9829 80.1293 39.0729L76.2206 38.2231C75.9918 39.2758 75.8109 40.3869 75.6762 41.5547L79.6498 42.0132ZM80.1153 39.1331C80.3618 38.147 80.6278 37.2063 80.9128 36.3104L77.1012 35.0976C76.7889 36.0791 76.5002 37.101 76.2347 38.1629L80.1153 39.1331ZM80.9068 36.329L87.3708 16.681L83.5712 15.431L77.1072 35.079L80.9068 36.329ZM85.471 18.056H95.711V14.056H85.471V18.056ZM93.8383 15.3538L79.0543 54.7778L82.7997 56.1822L97.5837 16.7582L93.8383 15.3538ZM79.0543 54.7778C78.2307 56.9742 77.1758 58.755 75.9165 60.1624L78.8975 62.8296C80.5396 60.9943 81.8313 58.7645 82.7997 56.1822L79.0543 54.7778ZM75.8969 60.1846C74.6755 61.5911 73.2743 62.6221 71.6861 63.3079L73.2719 66.9801C75.4384 66.0446 77.3225 64.6436 78.9171 62.8074L75.8969 60.1846ZM71.6861 63.3079C70.0798 64.0015 68.3044 64.36 66.335 64.36V68.36C68.803 68.36 71.1236 67.9078 73.2719 66.9801L71.6861 63.3079ZM66.335 64.36C65.3437 64.36 64.5132 64.3002 63.8309 64.1925L63.2071 68.1435C64.1462 68.2918 65.193 68.36 66.335 68.36V64.36ZM63.7399 64.1802C63.0219 64.1005 62.4075 64.0033 61.8901 63.8924L61.0519 67.8036C61.7292 67.9487 62.4801 68.0649 63.2981 68.1558L63.7399 64.1802ZM63.471 65.848V58.296H59.471V65.848H63.471ZM61.1132 60.2637C61.6222 60.3563 62.2095 60.4463 62.8707 60.5345L63.3993 56.5695C62.7805 56.487 62.2585 56.4064 61.8288 56.3283L61.1132 60.2637ZM62.8869 60.5366C63.6562 60.6327 64.4432 60.68 65.247 60.68V56.68C64.6001 56.68 63.9791 56.642 63.3831 56.5674L62.8869 60.5366ZM65.247 60.68C66.8513 60.68 68.35 60.3418 69.6565 59.5699L67.6215 56.1261C67.0506 56.4635 66.288 56.68 65.247 56.68V60.68ZM69.6231 59.5891C70.8946 58.8705 71.9383 57.8754 72.7462 56.6365L69.3958 54.4515C68.9237 55.1753 68.3461 55.7162 67.6549 56.1069L69.6231 59.5891ZM72.7235 56.6707C73.4665 55.5809 74.057 54.3973 74.497 53.1262L70.717 51.8178C70.389 52.7654 69.9555 53.6298 69.4185 54.4173L72.7235 56.6707ZM74.5044 53.1045L75.0804 51.3765L71.2856 50.1115L70.7096 51.8395L74.5044 53.1045ZM75.0397 50.0006L61.1517 15.3126L57.4383 16.7994L71.3263 51.4874L75.0397 50.0006ZM147.238 38.776L149.191 38.3465L149.188 38.3322L149.184 38.3179L147.238 38.776ZM146.469 35.576L144.511 35.9793L144.518 36.0134L144.526 36.0472L146.469 35.576ZM145.445 30.968L143.497 31.4177L143.499 31.4289L145.445 30.968ZM144.357 26.424L142.414 26.8952L142.415 26.9021L142.417 26.9091L144.357 26.424ZM143.654 23.352L145.615 22.9598L145.293 21.352H143.654V23.352ZM143.398 23.352V21.352H141.758L141.436 22.9598L143.398 23.352ZM142.694 26.424L140.75 25.9528L140.745 25.9746L140.74 25.9966L142.694 26.424ZM141.67 30.968L143.616 31.4289L143.618 31.4177L141.67 30.968ZM140.581 35.576L138.635 35.1179V35.1179L140.581 35.576ZM139.814 38.904L141.761 39.3575L141.764 39.3477L141.766 39.3379L139.814 38.904ZM136.997 51V53H138.585L138.945 51.4535L136.997 51ZM126.758 51L124.834 51.5462L125.246 53H126.758V51ZM116.838 16.056V14.056H114.191L114.914 16.6022L116.838 16.056ZM126.31 16.056L128.245 15.5521L127.855 14.056H126.31V16.056ZM130.342 31.544L128.406 32.0479L128.411 32.0656L128.416 32.0833L130.342 31.544ZM131.109 35.384L129.13 35.6668L129.134 35.6944L129.138 35.7219L131.109 35.384ZM131.814 39.736L129.836 40.0356L129.837 40.0448L131.814 39.736ZM132.262 43L130.272 43.2094L130.461 45H132.262V43ZM132.518 43V45H134.38L134.512 43.1425L132.518 43ZM132.773 40.632L134.757 40.8907L134.758 40.8801L132.773 40.632ZM133.221 37.496L131.26 37.1038L131.253 37.1418L131.247 37.18L133.221 37.496ZM133.734 34.616L131.769 34.2418L131.761 34.2804L131.756 34.3193L133.734 34.616ZM134.118 32.824L136.041 33.3734L136.048 33.3466L136.055 33.3195L134.118 32.824ZM138.406 16.056V14.056H136.853L136.468 15.5605L138.406 16.056ZM148.902 16.056L150.844 15.5814L150.472 14.056H148.902V16.056ZM152.997 32.824L151.055 33.2986L151.064 33.3362L151.074 33.3734L152.997 32.824ZM153.574 35.704L151.599 36.0225L151.604 36.0533L151.61 36.084L153.574 35.704ZM154.214 39.736L152.229 39.9841L152.233 40.0145L152.237 40.0448L154.214 39.736ZM154.534 43H152.534V45H154.534V43ZM154.79 43V45H156.568L156.776 43.2337L154.79 43ZM155.238 39.864L157.214 40.1728L157.215 40.1636L155.238 39.864ZM155.941 35.448L153.978 35.0663L153.973 35.0927L153.969 35.1192L155.941 35.448ZM156.838 31.544L158.763 32.0833L158.766 32.073L158.769 32.0628L156.838 31.544ZM160.997 16.056V14.056H159.464L159.066 15.5372L160.997 16.056ZM170.342 16.056L172.264 16.6087L172.998 14.056H170.342V16.056ZM160.294 51V53H161.799L162.216 51.5527L160.294 51ZM149.926 51L147.972 51.4295L148.318 53H149.926V51ZM149.184 38.3179C149.012 37.5859 148.755 36.5139 148.413 35.1048L144.526 36.0472C144.867 37.4541 145.122 38.5155 145.291 39.2341L149.184 38.3179ZM148.428 35.1727C148.125 33.7006 147.78 32.1452 147.392 30.5071L143.499 31.4289C143.879 33.0334 144.216 34.5501 144.511 35.9793L148.428 35.1727ZM147.394 30.5183C147.008 28.8449 146.643 27.3182 146.298 25.9389L142.417 26.9091C142.755 28.2605 143.115 29.7631 143.497 31.4177L147.394 30.5183ZM146.301 25.9528C145.96 24.5474 145.734 23.5571 145.615 22.9598L141.692 23.7442C141.829 24.4269 142.072 25.4846 142.414 26.8952L146.301 25.9528ZM143.654 21.352H143.398V25.352H143.654V21.352ZM141.436 22.9598C141.317 23.5571 141.091 24.5474 140.75 25.9528L144.637 26.8952C144.979 25.4846 145.222 24.4269 145.359 23.7442L141.436 22.9598ZM140.74 25.9966C140.443 27.3531 140.103 28.8602 139.721 30.5183L143.618 31.4177C144.004 29.7478 144.347 28.2256 144.647 26.8514L140.74 25.9966ZM139.723 30.5071C139.339 32.1292 138.976 33.6662 138.635 35.1179L142.528 36.0341C142.869 34.5845 143.232 33.0494 143.616 31.4289L139.723 30.5071ZM138.635 35.1179C138.293 36.5709 138.035 37.6898 137.861 38.4701L141.766 39.3379C141.934 38.5822 142.188 37.4824 142.528 36.0341L138.635 35.1179ZM137.866 38.4505L135.05 50.5465L138.945 51.4535L141.761 39.3575L137.866 38.4505ZM136.997 49H126.758V53H136.997V49ZM128.681 50.4538L118.761 15.5098L114.914 16.6022L124.834 51.5462L128.681 50.4538ZM116.838 18.056H126.31V14.056H116.838V18.056ZM124.374 16.5599L128.406 32.0479L132.277 31.0401L128.245 15.5521L124.374 16.5599ZM128.416 32.0833C128.684 33.0418 128.925 34.2314 129.13 35.6668L133.089 35.1012C132.868 33.5499 132.596 32.1795 132.267 31.0047L128.416 32.0833ZM129.138 35.7219C129.392 37.2033 129.625 38.6412 129.836 40.0356L133.791 39.4364C133.576 38.0148 133.339 36.5514 133.081 35.0461L129.138 35.7219ZM129.837 40.0448C130.049 41.3963 130.192 42.4469 130.272 43.2094L134.251 42.7906C134.16 41.9318 134.005 40.8064 133.79 39.4272L129.837 40.0448ZM132.262 45H132.518V41H132.262V45ZM134.512 43.1425C134.551 42.6008 134.631 41.8547 134.757 40.8907L130.79 40.3733C130.66 41.3719 130.569 42.2046 130.523 42.8575L134.512 43.1425ZM134.758 40.8801C134.883 39.8798 135.029 38.8571 135.196 37.812L131.247 37.18C131.073 38.2682 130.92 39.3362 130.789 40.3839L134.758 40.8801ZM135.183 37.8882C135.401 36.7976 135.578 35.8049 135.711 34.9127L131.756 34.3193C131.633 35.1337 131.469 36.0611 131.26 37.1038L135.183 37.8882ZM135.698 34.9902C135.871 34.0808 135.984 33.5715 136.041 33.3734L132.194 32.2746C132.08 32.6739 131.937 33.3592 131.769 34.2418L135.698 34.9902ZM136.055 33.3195L140.343 16.5515L136.468 15.5605L132.18 32.3285L136.055 33.3195ZM138.406 18.056H148.902V14.056H138.406V18.056ZM146.959 16.5306L151.055 33.2986L154.94 32.3494L150.844 15.5814L146.959 16.5306ZM151.074 33.3734C151.21 33.8493 151.387 34.71 151.599 36.0225L155.548 35.3855C155.333 34.0527 155.126 32.9933 154.921 32.2746L151.074 33.3734ZM151.61 36.084C151.857 37.362 152.064 38.662 152.229 39.9841L156.198 39.4879C156.022 38.0793 155.802 36.6913 155.537 35.324L151.61 36.084ZM152.237 40.0448C152.444 41.3684 152.534 42.3398 152.534 43H156.534C156.534 42.0389 156.409 40.8343 156.19 39.4272L152.237 40.0448ZM154.534 45H154.79V41H154.534V45ZM156.776 43.2337C156.857 42.5465 157.001 41.5309 157.214 40.1728L153.261 39.5552C153.047 40.9278 152.893 42.0028 152.803 42.7663L156.776 43.2337ZM157.215 40.1636C157.427 38.7662 157.66 37.304 157.914 35.7768L153.969 35.1192C153.711 36.664 153.475 38.1458 153.26 39.5644L157.215 40.1636ZM157.905 35.8297C158.197 34.327 158.484 33.0817 158.763 32.0833L154.912 31.0047C154.594 32.1397 154.283 33.497 153.978 35.0663L157.905 35.8297ZM158.769 32.0628L162.929 16.5748L159.066 15.5372L154.906 31.0252L158.769 32.0628ZM160.997 18.056H170.342V14.056H160.997V18.056ZM168.419 15.5033L158.371 50.4473L162.216 51.5527L172.264 16.6087L168.419 15.5033ZM160.294 49H149.926V53H160.294V49ZM151.879 50.5705L149.191 38.3465L145.284 39.2055L147.972 51.4295L151.879 50.5705ZM208.45 41.208L206.567 40.5331L206.562 40.5489L206.556 40.5648L208.45 41.208ZM205.058 46.968L203.605 45.5936L203.604 45.5948L205.058 46.968ZM199.746 50.488L200.436 52.3653L200.452 52.3592L200.469 52.3527L199.746 50.488ZM185.858 50.488L185.122 52.3476L185.145 52.3568L185.168 52.3653L185.858 50.488ZM180.546 46.968L179.093 48.3424L179.102 48.3523L179.112 48.3622L180.546 46.968ZM177.026 41.208L175.143 41.8829L175.149 41.8986L175.155 41.9141L177.026 41.208ZM177.858 23.672L179.635 24.5893L179.641 24.5777L177.858 23.672ZM183.746 17.528L184.71 19.2804L184.71 19.2804L183.746 17.528ZM201.538 17.528L200.562 19.2735V19.2735L201.538 17.528ZM207.49 23.672L205.73 24.6219L205.736 24.6337L207.49 23.672ZM186.242 39.288L184.325 39.8579L184.334 39.8894L184.345 39.9205L186.242 39.288ZM188.61 42.808L187.4 44.4003L187.42 44.416L187.441 44.4311L188.61 42.808ZM196.866 42.808L198.066 44.408L198.076 44.4003L196.866 42.808ZM199.17 39.288L197.268 38.671L197.262 38.6872L197.257 38.7036L199.17 39.288ZM199.17 27.704L197.257 28.2884L197.265 28.3125L197.273 28.3365L199.17 27.704ZM187.202 25.72L185.532 24.62L185.525 24.63L187.202 25.72ZM207.666 33.464C207.666 36.1816 207.286 38.528 206.567 40.5331L210.333 41.8829C211.235 39.3653 211.666 36.549 211.666 33.464H207.666ZM206.556 40.5648C205.872 42.5808 204.882 44.2441 203.605 45.5936L206.511 48.3424C208.221 46.5346 209.492 44.3579 210.344 41.8512L206.556 40.5648ZM203.604 45.5948C202.37 46.9015 200.854 47.9133 199.023 48.6233L200.469 52.3527C202.819 51.4413 204.845 50.1065 206.512 48.3412L203.604 45.5948ZM199.056 48.6107C197.224 49.2839 195.095 49.64 192.642 49.64V53.64C195.48 53.64 198.087 53.2281 200.436 52.3653L199.056 48.6107ZM192.642 49.64C190.424 49.64 188.398 49.2904 186.548 48.6107L185.168 52.3653C187.499 53.2216 189.996 53.64 192.642 53.64V49.64ZM186.594 48.6284C184.801 47.9188 183.271 46.9013 181.98 45.5738L179.112 48.3622C180.808 50.1067 182.819 51.4359 185.122 52.3476L186.594 48.6284ZM181.999 45.5936C180.707 44.2283 179.667 42.5428 178.897 40.5019L175.155 41.9141C176.091 44.3958 177.398 46.5504 179.093 48.3424L181.999 45.5936ZM178.909 40.5331C178.19 38.528 177.81 36.1816 177.81 33.464H173.81C173.81 36.549 174.241 39.3653 175.143 41.8829L178.909 40.5331ZM177.81 33.464C177.81 29.8067 178.454 26.878 179.635 24.5893L176.081 22.7547C174.531 25.7567 173.81 29.3559 173.81 33.464H177.81ZM179.641 24.5777C180.831 22.2357 182.514 20.4884 184.71 19.2804L182.782 15.7756C179.858 17.3836 177.616 19.7323 176.075 22.7663L179.641 24.5777ZM184.71 19.2804C186.921 18.0641 189.606 17.416 192.834 17.416V13.416C189.065 13.416 185.691 14.1759 182.782 15.7756L184.71 19.2804ZM192.834 17.416C195.826 17.416 198.382 18.0544 200.562 19.2735L202.514 15.7825C199.659 14.1856 196.413 13.416 192.834 13.416V17.416ZM200.562 19.2735C202.728 20.485 204.449 22.2475 205.73 24.6219L209.25 22.7221C207.63 19.7205 205.383 17.387 202.514 15.7825L200.562 19.2735ZM205.736 24.6337C206.986 26.9116 207.666 29.8235 207.666 33.464H211.666C211.666 29.3392 210.896 25.7231 209.244 22.7103L205.736 24.6337ZM183.538 33.464C183.538 35.8904 183.784 38.037 184.325 39.8579L188.159 38.7181C187.762 37.3817 187.538 35.6456 187.538 33.464H183.538ZM184.345 39.9205C184.957 41.7574 185.951 43.2992 187.4 44.4003L189.82 41.2157C189.136 40.6954 188.551 39.8906 188.139 38.6555L184.345 39.9205ZM187.441 44.4311C188.937 45.5082 190.769 45.96 192.77 45.96V41.96C191.358 41.96 190.416 41.6438 189.779 41.1849L187.441 44.4311ZM192.77 45.96C194.766 45.96 196.596 45.5101 198.066 44.408L195.666 41.208C195.088 41.6419 194.187 41.96 192.77 41.96V45.96ZM198.076 44.4003C199.539 43.2885 200.516 41.7281 201.083 39.8724L197.257 38.7036C196.886 39.9199 196.326 40.7062 195.656 41.2157L198.076 44.4003ZM201.072 39.905C201.669 38.0664 201.938 35.9025 201.938 33.464H197.938C197.938 35.6335 197.695 37.3522 197.268 38.671L201.072 39.905ZM201.938 33.464C201.938 31.0282 201.669 28.8777 201.067 27.0715L197.273 28.3365C197.695 29.6023 197.938 31.2918 197.938 33.464H201.938ZM201.083 27.1196C200.515 25.2604 199.529 23.701 198.035 22.6249L195.697 25.8711C196.336 26.331 196.887 27.0756 197.257 28.2884L201.083 27.1196ZM198.035 22.6249C196.539 21.5478 194.707 21.096 192.706 21.096V25.096C194.118 25.096 195.06 25.4122 195.697 25.8711L198.035 22.6249ZM192.706 21.096C189.672 21.096 187.132 22.1898 185.532 24.62L188.872 26.82C189.576 25.7516 190.705 25.096 192.706 25.096V21.096ZM185.525 24.63C184.104 26.8164 183.538 29.8612 183.538 33.464H187.538C187.538 30.1548 188.081 28.037 188.879 26.81L185.525 24.63ZM240.651 15.48L240.518 17.4756H240.518L240.651 15.48ZM242.187 15.672L244.181 15.8287L244.317 14.0965L242.621 13.7196L242.187 15.672ZM241.483 24.632L240.934 26.555L243.285 27.227L243.477 24.7887L241.483 24.632ZM240.139 24.44L239.835 26.4167L239.915 26.4291L239.997 26.4349L240.139 24.44ZM235.083 24.824L235.585 26.76L235.618 26.7514L235.651 26.7416L235.083 24.824ZM231.947 26.296L230.771 24.6785L230.753 24.6916L230.735 24.7051L231.947 26.296ZM229.771 29.048L227.969 28.1804L227.962 28.1951L227.955 28.2099L229.771 29.048ZM229.003 51V53H231.003V51H229.003ZM219.467 51H217.467V53H219.467V51ZM219.467 16.056V14.056H217.467V16.056H219.467ZM226.699 16.056L228.644 15.5909L228.277 14.056H226.699V16.056ZM228.107 21.944L226.162 22.4091L226.529 23.944H228.107V21.944ZM228.555 21.944V23.944H229.716L230.291 22.9363L228.555 21.944ZM231.115 18.68L232.499 20.124L232.499 20.124L231.115 18.68ZM234.635 16.312L233.833 14.4797L233.823 14.4844L233.812 14.4893L234.635 16.312ZM238.987 17.416C239.399 17.416 239.907 17.4349 240.518 17.4756L240.784 13.4844C240.115 13.4398 239.513 13.416 238.987 13.416V17.416ZM240.518 17.4756C241.111 17.5151 241.51 17.5704 241.753 17.6244L242.621 13.7196C242.096 13.603 241.471 13.5302 240.784 13.4844L240.518 17.4756ZM240.193 15.5153L239.489 24.4753L243.477 24.7887L244.181 15.8287L240.193 15.5153ZM242.032 22.709C241.53 22.5653 240.915 22.4903 240.281 22.4451L239.997 26.4349C240.558 26.475 240.839 26.528 240.934 26.555L242.032 22.709ZM240.443 22.4633C239.817 22.367 239.221 22.312 238.667 22.312V26.312C238.966 26.312 239.351 26.3424 239.835 26.4167L240.443 22.4633ZM238.667 22.312C237.243 22.312 235.857 22.5088 234.515 22.9064L235.651 26.7416C236.613 26.4565 237.616 26.312 238.667 26.312V22.312ZM234.581 22.888C233.193 23.248 231.917 23.8446 230.771 24.6785L233.123 27.9135C233.854 27.3821 234.669 26.9973 235.585 26.76L234.581 22.888ZM230.735 24.7051C229.556 25.6034 228.642 26.7828 227.969 28.1804L231.573 29.9156C232.009 29.0092 232.546 28.3539 233.159 27.8869L230.735 24.7051ZM227.955 28.2099C227.286 29.659 227.003 31.3535 227.003 33.208H231.003C231.003 31.7345 231.232 30.6557 231.587 29.8861L227.955 28.2099ZM227.003 33.208V51H231.003V33.208H227.003ZM229.003 49H219.467V53H229.003V49ZM221.467 51V16.056H217.467V51H221.467ZM219.467 18.056H226.699V14.056H219.467V18.056ZM224.754 16.5211L226.162 22.4091L230.052 21.4789L228.644 15.5909L224.754 16.5211ZM228.107 23.944H228.555V19.944H228.107V23.944ZM230.291 22.9363C230.876 21.9134 231.609 20.9766 232.499 20.124L229.731 17.236C228.573 18.3461 227.599 19.5852 226.819 20.9517L230.291 22.9363ZM232.499 20.124C233.355 19.3035 234.338 18.6408 235.458 18.1347L233.812 14.4893C232.287 15.1779 230.923 16.0938 229.731 17.236L232.499 20.124ZM235.437 18.1443C236.541 17.661 237.718 17.416 238.987 17.416V13.416C237.184 13.416 235.459 13.7683 233.833 14.4797L235.437 18.1443ZM259.794 28.088L257.803 27.8954L257.8 27.9251L257.798 27.955L259.794 28.088ZM259.474 31.992L257.483 31.7993L257.271 33.992H259.474V31.992ZM259.602 31.992V33.992H260.631L261.229 33.1545L259.602 31.992ZM260.882 30.2L259.309 28.9644L259.281 29.0003L259.254 29.0375L260.882 30.2ZM263.762 26.68L265.231 28.0366L265.232 28.0355L263.762 26.68ZM273.553 16.056V14.056H272.677L272.083 14.7005L273.553 16.056ZM284.306 16.056L285.781 17.4066L288.848 14.056H284.306V16.056ZM270.418 31.224L268.942 29.8734L267.826 31.0924L268.813 32.4182L270.418 31.224ZM285.138 51V53H289.119L286.742 49.8058L285.138 51ZM274.13 51L272.499 52.1583L273.097 53H274.13V51ZM264.082 36.856L265.712 35.6977L264.488 33.9748L262.835 35.2919L264.082 36.856ZM259.986 40.12L258.739 38.5559L257.986 39.1564V40.12H259.986ZM259.986 51V53H261.986V51H259.986ZM250.45 51H248.45V53H250.45V51ZM250.45 2.36V0.359997H248.45V2.36H250.45ZM259.986 2.36H261.986V0.359997H259.986V2.36ZM257.986 24.12C257.986 25.378 257.925 26.6364 257.803 27.8954L261.784 28.2806C261.918 26.8943 261.986 25.5073 261.986 24.12H257.986ZM257.798 27.955C257.714 29.2144 257.609 30.4958 257.483 31.7993L261.464 32.1846C261.594 30.8428 261.702 29.5216 261.789 28.221L257.798 27.955ZM259.474 33.992H259.602V29.992H259.474V33.992ZM261.229 33.1545C261.656 32.5571 262.082 31.9598 262.509 31.3625L259.254 29.0375C258.827 29.6349 258.401 30.2322 257.974 30.8295L261.229 33.1545ZM262.454 31.4356C262.923 30.8383 263.393 30.241 263.862 29.6436L260.717 27.1724C260.248 27.7697 259.778 28.367 259.309 28.9644L262.454 31.4356ZM263.862 29.6436C264.299 29.0877 264.755 28.5521 265.231 28.0366L262.292 25.3234C261.744 25.9173 261.219 26.5336 260.717 27.1724L263.862 29.6436ZM265.232 28.0355L275.024 17.4115L272.083 14.7005L262.291 25.3245L265.232 28.0355ZM273.553 18.056H284.306V14.056H273.553V18.056ZM282.83 14.7054L268.942 29.8734L271.893 32.5746L285.781 17.4066L282.83 14.7054ZM268.813 32.4182L283.533 52.1942L286.742 49.8058L272.022 30.0298L268.813 32.4182ZM285.138 49H274.13V53H285.138V49ZM275.76 49.8417L265.712 35.6977L262.451 38.0143L272.499 52.1583L275.76 49.8417ZM262.835 35.2919L258.739 38.5559L261.232 41.6841L265.328 38.4201L262.835 35.2919ZM257.986 40.12V51H261.986V40.12H257.986ZM259.986 49H250.45V53H259.986V49ZM252.45 51V2.36H248.45V51H252.45ZM250.45 4.36H259.986V0.359997H250.45V4.36ZM257.986 2.36V24.12H261.986V2.36H257.986ZM314.777 46.648L316.428 47.7774L316.434 47.7674L316.441 47.7574L314.777 46.648ZM309.785 50.36L310.503 52.2267L309.785 50.36ZM295.257 51.128L295.64 49.165L295.617 49.1605L295.594 49.1565L295.257 51.128ZM290.009 49.592H288.009V50.9278L289.243 51.4395L290.009 49.592ZM290.009 41.72L290.837 39.8993L288.009 38.614V41.72H290.009ZM305.817 43.832L304.688 42.1814L304.667 42.1957L304.646 42.2106L305.817 43.832ZM306.521 40.056L304.834 41.1298L304.867 41.1821L304.904 41.2323L306.521 40.056ZM299.481 36.152L298.689 37.9884L298.702 37.9939L298.714 37.9992L299.481 36.152ZM294.105 33.4L292.996 35.0641L293.013 35.0759L293.031 35.0873L294.105 33.4ZM290.969 30.072L289.192 30.9893L289.198 31.0013L289.204 31.0132L290.969 30.072ZM293.721 17.848L294.804 19.5294V19.5294L293.721 17.848ZM309.977 16.056L309.552 18.0104L309.977 16.056ZM316.057 18.168L317.901 18.9433L318.645 17.1734L316.907 16.3575L316.057 18.168ZM313.177 25.016L312.365 26.8436L314.229 27.6724L315.021 25.7913L313.177 25.016ZM309.849 23.672L309.172 25.5538V25.5538L309.849 23.672ZM306.713 22.776L306.288 24.7304L306.297 24.7322L306.305 24.734L306.713 22.776ZM300.441 23.032L299.505 21.2644L299.483 21.2764L299.46 21.2888L300.441 23.032ZM299.929 26.296L298.312 27.4723L298.373 27.5565L298.442 27.6339L299.929 26.296ZM302.041 27.704L301.147 29.4929L301.161 29.5001L301.176 29.507L302.041 27.704ZM306.713 29.752L305.944 31.5982L305.954 31.6022L305.963 31.6062L306.713 29.752ZM311.897 32.312L310.846 34.0136L310.864 34.0249L310.883 34.0359L311.897 32.312ZM315.225 35.576L313.495 36.5803L313.515 36.6136L313.535 36.6461L315.225 35.576ZM314.441 40.632C314.441 42.6538 313.967 44.2569 313.113 45.5386L316.441 47.7574C317.805 45.7111 318.441 43.3035 318.441 40.632H314.441ZM313.126 45.5186C312.29 46.7404 310.988 47.7545 309.067 48.4933L310.503 52.2267C313.019 51.2589 315.045 49.7983 316.428 47.7774L313.126 45.5186ZM309.067 48.4933C307.147 49.2319 304.656 49.64 301.529 49.64V53.64C304.973 53.64 307.986 53.1948 310.503 52.2267L309.067 48.4933ZM301.529 49.64C299.183 49.64 297.227 49.4747 295.64 49.165L294.874 53.091C296.786 53.464 299.011 53.64 301.529 53.64V49.64ZM295.594 49.1565C294.001 48.8846 292.396 48.4164 290.775 47.7445L289.243 51.4395C291.121 52.2183 293.014 52.774 294.92 53.0995L295.594 49.1565ZM292.009 49.592V41.72H288.009V49.592H292.009ZM289.181 43.5407C291.175 44.447 293.315 45.1887 295.595 45.77L296.583 41.894C294.511 41.3659 292.597 40.6996 290.837 39.8993L289.181 43.5407ZM295.595 45.77C297.88 46.3525 299.972 46.664 301.849 46.664V42.664C300.398 42.664 298.65 42.4208 296.583 41.894L295.595 45.77ZM301.849 46.664C303.801 46.664 305.678 46.3994 306.988 45.4534L304.646 42.2106C304.42 42.374 303.651 42.664 301.849 42.664V46.664ZM306.946 45.4826C308.24 44.5973 309.033 43.2835 309.033 41.656H305.033C305.033 41.8205 305.015 41.9573 304.688 42.1814L306.946 45.4826ZM309.033 41.656C309.033 40.6492 308.736 39.7014 308.138 38.8797L304.904 41.2323C304.989 41.3493 305.033 41.4681 305.033 41.656H309.033ZM308.208 38.9822C307.619 38.0567 306.538 37.3201 305.45 36.711L303.496 40.201C303.973 40.4684 304.318 40.6957 304.554 40.88C304.804 41.0757 304.855 41.1635 304.834 41.1298L308.208 38.9822ZM305.45 36.711C304.277 36.0543 302.525 35.25 300.248 34.3048L298.714 37.9992C300.96 38.9313 302.535 39.6631 303.496 40.201L305.45 36.711ZM300.273 34.3156C298.158 33.4031 296.468 32.5334 295.179 31.7127L293.031 35.0873C294.558 36.0586 296.452 37.0236 298.689 37.9884L300.273 34.3156ZM295.214 31.7359C294.035 30.9498 293.237 30.0744 292.734 29.1308L289.204 31.0132C290.066 32.6296 291.359 33.9729 292.996 35.0641L295.214 31.7359ZM292.746 29.1547C292.249 28.1914 291.945 26.8853 291.945 25.144H287.945C287.945 27.328 288.324 29.3073 289.192 30.9893L292.746 29.1547ZM291.945 25.144C291.945 22.514 292.913 20.7476 294.804 19.5294L292.638 16.1666C289.495 18.1911 287.945 21.2887 287.945 25.144H291.945ZM294.804 19.5294C296.894 18.1832 299.825 17.416 303.769 17.416V13.416C299.35 13.416 295.582 14.2701 292.638 16.1666L294.804 19.5294ZM303.769 17.416C305.814 17.416 307.74 17.6164 309.552 18.0104L310.402 14.1016C308.289 13.6422 306.076 13.416 303.769 13.416V17.416ZM309.552 18.0104C311.348 18.4008 313.233 19.0516 315.207 19.9785L316.907 16.3575C314.7 15.3217 312.531 14.5645 310.402 14.1016L309.552 18.0104ZM314.213 17.3927L311.333 24.2407L315.021 25.7913L317.901 18.9433L314.213 17.3927ZM313.989 23.1884C312.798 22.6588 311.643 22.1923 310.526 21.7902L309.172 25.5538C310.188 25.9197 311.252 26.3492 312.365 26.8436L313.989 23.1884ZM310.526 21.7902C309.379 21.3772 308.244 21.0519 307.121 20.818L306.305 24.734C307.23 24.9267 308.186 25.1988 309.172 25.5538L310.526 21.7902ZM307.138 20.8216C306.009 20.5762 304.842 20.456 303.641 20.456V24.456C304.574 24.456 305.455 24.5492 306.288 24.7304L307.138 20.8216ZM303.641 20.456C302.11 20.456 300.657 20.6549 299.505 21.2644L301.377 24.7996C301.676 24.6411 302.356 24.456 303.641 24.456V20.456ZM299.46 21.2888C298.164 22.0183 297.417 23.2518 297.417 24.76H301.417C301.417 24.7164 301.422 24.7032 301.419 24.7123C301.418 24.7167 301.416 24.725 301.411 24.7361C301.407 24.7473 301.401 24.7594 301.394 24.7716C301.386 24.7838 301.379 24.794 301.373 24.802C301.366 24.81 301.362 24.8142 301.361 24.8151C301.359 24.8168 301.375 24.8013 301.422 24.7752L299.46 21.2888ZM297.417 24.76C297.417 25.7577 297.734 26.678 298.312 27.4723L301.546 25.1197C301.441 24.9753 301.417 24.8716 301.417 24.76H297.417ZM298.442 27.6339C299.089 28.3523 300.076 28.9577 301.147 29.4929L302.935 25.9151C301.958 25.4262 301.537 25.0931 301.416 24.9581L298.442 27.6339ZM301.176 29.507C302.29 30.0421 303.886 30.7408 305.944 31.5982L307.482 27.9058C305.444 27.0565 303.925 26.3899 302.906 25.901L301.176 29.507ZM305.963 31.6062C307.891 32.3853 309.513 33.1902 310.846 34.0136L312.948 30.6104C311.38 29.6418 309.546 28.7401 307.463 27.8978L305.963 31.6062ZM310.883 34.0359C312.068 34.7328 312.917 35.5842 313.495 36.5803L316.955 34.5717C315.997 32.9225 314.628 31.5979 312.911 30.5881L310.883 34.0359ZM313.535 36.6461C314.08 37.5062 314.441 38.7816 314.441 40.632H318.441C318.441 38.3011 317.991 36.2058 316.915 34.5059L313.535 36.6461Z" fill="#212121" mask="url(#path-1-outside-1_457_625)"/>
</svg>
