<svg width="274" height="54" viewBox="0 0 274 54" fill="none" xmlns="http://www.w3.org/2000/svg">
<mask id="path-1-outside-1_317_279" maskUnits="userSpaceOnUse" x="0" y="0" width="274" height="54" fill="black">
<rect fill="white" width="274" height="54"/>
<path d="M32.704 38.328C32.704 41.016 32.0427 43.3627 30.72 45.368C29.3973 47.3733 27.4773 48.9307 24.96 50.04C22.4853 51.1067 19.456 51.64 15.872 51.64C14.2933 51.64 12.736 51.5333 11.2 51.32C9.70667 51.1067 8.256 50.808 6.848 50.424C5.48267 49.9973 4.18133 49.4853 2.944 48.888V39.864C5.12 40.8027 7.36 41.6773 9.664 42.488C12.0107 43.256 14.336 43.64 16.64 43.64C18.2187 43.64 19.4773 43.4267 20.416 43C21.3973 42.5733 22.1013 41.9973 22.528 41.272C22.9973 40.5467 23.232 39.7147 23.232 38.776C23.232 37.624 22.8267 36.6427 22.016 35.832C21.248 35.0213 20.2027 34.2747 18.88 33.592C17.5573 32.8667 16.0427 32.0987 14.336 31.288C13.2693 30.776 12.1173 30.1787 10.88 29.496C9.64267 28.7707 8.448 27.896 7.296 26.872C6.18667 25.8053 5.26933 24.5253 4.544 23.032C3.81867 21.5387 3.456 19.7467 3.456 17.656C3.456 14.9253 4.07467 12.6 5.312 10.68C6.592 8.71733 8.384 7.224 10.688 6.2C13.0347 5.176 15.7867 4.664 18.944 4.664C21.3333 4.664 23.5947 4.94133 25.728 5.496C27.904 6.05067 30.1653 6.84 32.512 7.864L29.376 15.416C27.2853 14.5627 25.408 13.9013 23.744 13.432C22.08 12.9627 20.3733 12.728 18.624 12.728C17.4293 12.728 16.4053 12.92 15.552 13.304C14.6987 13.688 14.0373 14.2213 13.568 14.904C13.1413 15.5867 12.928 16.3973 12.928 17.336C12.928 18.4027 13.248 19.32 13.888 20.088C14.528 20.8133 15.488 21.5173 16.768 22.2C18.048 22.8827 19.648 23.6933 21.568 24.632C23.9147 25.7413 25.8987 26.8933 27.52 28.088C29.184 29.2827 30.464 30.6907 31.36 32.312C32.256 33.9333 32.704 35.9387 32.704 38.328ZM56.562 15.416C59.8047 15.416 62.578 16.0347 64.882 17.272C67.2287 18.5093 69.042 20.3013 70.322 22.648C71.602 24.9947 72.242 27.8747 72.242 31.288V35.896H49.714C49.7993 38.584 50.5887 40.696 52.082 42.232C53.618 43.768 55.73 44.536 58.418 44.536C60.6793 44.536 62.7273 44.3227 64.562 43.896C66.3967 43.4267 68.2953 42.7227 70.258 41.784V49.144C68.5513 49.9973 66.738 50.616 64.818 51C62.9407 51.4267 60.658 51.64 57.97 51.64C54.4713 51.64 51.378 51 48.69 49.72C46.002 48.3973 43.89 46.4133 42.354 43.768C40.818 41.1227 40.05 37.7947 40.05 33.784C40.05 29.688 40.7327 26.296 42.098 23.608C43.506 20.8773 45.4473 18.8293 47.922 17.464C50.3967 16.0987 53.2767 15.416 56.562 15.416ZM56.626 22.2C54.7913 22.2 53.2553 22.7973 52.018 23.992C50.8233 25.1867 50.1193 27.0427 49.906 29.56H63.282C63.282 28.152 63.026 26.8933 62.514 25.784C62.0447 24.6747 61.3193 23.8 60.338 23.16C59.3567 22.52 58.1193 22.2 56.626 22.2ZM101.414 15.416C101.884 15.416 102.438 15.4373 103.078 15.48C103.718 15.5227 104.23 15.5867 104.614 15.672L103.91 24.632C103.612 24.5467 103.164 24.4827 102.566 24.44C102.012 24.3547 101.521 24.312 101.094 24.312C99.8572 24.312 98.6625 24.4827 97.5105 24.824C96.3585 25.1227 95.3132 25.6133 94.3745 26.296C93.4785 26.9787 92.7532 27.896 92.1985 29.048C91.6865 30.1573 91.4305 31.544 91.4305 33.208V51H81.8945V16.056H89.1265L90.5345 21.944H90.9825C91.6652 20.7493 92.5185 19.6613 93.5425 18.68C94.5665 17.6987 95.7398 16.9093 97.0625 16.312C98.4278 15.7147 99.8785 15.416 101.414 15.416ZM121.197 51L107.885 16.056H117.869L124.589 35.96C124.845 36.728 125.058 37.5387 125.229 38.392C125.442 39.2453 125.592 40.0773 125.677 40.888C125.805 41.6987 125.89 42.4453 125.933 43.128H126.189C126.232 42.4027 126.317 41.6347 126.445 40.824C126.573 40.0133 126.722 39.2027 126.893 38.392C127.106 37.5387 127.341 36.728 127.597 35.96L134.317 16.056H144.301L130.989 51H121.197ZM160.77 16.056V51H151.234V16.056H160.77ZM156.034 2.36C157.442 2.36 158.658 2.70133 159.682 3.384C160.706 4.024 161.218 5.24 161.218 7.032C161.218 8.78133 160.706 9.99733 159.682 10.68C158.658 11.3627 157.442 11.704 156.034 11.704C154.584 11.704 153.346 11.3627 152.322 10.68C151.341 9.99733 150.85 8.78133 150.85 7.032C150.85 5.24 151.341 4.024 152.322 3.384C153.346 2.70133 154.584 2.36 156.034 2.36ZM186.863 51.64C183.407 51.64 180.463 51.0213 178.031 49.784C175.599 48.504 173.743 46.5413 172.463 43.896C171.183 41.2507 170.543 37.8587 170.543 33.72C170.543 29.4533 171.268 25.976 172.719 23.288C174.169 20.6 176.175 18.616 178.735 17.336C181.337 16.056 184.324 15.416 187.695 15.416C190.084 15.416 192.153 15.6507 193.903 16.12C195.695 16.5893 197.252 17.144 198.575 17.784L195.759 25.144C194.265 24.5467 192.857 24.056 191.535 23.672C190.255 23.288 188.975 23.096 187.695 23.096C186.031 23.096 184.644 23.5013 183.535 24.312C182.425 25.08 181.593 26.2533 181.039 27.832C180.527 29.368 180.271 31.3093 180.271 33.656C180.271 35.96 180.548 37.88 181.103 39.416C181.7 40.9093 182.553 42.04 183.663 42.808C184.772 43.5333 186.116 43.896 187.695 43.896C189.7 43.896 191.471 43.64 193.007 43.128C194.543 42.5733 196.036 41.8267 197.487 40.888V49.016C196.036 49.9547 194.5 50.616 192.879 51C191.3 51.4267 189.295 51.64 186.863 51.64ZM221.85 15.416C225.092 15.416 227.866 16.0347 230.17 17.272C232.516 18.5093 234.33 20.3013 235.61 22.648C236.89 24.9947 237.53 27.8747 237.53 31.288V35.896H215.002C215.087 38.584 215.876 40.696 217.37 42.232C218.906 43.768 221.018 44.536 223.706 44.536C225.967 44.536 228.015 44.3227 229.85 43.896C231.684 43.4267 233.583 42.7227 235.546 41.784V49.144C233.839 49.9973 232.026 50.616 230.106 51C228.228 51.4267 225.946 51.64 223.258 51.64C219.759 51.64 216.666 51 213.978 49.72C211.29 48.3973 209.178 46.4133 207.642 43.768C206.106 41.1227 205.338 37.7947 205.338 33.784C205.338 29.688 206.02 26.296 207.386 23.608C208.794 20.8773 210.735 18.8293 213.21 17.464C215.684 16.0987 218.564 15.416 221.85 15.416ZM221.914 22.2C220.079 22.2 218.543 22.7973 217.306 23.992C216.111 25.1867 215.407 27.0427 215.194 29.56H228.57C228.57 28.152 228.314 26.8933 227.802 25.784C227.332 24.6747 226.607 23.8 225.626 23.16C224.644 22.52 223.407 22.2 221.914 22.2ZM271.566 40.632C271.566 42.9787 271.011 44.984 269.902 46.648C268.793 48.2693 267.129 49.5067 264.91 50.36C262.691 51.2133 259.939 51.64 256.654 51.64C254.222 51.64 252.131 51.4693 250.382 51.128C248.633 50.8293 246.883 50.3173 245.134 49.592V41.72C247.011 42.5733 249.038 43.2773 251.214 43.832C253.39 44.3867 255.31 44.664 256.974 44.664C258.851 44.664 260.174 44.3867 260.942 43.832C261.753 43.2773 262.158 42.552 262.158 41.656C262.158 41.0587 261.987 40.5253 261.646 40.056C261.347 39.5867 260.665 39.0533 259.598 38.456C258.531 37.8587 256.867 37.0907 254.606 36.152C252.43 35.2133 250.638 34.296 249.23 33.4C247.822 32.4613 246.777 31.352 246.094 30.072C245.411 28.7493 245.07 27.1067 245.07 25.144C245.07 21.9013 246.329 19.4693 248.846 17.848C251.363 16.2267 254.713 15.416 258.894 15.416C261.07 15.416 263.139 15.6293 265.102 16.056C267.065 16.4827 269.091 17.1867 271.182 18.168L268.302 25.016C267.15 24.504 266.041 24.056 264.974 23.672C263.907 23.288 262.862 22.9893 261.838 22.776C260.857 22.5627 259.833 22.456 258.766 22.456C257.358 22.456 256.291 22.648 255.566 23.032C254.883 23.416 254.542 23.992 254.542 24.76C254.542 25.3147 254.713 25.8267 255.054 26.296C255.438 26.7227 256.142 27.192 257.166 27.704C258.233 28.216 259.79 28.8987 261.838 29.752C263.843 30.5627 265.571 31.416 267.022 32.312C268.473 33.1653 269.582 34.2533 270.35 35.576C271.161 36.856 271.566 38.5413 271.566 40.632Z"/>
</mask>
<path d="M32.704 38.328C32.704 41.016 32.0427 43.3627 30.72 45.368C29.3973 47.3733 27.4773 48.9307 24.96 50.04C22.4853 51.1067 19.456 51.64 15.872 51.64C14.2933 51.64 12.736 51.5333 11.2 51.32C9.70667 51.1067 8.256 50.808 6.848 50.424C5.48267 49.9973 4.18133 49.4853 2.944 48.888V39.864C5.12 40.8027 7.36 41.6773 9.664 42.488C12.0107 43.256 14.336 43.64 16.64 43.64C18.2187 43.64 19.4773 43.4267 20.416 43C21.3973 42.5733 22.1013 41.9973 22.528 41.272C22.9973 40.5467 23.232 39.7147 23.232 38.776C23.232 37.624 22.8267 36.6427 22.016 35.832C21.248 35.0213 20.2027 34.2747 18.88 33.592C17.5573 32.8667 16.0427 32.0987 14.336 31.288C13.2693 30.776 12.1173 30.1787 10.88 29.496C9.64267 28.7707 8.448 27.896 7.296 26.872C6.18667 25.8053 5.26933 24.5253 4.544 23.032C3.81867 21.5387 3.456 19.7467 3.456 17.656C3.456 14.9253 4.07467 12.6 5.312 10.68C6.592 8.71733 8.384 7.224 10.688 6.2C13.0347 5.176 15.7867 4.664 18.944 4.664C21.3333 4.664 23.5947 4.94133 25.728 5.496C27.904 6.05067 30.1653 6.84 32.512 7.864L29.376 15.416C27.2853 14.5627 25.408 13.9013 23.744 13.432C22.08 12.9627 20.3733 12.728 18.624 12.728C17.4293 12.728 16.4053 12.92 15.552 13.304C14.6987 13.688 14.0373 14.2213 13.568 14.904C13.1413 15.5867 12.928 16.3973 12.928 17.336C12.928 18.4027 13.248 19.32 13.888 20.088C14.528 20.8133 15.488 21.5173 16.768 22.2C18.048 22.8827 19.648 23.6933 21.568 24.632C23.9147 25.7413 25.8987 26.8933 27.52 28.088C29.184 29.2827 30.464 30.6907 31.36 32.312C32.256 33.9333 32.704 35.9387 32.704 38.328ZM56.562 15.416C59.8047 15.416 62.578 16.0347 64.882 17.272C67.2287 18.5093 69.042 20.3013 70.322 22.648C71.602 24.9947 72.242 27.8747 72.242 31.288V35.896H49.714C49.7993 38.584 50.5887 40.696 52.082 42.232C53.618 43.768 55.73 44.536 58.418 44.536C60.6793 44.536 62.7273 44.3227 64.562 43.896C66.3967 43.4267 68.2953 42.7227 70.258 41.784V49.144C68.5513 49.9973 66.738 50.616 64.818 51C62.9407 51.4267 60.658 51.64 57.97 51.64C54.4713 51.64 51.378 51 48.69 49.72C46.002 48.3973 43.89 46.4133 42.354 43.768C40.818 41.1227 40.05 37.7947 40.05 33.784C40.05 29.688 40.7327 26.296 42.098 23.608C43.506 20.8773 45.4473 18.8293 47.922 17.464C50.3967 16.0987 53.2767 15.416 56.562 15.416ZM56.626 22.2C54.7913 22.2 53.2553 22.7973 52.018 23.992C50.8233 25.1867 50.1193 27.0427 49.906 29.56H63.282C63.282 28.152 63.026 26.8933 62.514 25.784C62.0447 24.6747 61.3193 23.8 60.338 23.16C59.3567 22.52 58.1193 22.2 56.626 22.2ZM101.414 15.416C101.884 15.416 102.438 15.4373 103.078 15.48C103.718 15.5227 104.23 15.5867 104.614 15.672L103.91 24.632C103.612 24.5467 103.164 24.4827 102.566 24.44C102.012 24.3547 101.521 24.312 101.094 24.312C99.8572 24.312 98.6625 24.4827 97.5105 24.824C96.3585 25.1227 95.3132 25.6133 94.3745 26.296C93.4785 26.9787 92.7532 27.896 92.1985 29.048C91.6865 30.1573 91.4305 31.544 91.4305 33.208V51H81.8945V16.056H89.1265L90.5345 21.944H90.9825C91.6652 20.7493 92.5185 19.6613 93.5425 18.68C94.5665 17.6987 95.7398 16.9093 97.0625 16.312C98.4278 15.7147 99.8785 15.416 101.414 15.416ZM121.197 51L107.885 16.056H117.869L124.589 35.96C124.845 36.728 125.058 37.5387 125.229 38.392C125.442 39.2453 125.592 40.0773 125.677 40.888C125.805 41.6987 125.89 42.4453 125.933 43.128H126.189C126.232 42.4027 126.317 41.6347 126.445 40.824C126.573 40.0133 126.722 39.2027 126.893 38.392C127.106 37.5387 127.341 36.728 127.597 35.96L134.317 16.056H144.301L130.989 51H121.197ZM160.77 16.056V51H151.234V16.056H160.77ZM156.034 2.36C157.442 2.36 158.658 2.70133 159.682 3.384C160.706 4.024 161.218 5.24 161.218 7.032C161.218 8.78133 160.706 9.99733 159.682 10.68C158.658 11.3627 157.442 11.704 156.034 11.704C154.584 11.704 153.346 11.3627 152.322 10.68C151.341 9.99733 150.85 8.78133 150.85 7.032C150.85 5.24 151.341 4.024 152.322 3.384C153.346 2.70133 154.584 2.36 156.034 2.36ZM186.863 51.64C183.407 51.64 180.463 51.0213 178.031 49.784C175.599 48.504 173.743 46.5413 172.463 43.896C171.183 41.2507 170.543 37.8587 170.543 33.72C170.543 29.4533 171.268 25.976 172.719 23.288C174.169 20.6 176.175 18.616 178.735 17.336C181.337 16.056 184.324 15.416 187.695 15.416C190.084 15.416 192.153 15.6507 193.903 16.12C195.695 16.5893 197.252 17.144 198.575 17.784L195.759 25.144C194.265 24.5467 192.857 24.056 191.535 23.672C190.255 23.288 188.975 23.096 187.695 23.096C186.031 23.096 184.644 23.5013 183.535 24.312C182.425 25.08 181.593 26.2533 181.039 27.832C180.527 29.368 180.271 31.3093 180.271 33.656C180.271 35.96 180.548 37.88 181.103 39.416C181.7 40.9093 182.553 42.04 183.663 42.808C184.772 43.5333 186.116 43.896 187.695 43.896C189.7 43.896 191.471 43.64 193.007 43.128C194.543 42.5733 196.036 41.8267 197.487 40.888V49.016C196.036 49.9547 194.5 50.616 192.879 51C191.3 51.4267 189.295 51.64 186.863 51.64ZM221.85 15.416C225.092 15.416 227.866 16.0347 230.17 17.272C232.516 18.5093 234.33 20.3013 235.61 22.648C236.89 24.9947 237.53 27.8747 237.53 31.288V35.896H215.002C215.087 38.584 215.876 40.696 217.37 42.232C218.906 43.768 221.018 44.536 223.706 44.536C225.967 44.536 228.015 44.3227 229.85 43.896C231.684 43.4267 233.583 42.7227 235.546 41.784V49.144C233.839 49.9973 232.026 50.616 230.106 51C228.228 51.4267 225.946 51.64 223.258 51.64C219.759 51.64 216.666 51 213.978 49.72C211.29 48.3973 209.178 46.4133 207.642 43.768C206.106 41.1227 205.338 37.7947 205.338 33.784C205.338 29.688 206.02 26.296 207.386 23.608C208.794 20.8773 210.735 18.8293 213.21 17.464C215.684 16.0987 218.564 15.416 221.85 15.416ZM221.914 22.2C220.079 22.2 218.543 22.7973 217.306 23.992C216.111 25.1867 215.407 27.0427 215.194 29.56H228.57C228.57 28.152 228.314 26.8933 227.802 25.784C227.332 24.6747 226.607 23.8 225.626 23.16C224.644 22.52 223.407 22.2 221.914 22.2ZM271.566 40.632C271.566 42.9787 271.011 44.984 269.902 46.648C268.793 48.2693 267.129 49.5067 264.91 50.36C262.691 51.2133 259.939 51.64 256.654 51.64C254.222 51.64 252.131 51.4693 250.382 51.128C248.633 50.8293 246.883 50.3173 245.134 49.592V41.72C247.011 42.5733 249.038 43.2773 251.214 43.832C253.39 44.3867 255.31 44.664 256.974 44.664C258.851 44.664 260.174 44.3867 260.942 43.832C261.753 43.2773 262.158 42.552 262.158 41.656C262.158 41.0587 261.987 40.5253 261.646 40.056C261.347 39.5867 260.665 39.0533 259.598 38.456C258.531 37.8587 256.867 37.0907 254.606 36.152C252.43 35.2133 250.638 34.296 249.23 33.4C247.822 32.4613 246.777 31.352 246.094 30.072C245.411 28.7493 245.07 27.1067 245.07 25.144C245.07 21.9013 246.329 19.4693 248.846 17.848C251.363 16.2267 254.713 15.416 258.894 15.416C261.07 15.416 263.139 15.6293 265.102 16.056C267.065 16.4827 269.091 17.1867 271.182 18.168L268.302 25.016C267.15 24.504 266.041 24.056 264.974 23.672C263.907 23.288 262.862 22.9893 261.838 22.776C260.857 22.5627 259.833 22.456 258.766 22.456C257.358 22.456 256.291 22.648 255.566 23.032C254.883 23.416 254.542 23.992 254.542 24.76C254.542 25.3147 254.713 25.8267 255.054 26.296C255.438 26.7227 256.142 27.192 257.166 27.704C258.233 28.216 259.79 28.8987 261.838 29.752C263.843 30.5627 265.571 31.416 267.022 32.312C268.473 33.1653 269.582 34.2533 270.35 35.576C271.161 36.856 271.566 38.5413 271.566 40.632Z" fill="#74C968"/>
<path d="M30.72 45.368L29.0505 44.2668L29.0505 44.2668L30.72 45.368ZM24.96 50.04L25.7517 51.8766L25.7591 51.8734L25.7665 51.8702L24.96 50.04ZM11.2 51.32L10.9172 53.2999L10.9249 53.301L11.2 51.32ZM6.848 50.424L6.25145 52.333L6.28642 52.3439L6.32177 52.3535L6.848 50.424ZM2.944 48.888H0.944V50.1433L2.0745 50.6891L2.944 48.888ZM2.944 39.864L3.73618 38.0276L0.944 36.8231V39.864H2.944ZM9.664 42.488L9.00019 44.3746L9.02098 44.3819L9.04192 44.3888L9.664 42.488ZM20.416 43L19.6185 41.1659L19.6034 41.1724L19.5884 41.1793L20.416 43ZM22.528 41.272L20.8489 40.1855L20.8257 40.2213L20.8041 40.258L22.528 41.272ZM22.016 35.832L20.5641 37.2075L20.5827 37.2271L20.6018 37.2462L22.016 35.832ZM18.88 33.592L17.9183 35.3456L17.9404 35.3577L17.9627 35.3692L18.88 33.592ZM14.336 31.288L13.4705 33.0911L13.4779 33.0946L14.336 31.288ZM10.88 29.496L9.86856 31.2214L9.89104 31.2346L9.91385 31.2472L10.88 29.496ZM7.296 26.872L5.90978 28.3137L5.93801 28.3408L5.96727 28.3668L7.296 26.872ZM4.544 23.032L2.74498 23.9058L2.74498 23.9058L4.544 23.032ZM5.312 10.68L3.63675 9.58744L3.63086 9.59659L5.312 10.68ZM10.688 6.2L9.88809 4.36688L9.87572 4.37237L10.688 6.2ZM25.728 5.496L25.2247 7.43167L25.234 7.43403L25.728 5.496ZM32.512 7.864L34.3591 8.63101L35.1125 6.81664L33.3119 6.03092L32.512 7.864ZM29.376 15.416L28.6202 17.2677L30.4607 18.0189L31.2231 16.183L29.376 15.416ZM23.744 13.432L23.2011 15.3569L23.2011 15.3569L23.744 13.432ZM15.552 13.304L16.3727 15.1278L16.3727 15.1278L15.552 13.304ZM13.568 14.904L11.9199 13.7709L11.8952 13.8069L11.872 13.844L13.568 14.904ZM13.888 20.088L12.3516 21.3684L12.3696 21.3901L12.3883 21.4112L13.888 20.088ZM16.768 22.2L17.7092 20.4353L17.7092 20.4353L16.768 22.2ZM21.568 24.632L20.6896 26.4288L20.7014 26.4345L20.7132 26.4401L21.568 24.632ZM27.52 28.088L26.3336 29.6981L26.3435 29.7054L26.3536 29.7126L27.52 28.088ZM31.36 32.312L29.6095 33.2794L29.6095 33.2794L31.36 32.312ZM30.704 38.328C30.704 40.6727 30.1325 42.6263 29.0505 44.2668L32.3895 46.4692C33.9529 44.099 34.704 41.3593 34.704 38.328H30.704ZM29.0505 44.2668C27.9689 45.9066 26.3714 47.2324 24.1535 48.2098L25.7665 51.8702C28.5832 50.6289 30.8258 48.8401 32.3895 46.4692L29.0505 44.2668ZM24.1683 48.2034C22.0116 49.133 19.2689 49.64 15.872 49.64V53.64C19.6431 53.64 22.9591 53.0803 25.7517 51.8766L24.1683 48.2034ZM15.872 49.64C14.3837 49.64 12.9183 49.5395 11.4751 49.339L10.9249 53.301C12.5537 53.5272 14.2029 53.64 15.872 53.64V49.64ZM11.4828 49.3401C10.0689 49.1381 8.6996 48.8559 7.37424 48.4945L6.32177 52.3535C7.8124 52.7601 9.34447 53.0752 10.9172 53.2999L11.4828 49.3401ZM7.44455 48.515C6.1689 48.1164 4.95908 47.6399 3.8135 47.0869L2.0745 50.6891C3.40359 51.3307 4.79643 51.8783 6.25145 52.333L7.44455 48.515ZM4.944 48.888V39.864H0.944V48.888H4.944ZM2.15182 41.7004C4.37128 42.6578 6.65415 43.5492 9.00019 44.3746L10.3278 40.6014C8.06585 39.8055 5.86872 38.9475 3.73618 38.0276L2.15182 41.7004ZM9.04192 44.3888C11.575 45.2178 14.1101 45.64 16.64 45.64V41.64C14.5619 41.64 12.4463 41.2942 10.2861 40.5872L9.04192 44.3888ZM16.64 45.64C18.3673 45.64 19.9441 45.4114 21.2436 44.8207L19.5884 41.1793C19.0106 41.4419 18.07 41.64 16.64 41.64V45.64ZM21.2135 44.8341C22.4766 44.2849 23.5589 43.4641 24.2519 42.286L20.8041 40.258C20.6438 40.5306 20.3181 40.8617 19.6185 41.1659L21.2135 44.8341ZM24.2071 42.3585C24.904 41.2815 25.232 40.0654 25.232 38.776H21.232C21.232 39.3639 21.0906 39.8118 20.8489 40.1855L24.2071 42.3585ZM25.232 38.776C25.232 37.0965 24.618 35.6056 23.4302 34.4178L20.6018 37.2462C21.0353 37.6798 21.232 38.1515 21.232 38.776H25.232ZM23.4679 34.4565C22.5037 33.4388 21.2572 32.5682 19.7973 31.8148L17.9627 35.3692C19.1482 35.9811 19.9923 36.6039 20.5641 37.2075L23.4679 34.4565ZM19.8417 31.8384C18.4778 31.0904 16.9275 30.3048 15.1941 29.4814L13.4779 33.0946C15.1578 33.8925 16.6369 34.6429 17.9183 35.3456L19.8417 31.8384ZM15.2015 29.485C14.1746 28.9921 13.0565 28.4126 11.8462 27.7448L9.91385 31.2472C11.1781 31.9447 12.3641 32.5599 13.4705 33.091L15.2015 29.485ZM11.8914 27.7706C10.7752 27.1163 9.686 26.3205 8.62473 25.3772L5.96727 28.3668C7.21 29.4715 8.51012 30.4251 9.86856 31.2214L11.8914 27.7706ZM8.68222 25.4303C7.75583 24.5396 6.97345 23.4561 6.34302 22.1582L2.74498 23.9058C3.56521 25.5945 4.61751 27.0711 5.90978 28.3137L8.68222 25.4303ZM6.34302 22.1582C5.77968 20.9984 5.456 19.5203 5.456 17.656H1.456C1.456 19.973 1.85765 22.0789 2.74498 23.9058L6.34302 22.1582ZM5.456 17.656C5.456 15.2335 6.00166 13.3019 6.99314 11.7634L3.63086 9.59659C2.14768 11.8981 1.456 14.6171 1.456 17.656H5.456ZM6.98722 11.7725C8.04035 10.1577 9.5208 8.90739 11.5003 8.02762L9.87572 4.37237C7.2472 5.54061 5.14365 7.27693 3.63678 9.58746L6.98722 11.7725ZM11.4879 8.03308C13.5307 7.14166 15.9995 6.664 18.944 6.664V2.664C15.5738 2.664 12.5386 3.21033 9.88811 4.36692L11.4879 8.03308ZM18.944 6.664C21.1777 6.664 23.2689 6.92312 25.2247 7.43164L26.2313 3.56035C23.9205 2.95954 21.489 2.664 18.944 2.664V6.664ZM25.234 7.43403C27.292 7.95863 29.451 8.71039 31.7121 9.69708L33.3119 6.03092C30.8797 4.96961 28.516 4.1427 26.222 3.55797L25.234 7.43403ZM30.6649 7.09699L27.5289 14.649L31.2231 16.183L34.3591 8.63101L30.6649 7.09699ZM30.1318 13.5643C27.9913 12.6906 26.0412 12.0019 24.2869 11.5071L23.2011 15.3569C24.7749 15.8008 26.5793 16.4347 28.6202 17.2677L30.1318 13.5643ZM24.2869 11.5071C22.4442 10.9873 20.5547 10.728 18.624 10.728V14.728C20.192 14.728 21.7158 14.938 23.2011 15.3569L24.2869 11.5071ZM18.624 10.728C17.2218 10.728 15.9036 10.9526 14.7313 11.4802L16.3727 15.1278C16.9071 14.8874 17.6369 14.728 18.624 14.728V10.728ZM14.7313 11.4802C13.5884 11.9944 12.6225 12.749 11.9199 13.7709L15.2161 16.0371C15.4522 15.6937 15.8089 15.3816 16.3727 15.1278L14.7313 11.4802ZM11.872 13.844C11.2156 14.8942 10.928 16.0858 10.928 17.336H14.928C14.928 16.7089 15.0671 16.2791 15.264 15.964L11.872 13.844ZM10.928 17.336C10.928 18.8367 11.3911 20.2158 12.3516 21.3684L15.4244 18.8076C15.1049 18.4242 14.928 17.9686 14.928 17.336H10.928ZM12.3883 21.4112C13.2449 22.382 14.4308 23.2201 15.8268 23.9647L17.7092 20.4353C16.5452 19.8145 15.8111 19.2446 15.3877 18.7648L12.3883 21.4112ZM15.8268 23.9647C17.1347 24.6623 18.7573 25.4841 20.6896 26.4288L22.4464 22.8352C20.5387 21.9026 18.9613 21.1031 17.7092 20.4353L15.8268 23.9647ZM20.7132 26.4401C22.9748 27.5092 24.8409 28.5982 26.3336 29.6981L28.7064 26.4779C26.9564 25.1884 24.8546 23.9734 22.4228 22.8239L20.7132 26.4401ZM26.3536 29.7126C27.8023 30.7528 28.8716 31.9441 29.6095 33.2794L33.1105 31.3446C32.0564 29.4372 30.5657 27.8126 28.6864 26.4634L26.3536 29.7126ZM29.6095 33.2794C30.3011 34.5309 30.704 36.1815 30.704 38.328H34.704C34.704 35.6958 34.2109 33.3358 33.1105 31.3446L29.6095 33.2794ZM64.882 17.272L63.9357 19.034L63.9425 19.0376L63.9492 19.0411L64.882 17.272ZM70.322 22.648L68.5662 23.6057L68.5662 23.6057L70.322 22.648ZM72.242 35.896V37.896H74.242V35.896H72.242ZM49.714 35.896V33.896H47.6495L47.715 35.9595L49.714 35.896ZM52.082 42.232L50.648 43.6262L50.6578 43.6363L50.6678 43.6462L52.082 42.232ZM64.562 43.896L65.015 45.844L65.0364 45.839L65.0577 45.8336L64.562 43.896ZM70.258 41.784H72.258V38.6105L69.3951 39.9797L70.258 41.784ZM70.258 49.144L71.1524 50.9329L72.258 50.3801V49.144H70.258ZM64.818 51L64.4258 49.0388L64.4002 49.044L64.3748 49.0497L64.818 51ZM48.69 49.72L47.807 51.5145L47.8185 51.5202L47.8301 51.5257L48.69 49.72ZM42.354 43.768L40.6244 44.7723L40.6244 44.7723L42.354 43.768ZM42.098 23.608L40.3204 22.6914L40.3148 22.7023L42.098 23.608ZM47.922 17.464L46.9558 15.7128L46.9558 15.7128L47.922 17.464ZM52.018 23.992L50.6288 22.5532L50.6162 22.5654L50.6038 22.5778L52.018 23.992ZM49.906 29.56L47.9131 29.3911L47.7293 31.56H49.906V29.56ZM63.282 29.56V31.56H65.282V29.56H63.282ZM62.514 25.784L60.6721 26.5633L60.6846 26.5929L60.6981 26.6221L62.514 25.784ZM60.338 23.16L61.4305 21.4848L61.4305 21.4848L60.338 23.16ZM56.562 17.416C59.5525 17.416 61.9844 17.9861 63.9357 19.034L65.8283 15.51C63.1716 14.0833 60.0569 13.416 56.562 13.416V17.416ZM63.9492 19.0411C65.9448 20.0934 67.4732 21.6018 68.5662 23.6057L72.0778 21.6903C70.6108 19.0009 68.5125 16.9253 65.8148 15.5029L63.9492 19.0411ZM68.5662 23.6057C69.6476 25.5883 70.242 28.1188 70.242 31.288H74.242C74.242 27.6305 73.5564 24.4011 72.0778 21.6903L68.5662 23.6057ZM70.242 31.288V35.896H74.242V31.288H70.242ZM72.242 33.896H49.714V37.896H72.242V33.896ZM47.715 35.9595C47.812 39.0135 48.7245 41.6477 50.648 43.6262L53.516 40.8378C52.4528 39.7443 51.7867 38.1545 51.713 35.8325L47.715 35.9595ZM50.6678 43.6462C52.6637 45.6422 55.333 46.536 58.418 46.536V42.536C56.127 42.536 54.5723 41.8938 53.4962 40.8178L50.6678 43.6462ZM58.418 46.536C60.8025 46.536 63.0057 46.3113 65.015 45.844L64.109 41.948C62.4489 42.334 60.5562 42.536 58.418 42.536V46.536ZM65.0577 45.8336C67.0358 45.3276 69.0575 44.5751 71.1209 43.5883L69.3951 39.9797C67.5332 40.8702 65.7575 41.5258 64.0663 41.9584L65.0577 45.8336ZM68.258 41.784V49.144H72.258V41.784H68.258ZM69.3636 47.3551C67.82 48.1269 66.176 48.6888 64.4258 49.0388L65.2102 52.9612C67.3 52.5432 69.2826 51.8678 71.1524 50.9329L69.3636 47.3551ZM64.3748 49.0497C62.6874 49.4332 60.5628 49.64 57.97 49.64V53.64C60.7532 53.64 63.194 53.4201 65.2612 52.9503L64.3748 49.0497ZM57.97 49.64C54.7171 49.64 51.9262 49.0459 49.5499 47.9143L47.8301 51.5257C50.8298 52.9541 54.2256 53.64 57.97 53.64V49.64ZM49.573 47.9255C47.2468 46.7808 45.4259 45.0756 44.0836 42.7637L40.6244 44.7723C42.3541 47.7511 44.7572 50.0138 47.807 51.5145L49.573 47.9255ZM44.0836 42.7637C42.7716 40.5041 42.05 37.5487 42.05 33.784H38.05C38.05 38.0406 38.8644 41.7412 40.6244 44.7723L44.0836 42.7637ZM42.05 33.784C42.05 29.8954 42.7001 26.8389 43.8812 24.5137L40.3148 22.7023C38.7652 25.7531 38.05 29.4806 38.05 33.784H42.05ZM43.8756 24.5246C45.1184 22.1143 46.791 20.3722 48.8882 19.2152L46.9558 15.7128C44.1036 17.2865 41.8936 19.6403 40.3204 22.6914L43.8756 24.5246ZM48.8882 19.2152C51.0221 18.0378 53.5593 17.416 56.562 17.416V13.416C52.994 13.416 49.7713 14.1595 46.9558 15.7128L48.8882 19.2152ZM56.626 20.2C54.3111 20.2 52.2655 20.9729 50.6288 22.5532L53.4072 25.4308C54.2451 24.6218 55.2715 24.2 56.626 24.2V20.2ZM50.6038 22.5778C48.9444 24.2371 48.1473 26.6284 47.9131 29.3911L51.8989 29.7289C52.0914 27.4569 52.7022 26.1362 53.4322 25.4062L50.6038 22.5778ZM49.906 31.56H63.282V27.56H49.906V31.56ZM65.282 29.56C65.282 27.9066 64.9804 26.3552 64.3299 24.9459L60.6981 26.6221C61.0716 27.4315 61.282 28.3974 61.282 29.56H65.282ZM64.3559 25.0047C63.7361 23.5398 62.7551 22.3486 61.4305 21.4848L59.2455 24.8352C59.8836 25.2514 60.3532 25.8096 60.6721 26.5633L64.3559 25.0047ZM61.4305 21.4848C60.0457 20.5816 58.4015 20.2 56.626 20.2V24.2C57.8372 24.2 58.6676 24.4584 59.2455 24.8352L61.4305 21.4848ZM103.078 15.48L102.945 17.4756L102.945 17.4756L103.078 15.48ZM104.614 15.672L106.608 15.8287L106.744 14.0965L105.048 13.7196L104.614 15.672ZM103.91 24.632L103.361 26.555L105.713 27.227L105.904 24.7887L103.91 24.632ZM102.566 24.44L102.262 26.4167L102.343 26.4291L102.424 26.4349L102.566 24.44ZM97.5105 24.824L98.0124 26.76L98.0457 26.7514L98.0787 26.7416L97.5105 24.824ZM94.3745 26.296L93.1982 24.6785L93.1801 24.6916L93.1624 24.7051L94.3745 26.296ZM92.1985 29.048L90.3965 28.1804L90.3894 28.1951L90.3826 28.2099L92.1985 29.048ZM91.4305 51V53H93.4305V51H91.4305ZM81.8945 51H79.8945V53H81.8945V51ZM81.8945 16.056V14.056H79.8945V16.056H81.8945ZM89.1265 16.056L91.0717 15.5909L90.7046 14.056H89.1265V16.056ZM90.5345 21.944L88.5893 22.4091L88.9564 23.944H90.5345V21.944ZM90.9825 21.944V23.944H92.1431L92.719 22.9363L90.9825 21.944ZM93.5425 18.68L94.9263 20.124L94.9263 20.124L93.5425 18.68ZM97.0625 16.312L96.2609 14.4797L96.2501 14.4844L96.2393 14.4893L97.0625 16.312ZM101.414 17.416C101.827 17.416 102.335 17.4349 102.945 17.4756L103.212 13.4844C102.542 13.4398 101.941 13.416 101.414 13.416V17.416ZM102.945 17.4756C103.539 17.5151 103.938 17.5704 104.181 17.6244L105.048 13.7196C104.523 13.603 103.898 13.5302 103.212 13.4844L102.945 17.4756ZM102.621 15.5153L101.917 24.4753L105.904 24.7887L106.608 15.8287L102.621 15.5153ZM104.46 22.709C103.957 22.5653 103.342 22.4903 102.709 22.4451L102.424 26.4349C102.985 26.475 103.267 26.5281 103.361 26.555L104.46 22.709ZM102.871 22.4633C102.245 22.367 101.649 22.312 101.094 22.312V26.312C101.393 26.312 101.779 26.3424 102.262 26.4167L102.871 22.4633ZM101.094 22.312C99.6706 22.312 98.2842 22.5088 96.9423 22.9064L98.0787 26.7416C99.0408 26.4565 100.044 26.312 101.094 26.312V22.312ZM97.0086 22.888C95.6201 23.248 94.3448 23.8446 93.1982 24.6785L95.5508 27.9135C96.2815 27.3821 97.0969 26.9973 98.0124 26.76L97.0086 22.888ZM93.1624 24.7051C91.9834 25.6034 91.0694 26.7828 90.3965 28.1804L94.0005 29.9156C94.4369 29.0092 94.9736 28.3539 95.5866 27.8869L93.1624 24.7051ZM90.3826 28.2099C89.7138 29.659 89.4305 31.3535 89.4305 33.208H93.4305C93.4305 31.7345 93.6592 30.6557 94.0144 29.8861L90.3826 28.2099ZM89.4305 33.208V51H93.4305V33.208H89.4305ZM91.4305 49H81.8945V53H91.4305V49ZM83.8945 51V16.056H79.8945V51H83.8945ZM81.8945 18.056H89.1265V14.056H81.8945V18.056ZM87.1813 16.5211L88.5893 22.4091L92.4797 21.4789L91.0717 15.5909L87.1813 16.5211ZM90.5345 23.944H90.9825V19.944H90.5345V23.944ZM92.719 22.9363C93.3035 21.9134 94.0366 20.9766 94.9263 20.124L92.1587 17.236C91.0004 18.3461 90.0269 19.5852 89.246 20.9517L92.719 22.9363ZM94.9263 20.124C95.7825 19.3035 96.7651 18.6408 97.8857 18.1347L96.2393 14.4893C94.7145 15.1779 93.3505 16.0938 92.1587 17.236L94.9263 20.124ZM97.8641 18.1443C98.9689 17.661 100.146 17.416 101.414 17.416V13.416C99.6113 13.416 97.8868 13.7683 96.2609 14.4797L97.8641 18.1443ZM121.197 51L119.328 51.712L119.819 53H121.197V51ZM107.885 16.056V14.056H104.983L106.016 16.768L107.885 16.056ZM117.869 16.056L119.764 15.4162L119.305 14.056H117.869V16.056ZM124.589 35.96L126.486 35.3275L126.484 35.3202L124.589 35.96ZM125.229 38.392L123.268 38.7842L123.277 38.8309L123.289 38.8771L125.229 38.392ZM125.677 40.888L123.688 41.0974L123.693 41.1488L123.701 41.1999L125.677 40.888ZM125.933 43.128L123.937 43.2528L124.054 45.128H125.933V43.128ZM126.189 43.128V45.128H128.075L128.186 43.2454L126.189 43.128ZM126.445 40.824L128.421 41.1359L128.421 41.1359L126.445 40.824ZM126.893 38.392L124.953 37.9069L124.944 37.9433L124.936 37.98L126.893 38.392ZM127.597 35.96L125.702 35.3202L125.7 35.3275L127.597 35.96ZM134.317 16.056V14.056H132.881L132.422 15.4162L134.317 16.056ZM144.301 16.056L146.17 16.768L147.203 14.056H144.301V16.056ZM130.989 51V53H132.367L132.858 51.712L130.989 51ZM123.066 50.288L109.754 15.344L106.016 16.768L119.328 51.712L123.066 50.288ZM107.885 18.056H117.869V14.056H107.885V18.056ZM115.974 16.6958L122.694 36.5998L126.484 35.3202L119.764 15.4162L115.974 16.6958ZM122.692 36.5925C122.92 37.2762 123.112 38.0062 123.268 38.7842L127.19 37.9998C127.004 37.0711 126.77 36.1798 126.486 35.3275L122.692 36.5925ZM123.289 38.8771C123.481 39.6468 123.613 40.3866 123.688 41.0974L127.666 40.6786C127.57 39.7681 127.404 38.8439 127.169 37.9069L123.289 38.8771ZM123.701 41.1999C123.822 41.9604 123.899 42.6437 123.937 43.2528L127.929 43.0032C127.882 42.247 127.788 41.437 127.653 40.5761L123.701 41.1999ZM125.933 45.128H126.189V41.128H125.933V45.128ZM128.186 43.2454C128.224 42.5929 128.301 41.8902 128.421 41.1359L124.469 40.5121C124.333 41.3791 124.239 42.2124 124.192 43.0106L128.186 43.2454ZM128.421 41.1359C128.543 40.3591 128.686 39.5818 128.85 38.804L124.936 37.98C124.758 38.8235 124.603 39.6676 124.469 40.5121L128.421 41.1359ZM128.833 38.8771C129.035 38.0692 129.256 37.3079 129.494 36.5925L125.7 35.3275C125.426 36.1481 125.177 37.0081 124.953 37.9069L128.833 38.8771ZM129.492 36.5998L136.212 16.6958L132.422 15.4162L125.702 35.3202L129.492 36.5998ZM134.317 18.056H144.301V14.056H134.317V18.056ZM142.432 15.344L129.12 50.288L132.858 51.712L146.17 16.768L142.432 15.344ZM130.989 49H121.197V53H130.989V49ZM160.77 16.056H162.77V14.056H160.77V16.056ZM160.77 51V53H162.77V51H160.77ZM151.234 51H149.234V53H151.234V51ZM151.234 16.056V14.056H149.234V16.056H151.234ZM159.682 3.384L158.573 5.0481L158.598 5.06441L158.622 5.08L159.682 3.384ZM159.682 10.68L158.573 9.01589L158.573 9.0159L159.682 10.68ZM152.322 10.68L151.18 12.3218L151.197 12.3331L151.213 12.3441L152.322 10.68ZM152.322 3.384L153.415 5.05922L153.423 5.0537L153.432 5.0481L152.322 3.384ZM158.77 16.056V51H162.77V16.056H158.77ZM160.77 49H151.234V53H160.77V49ZM153.234 51V16.056H149.234V51H153.234ZM151.234 18.056H160.77V14.056H151.234V18.056ZM156.034 4.36C157.106 4.36 157.923 4.61483 158.573 5.0481L160.792 1.7199C159.394 0.787827 157.779 0.359997 156.034 0.359997V4.36ZM158.622 5.08C158.811 5.19788 159.218 5.57043 159.218 7.032H163.218C163.218 4.90957 162.602 2.85012 160.742 1.688L158.622 5.08ZM159.218 7.032C159.218 8.41748 158.828 8.84624 158.573 9.01589L160.792 12.3441C162.585 11.1484 163.218 9.14518 163.218 7.032H159.218ZM158.573 9.0159C157.923 9.44916 157.106 9.704 156.034 9.704V13.704C157.779 13.704 159.394 13.2762 160.792 12.3441L158.573 9.0159ZM156.034 9.704C154.907 9.704 154.072 9.44274 153.432 9.0159L151.213 12.3441C152.621 13.2826 154.261 13.704 156.034 13.704V9.704ZM153.465 9.03819C153.24 8.88169 152.85 8.44854 152.85 7.032H148.85C148.85 9.11412 149.443 11.113 151.18 12.3218L153.465 9.03819ZM152.85 7.032C152.85 5.53848 153.256 5.16281 153.415 5.05922L151.23 1.70878C149.426 2.88518 148.85 4.94152 148.85 7.032H152.85ZM153.432 5.0481C154.072 4.62126 154.907 4.36 156.034 4.36V0.359997C154.261 0.359997 152.621 0.781404 151.213 1.7199L153.432 5.0481ZM178.031 49.784L177.099 51.5538L177.111 51.5603L177.124 51.5666L178.031 49.784ZM172.463 43.896L174.263 43.0249L174.263 43.0249L172.463 43.896ZM172.719 23.288L170.958 22.3381L170.958 22.3381L172.719 23.288ZM178.735 17.336L177.852 15.5413L177.84 15.5471L178.735 17.336ZM193.903 16.12L193.384 18.0517L193.396 18.0547L193.903 16.12ZM198.575 17.784L200.442 18.4987L201.099 16.7835L199.446 15.9837L198.575 17.784ZM195.759 25.144L195.016 27.001L196.901 27.755L197.626 25.8587L195.759 25.144ZM191.535 23.672L190.96 25.5877L190.968 25.5902L190.977 25.5927L191.535 23.672ZM183.535 24.312L184.673 25.9564L184.694 25.9418L184.715 25.9268L183.535 24.312ZM181.039 27.832L179.152 27.169L179.146 27.1842L179.141 27.1995L181.039 27.832ZM181.103 39.416L179.221 40.0953L179.233 40.1272L179.246 40.1588L181.103 39.416ZM183.663 42.808L182.524 44.4524L182.546 44.4675L182.568 44.4819L183.663 42.808ZM193.007 43.128L193.639 45.0254L193.662 45.0175L193.686 45.0091L193.007 43.128ZM197.487 40.888H199.487V37.2117L196.4 39.2089L197.487 40.888ZM197.487 49.016L198.573 50.6951L199.487 50.1041V49.016H197.487ZM192.879 51L192.418 49.0538L192.387 49.0611L192.357 49.0693L192.879 51ZM186.863 49.64C183.64 49.64 181.024 49.0629 178.937 48.0014L177.124 51.5666C179.901 52.9798 183.173 53.64 186.863 53.64V49.64ZM178.962 48.0142C176.935 46.9474 175.37 45.3138 174.263 43.0249L170.662 44.7671C172.115 47.7689 174.262 50.0606 177.099 51.5538L178.962 48.0142ZM174.263 43.0249C173.157 40.7387 172.543 37.6722 172.543 33.72H168.543C168.543 38.0451 169.208 41.7627 170.662 44.7671L174.263 43.0249ZM172.543 33.72C172.543 29.6605 173.235 26.5412 174.479 24.2379L170.958 22.3381C169.3 25.4107 168.543 29.2462 168.543 33.72H172.543ZM174.479 24.2379C175.748 21.8862 177.462 20.2082 179.629 19.1249L177.84 15.5471C174.887 17.0238 172.591 19.3138 170.958 22.3381L174.479 24.2379ZM179.617 19.1307C181.904 18.006 184.58 17.416 187.695 17.416V13.416C184.067 13.416 180.77 14.106 177.852 15.5413L179.617 19.1307ZM187.695 17.416C189.961 17.416 191.848 17.6395 193.384 18.0517L194.421 14.1883C192.459 13.6619 190.207 13.416 187.695 13.416V17.416ZM193.396 18.0547C195.093 18.4993 196.523 19.0132 197.703 19.5843L199.446 15.9837C197.981 15.2748 196.296 14.6794 194.409 14.1853L193.396 18.0547ZM196.707 17.0693L193.891 24.4293L197.626 25.8587L200.442 18.4987L196.707 17.0693ZM196.501 23.287C194.957 22.6694 193.487 22.1562 192.092 21.7513L190.977 25.5927C192.227 25.9558 193.573 26.424 195.016 27.001L196.501 23.287ZM192.109 21.7563C190.651 21.3189 189.178 21.096 187.695 21.096V25.096C188.771 25.096 189.858 25.2571 190.96 25.5877L192.109 21.7563ZM187.695 21.096C185.698 21.096 183.874 21.5871 182.354 22.6972L184.715 25.9268C185.414 25.4155 186.363 25.096 187.695 25.096V21.096ZM182.396 22.6676C180.864 23.7281 179.812 25.2893 179.152 27.169L182.925 28.495C183.374 27.2173 183.986 26.4318 184.673 25.9564L182.396 22.6676ZM179.141 27.1995C178.538 29.0088 178.271 31.1821 178.271 33.656H182.271C182.271 31.4365 182.515 29.7272 182.936 28.4645L179.141 27.1995ZM178.271 33.656C178.271 36.104 178.563 38.272 179.221 40.0953L182.984 38.7367C182.533 37.488 182.271 35.816 182.271 33.656H178.271ZM179.246 40.1588C179.96 41.9455 181.034 43.4209 182.524 44.4524L184.801 41.1636C184.072 40.6591 183.439 39.8732 182.959 38.6732L179.246 40.1588ZM182.568 44.4819C184.061 45.4578 185.802 45.896 187.695 45.896V41.896C186.429 41.896 185.483 41.6088 184.757 41.1341L182.568 44.4819ZM187.695 45.896C189.866 45.896 191.857 45.6193 193.639 45.0254L192.374 41.2306C191.084 41.6607 189.534 41.896 187.695 41.896V45.896ZM193.686 45.0091C195.373 44.3999 197.002 43.5836 198.573 42.5671L196.4 39.2089C195.07 40.0697 193.712 40.7468 192.327 41.2469L193.686 45.0091ZM195.487 40.888V49.016H199.487V40.888H195.487ZM196.4 47.3369C195.134 48.1561 193.808 48.7244 192.418 49.0538L193.339 52.9462C195.191 52.5076 196.938 51.7532 198.573 50.6951L196.4 47.3369ZM192.357 49.0693C191.009 49.4335 189.195 49.64 186.863 49.64V53.64C189.394 53.64 191.591 53.4198 193.4 52.9307L192.357 49.0693ZM230.17 17.272L229.223 19.034L229.23 19.0376L229.237 19.0411L230.17 17.272ZM235.61 22.648L233.854 23.6057L233.854 23.6057L235.61 22.648ZM237.53 35.896V37.896H239.53V35.896H237.53ZM215.002 35.896V33.896H212.937L213.003 35.9595L215.002 35.896ZM217.37 42.232L215.936 43.6262L215.945 43.6363L215.955 43.6462L217.37 42.232ZM229.85 43.896L230.303 45.844L230.324 45.839L230.345 45.8336L229.85 43.896ZM235.546 41.784H237.546V38.6105L234.683 39.9797L235.546 41.784ZM235.546 49.144L236.44 50.9329L237.546 50.3801V49.144H235.546ZM230.106 51L229.713 49.0388L229.688 49.044L229.662 49.0497L230.106 51ZM213.978 49.72L213.094 51.5145L213.106 51.5202L213.118 51.5257L213.978 49.72ZM207.642 43.768L205.912 44.7723L205.912 44.7723L207.642 43.768ZM207.386 23.608L205.608 22.6914L205.602 22.7023L207.386 23.608ZM213.21 17.464L212.243 15.7128L212.243 15.7128L213.21 17.464ZM217.306 23.992L215.916 22.5532L215.904 22.5654L215.891 22.5778L217.306 23.992ZM215.194 29.56L213.201 29.3911L213.017 31.56H215.194V29.56ZM228.57 29.56V31.56H230.57V29.56H228.57ZM227.802 25.784L225.96 26.5633L225.972 26.5929L225.986 26.6221L227.802 25.784ZM225.626 23.16L226.718 21.4848L226.718 21.4848L225.626 23.16ZM221.85 17.416C224.84 17.416 227.272 17.9861 229.223 19.034L231.116 15.51C228.459 14.0833 225.344 13.416 221.85 13.416V17.416ZM229.237 19.0411C231.232 20.0934 232.761 21.6018 233.854 23.6057L237.365 21.6903C235.898 19.0009 233.8 16.9253 231.102 15.5029L229.237 19.0411ZM233.854 23.6057C234.935 25.5883 235.53 28.1188 235.53 31.288H239.53C239.53 27.6305 238.844 24.4011 237.365 21.6903L233.854 23.6057ZM235.53 31.288V35.896H239.53V31.288H235.53ZM237.53 33.896H215.002V37.896H237.53V33.896ZM213.003 35.9595C213.099 39.0135 214.012 41.6477 215.936 43.6262L218.803 40.8378C217.74 39.7443 217.074 38.1545 217 35.8325L213.003 35.9595ZM215.955 43.6462C217.951 45.6422 220.621 46.536 223.706 46.536V42.536C221.414 42.536 219.86 41.8938 218.784 40.8178L215.955 43.6462ZM223.706 46.536C226.09 46.536 228.293 46.3113 230.303 45.844L229.396 41.948C227.736 42.334 225.844 42.536 223.706 42.536V46.536ZM230.345 45.8336C232.323 45.3276 234.345 44.5751 236.408 43.5883L234.683 39.9797C232.821 40.8702 231.045 41.5258 229.354 41.9584L230.345 45.8336ZM233.546 41.784V49.144H237.546V41.784H233.546ZM234.651 47.3551C233.108 48.1269 231.464 48.6888 229.713 49.0388L230.498 52.9612C232.587 52.5432 234.57 51.8678 236.44 50.9329L234.651 47.3551ZM229.662 49.0497C227.975 49.4332 225.85 49.64 223.258 49.64V53.64C226.041 53.64 228.481 53.4201 230.549 52.9503L229.662 49.0497ZM223.258 49.64C220.005 49.64 217.214 49.0459 214.837 47.9143L213.118 51.5257C216.117 52.9541 219.513 53.64 223.258 53.64V49.64ZM214.861 47.9255C212.534 46.7808 210.713 45.0756 209.371 42.7637L205.912 44.7723C207.642 47.7511 210.045 50.0138 213.094 51.5145L214.861 47.9255ZM209.371 42.7637C208.059 40.5041 207.338 37.5487 207.338 33.784H203.338C203.338 38.0406 204.152 41.7412 205.912 44.7723L209.371 42.7637ZM207.338 33.784C207.338 29.8954 207.988 26.8389 209.169 24.5137L205.602 22.7023C204.053 25.7531 203.338 29.4806 203.338 33.784H207.338ZM209.163 24.5246C210.406 22.1143 212.079 20.3722 214.176 19.2152L212.243 15.7128C209.391 17.2865 207.181 19.6403 205.608 22.6914L209.163 24.5246ZM214.176 19.2152C216.31 18.0378 218.847 17.416 221.85 17.416V13.416C218.282 13.416 215.059 14.1595 212.243 15.7128L214.176 19.2152ZM221.914 20.2C219.599 20.2 217.553 20.9729 215.916 22.5532L218.695 25.4308C219.533 24.6218 220.559 24.2 221.914 24.2V20.2ZM215.891 22.5778C214.232 24.2371 213.435 26.6284 213.201 29.3911L217.186 29.7289C217.379 27.4569 217.99 26.1362 218.72 25.4062L215.891 22.5778ZM215.194 31.56H228.57V27.56H215.194V31.56ZM230.57 29.56C230.57 27.9066 230.268 26.3552 229.617 24.9459L225.986 26.6221C226.359 27.4315 226.57 28.3974 226.57 29.56H230.57ZM229.643 25.0047C229.024 23.5398 228.043 22.3486 226.718 21.4848L224.533 24.8352C225.171 25.2514 225.641 25.8096 225.96 26.5633L229.643 25.0047ZM226.718 21.4848C225.333 20.5816 223.689 20.2 221.914 20.2V24.2C223.125 24.2 223.955 24.4584 224.533 24.8352L226.718 21.4848ZM269.902 46.648L271.553 47.7774L271.559 47.7674L271.566 47.7574L269.902 46.648ZM264.91 50.36L265.628 52.2267L265.628 52.2267L264.91 50.36ZM250.382 51.128L250.765 49.165L250.742 49.1605L250.719 49.1565L250.382 51.128ZM245.134 49.592H243.134V50.9278L244.368 51.4395L245.134 49.592ZM245.134 41.72L245.962 39.8993L243.134 38.614V41.72H245.134ZM260.942 43.832L259.813 42.1814L259.792 42.1957L259.771 42.2106L260.942 43.832ZM261.646 40.056L259.959 41.1298L259.992 41.1821L260.029 41.2323L261.646 40.056ZM254.606 36.152L253.814 37.9884L253.826 37.9939L253.839 37.9992L254.606 36.152ZM249.23 33.4L248.121 35.0641L248.138 35.0759L248.156 35.0873L249.23 33.4ZM246.094 30.072L244.317 30.9893L244.323 31.0013L244.329 31.0132L246.094 30.072ZM248.846 17.848L249.929 19.5294L249.929 19.5294L248.846 17.848ZM265.102 16.056L264.677 18.0104L264.677 18.0104L265.102 16.056ZM271.182 18.168L273.026 18.9433L273.77 17.1734L272.032 16.3575L271.182 18.168ZM268.302 25.016L267.49 26.8436L269.354 27.6724L270.146 25.7913L268.302 25.016ZM264.974 23.672L264.297 25.5538L264.297 25.5538L264.974 23.672ZM261.838 22.776L261.413 24.7304L261.422 24.7322L261.43 24.734L261.838 22.776ZM255.566 23.032L254.63 21.2644L254.608 21.2764L254.585 21.2888L255.566 23.032ZM255.054 26.296L253.437 27.4723L253.498 27.5565L253.567 27.6339L255.054 26.296ZM257.166 27.704L256.272 29.4929L256.286 29.5001L256.301 29.507L257.166 27.704ZM261.838 29.752L261.069 31.5982L261.079 31.6022L261.088 31.6062L261.838 29.752ZM267.022 32.312L265.971 34.0136L265.989 34.0249L266.008 34.0359L267.022 32.312ZM270.35 35.576L268.62 36.5803L268.64 36.6136L268.66 36.6461L270.35 35.576ZM269.566 40.632C269.566 42.6538 269.092 44.2569 268.238 45.5386L271.566 47.7574C272.93 45.7111 273.566 43.3035 273.566 40.632H269.566ZM268.251 45.5186C267.415 46.7404 266.113 47.7545 264.192 48.4933L265.628 52.2267C268.144 51.2589 270.17 49.7983 271.553 47.7774L268.251 45.5186ZM264.192 48.4933C262.272 49.2319 259.781 49.64 256.654 49.64V53.64C260.098 53.64 263.111 53.1948 265.628 52.2267L264.192 48.4933ZM256.654 49.64C254.308 49.64 252.352 49.4747 250.765 49.165L249.999 53.091C251.911 53.464 254.136 53.64 256.654 53.64V49.64ZM250.719 49.1565C249.126 48.8846 247.52 48.4164 245.9 47.7445L244.368 51.4395C246.246 52.2182 248.139 52.774 250.045 53.0995L250.719 49.1565ZM247.134 49.592V41.72H243.134V49.592H247.134ZM244.306 43.5407C246.3 44.447 248.44 45.1887 250.72 45.77L251.708 41.894C249.636 41.3659 247.722 40.6996 245.962 39.8993L244.306 43.5407ZM250.72 45.77C253.005 46.3525 255.097 46.664 256.974 46.664V42.664C255.523 42.664 253.775 42.4208 251.708 41.894L250.72 45.77ZM256.974 46.664C258.926 46.664 260.803 46.3994 262.113 45.4534L259.771 42.2106C259.545 42.374 258.776 42.664 256.974 42.664V46.664ZM262.071 45.4826C263.365 44.5973 264.158 43.2835 264.158 41.656H260.158C260.158 41.8205 260.14 41.9573 259.813 42.1814L262.071 45.4826ZM264.158 41.656C264.158 40.6492 263.861 39.7014 263.263 38.8797L260.029 41.2323C260.114 41.3493 260.158 41.4681 260.158 41.656H264.158ZM263.333 38.9822C262.744 38.0567 261.663 37.3201 260.575 36.711L258.621 40.201C259.098 40.4684 259.443 40.6957 259.679 40.88C259.929 41.0757 259.98 41.1635 259.959 41.1298L263.333 38.9822ZM260.575 36.711C259.402 36.0543 257.65 35.25 255.373 34.3048L253.839 37.9992C256.085 38.9313 257.66 39.6631 258.621 40.201L260.575 36.711ZM255.398 34.3156C253.283 33.4031 251.593 32.5334 250.304 31.7127L248.156 35.0873C249.683 36.0586 251.577 37.0236 253.814 37.9884L255.398 34.3156ZM250.339 31.7359C249.16 30.9498 248.362 30.0744 247.859 29.1308L244.329 31.0132C245.191 32.6296 246.484 33.9729 248.121 35.0641L250.339 31.7359ZM247.871 29.1547C247.374 28.1914 247.07 26.8853 247.07 25.144H243.07C243.07 27.328 243.449 29.3073 244.317 30.9893L247.871 29.1547ZM247.07 25.144C247.07 22.514 248.038 20.7476 249.929 19.5294L247.763 16.1666C244.62 18.1911 243.07 21.2887 243.07 25.144H247.07ZM249.929 19.5294C252.019 18.1832 254.95 17.416 258.894 17.416V13.416C254.475 13.416 250.707 14.2701 247.763 16.1666L249.929 19.5294ZM258.894 17.416C260.939 17.416 262.865 17.6164 264.677 18.0104L265.527 14.1016C263.414 13.6422 261.201 13.416 258.894 13.416V17.416ZM264.677 18.0104C266.473 18.4008 268.358 19.0516 270.332 19.9785L272.032 16.3575C269.825 15.3217 267.656 14.5645 265.527 14.1016L264.677 18.0104ZM269.338 17.3927L266.458 24.2407L270.146 25.7913L273.026 18.9433L269.338 17.3927ZM269.114 23.1884C267.923 22.6588 266.768 22.1923 265.651 21.7902L264.297 25.5538C265.313 25.9197 266.377 26.3492 267.49 26.8436L269.114 23.1884ZM265.651 21.7902C264.504 21.3772 263.369 21.0519 262.246 20.818L261.43 24.734C262.355 24.9267 263.311 25.1988 264.297 25.5538L265.651 21.7902ZM262.263 20.8216C261.134 20.5762 259.967 20.456 258.766 20.456V24.456C259.699 24.456 260.58 24.5492 261.413 24.7304L262.263 20.8216ZM258.766 20.456C257.235 20.456 255.782 20.6549 254.63 21.2644L256.502 24.7996C256.801 24.6411 257.481 24.456 258.766 24.456V20.456ZM254.585 21.2888C253.289 22.0183 252.542 23.2518 252.542 24.76H256.542C256.542 24.7164 256.547 24.7032 256.544 24.7123C256.543 24.7167 256.541 24.725 256.536 24.7361C256.532 24.7473 256.526 24.7594 256.519 24.7716C256.511 24.7838 256.504 24.794 256.498 24.802C256.491 24.81 256.487 24.8142 256.486 24.8151C256.484 24.8168 256.5 24.8013 256.547 24.7752L254.585 21.2888ZM252.542 24.76C252.542 25.7577 252.859 26.678 253.437 27.4723L256.671 25.1197C256.566 24.9753 256.542 24.8716 256.542 24.76H252.542ZM253.567 27.6339C254.214 28.3523 255.201 28.9577 256.272 29.4929L258.06 25.9151C257.083 25.4262 256.662 25.0931 256.541 24.9581L253.567 27.6339ZM256.301 29.507C257.415 30.0421 259.011 30.7408 261.069 31.5982L262.607 27.9058C260.569 27.0565 259.05 26.3899 258.031 25.901L256.301 29.507ZM261.088 31.6062C263.016 32.3853 264.638 33.1902 265.971 34.0136L268.073 30.6104C266.505 29.6418 264.671 28.7401 262.588 27.8978L261.088 31.6062ZM266.008 34.0359C267.193 34.7328 268.042 35.5842 268.62 36.5803L272.08 34.5717C271.122 32.9225 269.753 31.5979 268.036 30.5881L266.008 34.0359ZM268.66 36.6461C269.205 37.5062 269.566 38.7816 269.566 40.632H273.566C273.566 38.3011 273.116 36.2058 272.04 34.5059L268.66 36.6461Z" fill="#212121" mask="url(#path-1-outside-1_317_279)"/>
</svg>
